EncodeSansSemiCondensed-Medium.ufo
<glyph name="exclam" format="2">
  <advance width="501.3939393939394"/>
  <unicode hex="0021"/>
  <outline>
    <contour>
      <point x="188.4848484848485" y="401.0909090909091" type="line"/>
      <point x="314.6818181818182" y="401.0909090909091" type="line"/>
      <point x="358.0" y="931.7575757575758" type="line"/>
      <point x="358.0" y="1480.0" type="line"/>
      <point x="143.3939393939394" y="1480.0" type="line"/>
      <point x="143.3939393939394" y="931.7575757575758" type="line"/>
    </contour>
    <contour>
      <point x="250.6969696969697" y="-13.93939393939394" type="curve" smooth="yes"/>
      <point x="332.9848484848485" y="-13.93939393939394"/>
      <point x="389.5151515151515" y="38.22727272727273"/>
      <point x="389.5151515151515" y="116.60606060606061" type="curve" smooth="yes"/>
      <point x="389.5151515151515" y="194.9848484848485"/>
      <point x="334.56060606060606" y="248.36363636363635"/>
      <point x="250.6969696969697" y="248.36363636363635" type="curve" smooth="yes"/>
      <point x="166.83333333333334" y="248.36363636363635"/>
      <point x="111.87878787878788" y="196.56060606060606"/>
      <point x="111.87878787878788" y="116.60606060606061" type="curve" smooth="yes"/>
      <point x="111.87878787878788" y="36.651515151515156"/>
      <point x="168.4090909090909" y="-13.93939393939394"/>
    </contour>
  </outline>
</glyph>
<glyph name="quotedbl" format="2">
  <advance width="758.4242424242424"/>
  <unicode hex="0022"/>
  <outline>
    <contour>
      <point x="143.9848484848485" y="896.5151515151515" type="line"/>
      <point x="266.7121212121212" y="896.5151515151515" type="line"/>
      <point x="308.57575757575756" y="1616.0" type="line"/>
      <point x="102.12121212121212" y="1616.0" type="line"/>
    </contour>
    <contour>
      <point x="491.7121212121212" y="896.5151515151515" type="line"/>
      <point x="614.439393939394" y="896.5151515151515" type="line"/>
      <point x="656.3030303030303" y="1616.0" type="line"/>
      <point x="449.8484848484849" y="1616.0" type="line"/>
    </contour>
  </outline>
</glyph>
<glyph name="numbersign" format="2">
  <advance width="1132.7272727272727"/>
  <unicode hex="0023"/>
  <outline>
    <contour>
      <point x="601.3181818181819" y="0.0" type="line"/>
      <point x="761.2727272727273" y="0.0" type="line"/>
      <point x="900.2727272727273" y="1480.0" type="line"/>
      <point x="740.3181818181819" y="1480.0" type="line"/>
    </contour>
    <contour>
      <point x="95.0" y="443.1818181818182" type="line"/>
      <point x="1037.7272727272727" y="443.1818181818182" type="line"/>
      <point x="1037.7272727272727" y="601.7575757575758" type="line"/>
      <point x="95.0" y="601.7575757575758" type="line"/>
    </contour>
    <contour>
      <point x="232.45454545454547" y="0.0" type="line"/>
      <point x="392.4090909090909" y="0.0" type="line"/>
      <point x="531.4090909090909" y="1480.0" type="line"/>
      <point x="371.45454545454544" y="1480.0" type="line"/>
    </contour>
    <contour>
      <point x="95.0" y="878.2424242424242" type="line"/>
      <point x="1037.7272727272727" y="878.2424242424242" type="line"/>
      <point x="1037.7272727272727" y="1036.8181818181818" type="line"/>
      <point x="95.0" y="1036.8181818181818" type="line"/>
    </contour>
  </outline>
</glyph>
<glyph name="dollar" format="2">
  <advance width="1014.4242424242425"/>
  <unicode hex="0024"/>
  <outline>
    <contour>
      <point x="431.3333333333333" y="-18.78787878787879" type="curve" smooth="yes"/>
      <point x="766.1212121212121" y="-18.78787878787879"/>
      <point x="955.8484848484849" y="139.63636363636363"/>
      <point x="955.8484848484849" y="409.7121212121212" type="curve" smooth="yes"/>
      <point x="955.8484848484849" y="629.0151515151515"/>
      <point x="830.590909090909" y="754.030303030303"/>
      <point x="583.8939393939394" y="825.4242424242424" type="curve" smooth="yes"/>
      <point x="499.71212121212125" y="850.3030303030303" type="line" smooth="yes"/>
      <point x="324.8787878787879" y="903.3939393939394"/>
      <point x="264.5151515151515" y="965.3484848484849"/>
      <point x="264.5151515151515" y="1092.2272727272727" type="curve" smooth="yes"/>
      <point x="264.5151515151515" y="1237.7727272727273"/>
      <point x="361.0454545454545" y="1326.2272727272727"/>
      <point x="603.1060606060606" y="1326.2272727272727" type="curve" smooth="yes"/>
      <point x="696.7121212121212" y="1326.2272727272727"/>
      <point x="797.8484848484849" y="1313.439393939394"/>
      <point x="889.2121212121212" y="1286.2878787878788" type="curve"/>
      <point x="889.2121212121212" y="1460.060606060606" type="line"/>
      <point x="805.7727272727273" y="1484.6969696969697"/>
      <point x="694.5454545454545" y="1498.7878787878788"/>
      <point x="591.939393939394" y="1498.7878787878788" type="curve" smooth="yes"/>
      <point x="235.84848484848484" y="1498.7878787878788"/>
      <point x="58.57575757575758" y="1340.1969696969697"/>
      <point x="58.57575757575758" y="1079.3636363636363" type="curve" smooth="yes"/>
      <point x="58.57575757575758" y="863.1515151515151"/>
      <point x="184.4090909090909" y="737.2727272727273"/>
      <point x="411.5" y="670.6515151515151" type="curve" smooth="yes"/>
      <point x="495.6818181818182" y="645.7727272727273" type="line" smooth="yes"/>
      <point x="682.8333333333334" y="589.3030303030303"/>
      <point x="749.9090909090909" y="527.1818181818181"/>
      <point x="749.9090909090909" y="394.59090909090907" type="curve" smooth="yes"/>
      <point x="749.9090909090909" y="237.96969696969697"/>
      <point x="650.1212121212121" y="153.77272727272725"/>
      <point x="430.42424242424244" y="153.77272727272725" type="curve" smooth="yes"/>
      <point x="325.25757575757575" y="153.77272727272725"/>
      <point x="200.77272727272728" y="173.42424242424244"/>
      <point x="85.39393939393939" y="210.84848484848484" type="curve"/>
      <point x="85.39393939393939" y="37.07575757575758" type="line"/>
      <point x="193.4090909090909" y="-0.015151515151515138"/>
      <point x="323.45454545454544" y="-18.78787878787879"/>
    </contour>
    <contour>
      <point x="413.77272727272725" y="-240.0" type="line"/>
      <point x="602.2575757575758" y="-240.0" type="line"/>
      <point x="602.2575757575758" y="44.54545454545455" type="line"/>
      <point x="413.77272727272725" y="35.45454545454545" type="line"/>
    </contour>
    <contour>
      <point x="413.77272727272725" y="1456.3636363636363" type="line"/>
      <point x="602.2575757575758" y="1456.3636363636363" type="line"/>
      <point x="602.2575757575758" y="1720.0" type="line"/>
      <point x="413.77272727272725" y="1720.0" type="line"/>
    </contour>
  </outline>
</glyph>
<glyph name="ampersand" format="2">
  <advance width="1438.3030303030303"/>
  <unicode hex="0026"/>
  <outline>
    <contour>
      <point x="1333.3484848484848" y="-20.0" type="line"/>
      <point x="1438.3030303030303" y="132.04545454545456" type="line"/>
      <point x="665.8484848484849" y="737.8939393939394" type="line" smooth="yes"/>
      <point x="507.74242424242425" y="870.3787878787879"/>
      <point x="463.5" y="950.6818181818181"/>
      <point x="463.5" y="1066.969696969697" type="curve" smooth="yes"/>
      <point x="463.5" y="1233.969696969697"/>
      <point x="561.1363636363636" y="1326.2272727272727"/>
      <point x="798.5151515151515" y="1326.2272727272727" type="curve" smooth="yes"/>
      <point x="869.5" y="1326.2272727272727"/>
      <point x="943.3484848484849" y="1318.1515151515152"/>
      <point x="1014.7121212121212" y="1300.5" type="curve"/>
      <point x="1014.7121212121212" y="1474.2727272727273" type="line"/>
      <point x="946.4090909090909" y="1489.2878787878788"/>
      <point x="870.5909090909091" y="1498.7878787878788"/>
      <point x="786.2575757575758" y="1498.7878787878788" type="curve" smooth="yes"/>
      <point x="431.2121212121212" y="1498.7878787878788"/>
      <point x="257.56060606060606" y="1340.4242424242425"/>
      <point x="257.56060606060606" y="1067.6363636363637" type="curve" smooth="yes"/>
      <point x="257.56060606060606" y="900.5"/>
      <point x="326.5" y="771.0909090909091"/>
      <point x="560.8939393939394" y="585.8484848484849" type="curve" smooth="yes"/>
    </contour>
    <contour>
      <point x="639.0757575757576" y="-18.0" type="curve" smooth="yes"/>
      <point x="993.560606060606" y="-18.0"/>
      <point x="1212.1818181818182" y="175.33333333333334"/>
      <point x="1212.1818181818182" y="555.3939393939394" type="curve" smooth="yes"/>
      <point x="1212.1818181818182" y="636.7878787878788"/>
      <point x="1201.0757575757575" y="731.4545454545455"/>
      <point x="1177.7272727272727" y="817.5151515151515" type="curve"/>
      <point x="1007.2727272727273" y="817.5151515151515" type="line"/>
      <point x="1031.530303030303" y="731.4545454545455"/>
      <point x="1044.3484848484848" y="635.3939393939394"/>
      <point x="1044.3484848484848" y="553.2121212121212" type="curve" smooth="yes"/>
      <point x="1044.3484848484848" y="253.36363636363637"/>
      <point x="891.1363636363636" y="137.42424242424244"/>
      <point x="659.3939393939394" y="137.42424242424244" type="curve" smooth="yes"/>
      <point x="438.9242424242424" y="137.42424242424244"/>
      <point x="322.92424242424244" y="249.6060606060606"/>
      <point x="322.92424242424244" y="426.72727272727275" type="curve" smooth="yes"/>
      <point x="322.92424242424244" y="554.1212121212121"/>
      <point x="379.6818181818182" y="648.1212121212121"/>
      <point x="487.6969696969697" y="711.0909090909091" type="curve"/>
      <point x="382.95454545454544" y="806.0" type="line"/>
      <point x="222.84848484848484" y="736.060606060606"/>
      <point x="118.16666666666666" y="594.1212121212121"/>
      <point x="118.16666666666666" y="404.1818181818182" type="curve" smooth="yes"/>
      <point x="118.16666666666666" y="149.8181818181818"/>
      <point x="300.59090909090907" y="-18.0"/>
    </contour>
  </outline>
</glyph>
<glyph name="quotesingle" format="2">
  <advance width="410.6969696969697"/>
  <unicode hex="0027"/>
  <outline>
    <contour>
      <point x="143.9848484848485" y="896.5151515151515" type="line"/>
      <point x="266.7121212121212" y="896.5151515151515" type="line"/>
      <point x="308.57575757575756" y="1616.0" type="line"/>
      <point x="102.12121212121212" y="1616.0" type="line"/>
    </contour>
  </outline>
</glyph>
<glyph name="parenleft" format="2">
  <advance width="636.4242424242424"/>
  <unicode hex="0028"/>
  <outline>
    <contour>
      <point x="424.27272727272725" y="-440.0" type="curve"/>
      <point x="631.9242424242424" y="-440.0" type="line"/>
      <point x="414.2121212121212" y="-134.71212121212122"/>
      <point x="318.18181818181813" y="207.56060606060606"/>
      <point x="318.18181818181813" y="588.0" type="curve" smooth="yes"/>
      <point x="318.18181818181813" y="968.439393939394"/>
      <point x="414.2121212121212" y="1310.7121212121212"/>
      <point x="631.9242424242424" y="1616.0" type="curve"/>
      <point x="424.27272727272725" y="1616.0" type="line"/>
      <point x="204.53030303030303" y="1323.621212121212"/>
      <point x="109.68181818181819" y="974.8333333333334"/>
      <point x="109.68181818181819" y="588.0" type="curve" smooth="yes"/>
      <point x="109.68181818181819" y="201.16666666666666"/>
      <point x="204.53030303030303" y="-147.62121212121212"/>
    </contour>
  </outline>
</glyph>
<glyph name="parenright" format="2">
  <advance width="636.4242424242424"/>
  <unicode hex="0029"/>
  <outline>
    <contour>
      <point x="4.500000000000007" y="-440.0" type="curve"/>
      <point x="212.15151515151513" y="-440.0" type="line"/>
      <point x="431.8939393939394" y="-147.62121212121212"/>
      <point x="526.7424242424242" y="201.16666666666666"/>
      <point x="526.7424242424242" y="588.0" type="curve" smooth="yes"/>
      <point x="526.7424242424242" y="974.8333333333334"/>
      <point x="431.8939393939394" y="1323.621212121212"/>
      <point x="212.15151515151513" y="1616.0" type="curve"/>
      <point x="4.500000000000007" y="1616.0" type="line"/>
      <point x="222.21212121212122" y="1310.7121212121212"/>
      <point x="318.24242424242425" y="968.439393939394"/>
      <point x="318.24242424242425" y="588.0" type="curve" smooth="yes"/>
      <point x="318.24242424242425" y="207.56060606060606"/>
      <point x="222.21212121212122" y="-134.71212121212122"/>
    </contour>
  </outline>
</glyph>
<glyph name="asterisk" format="2">
  <advance width="922.8484848484849"/>
  <unicode hex="002A"/>
  <outline>
    <contour>
      <point x="535.8787878787879" y="1171.409090909091" type="line"/>
      <point x="731.3181818181818" y="1207.1969696969697" type="line"/>
      <point x="892.8484848484849" y="1259.439393939394" type="line"/>
      <point x="847.8333333333334" y="1396.8484848484848" type="line"/>
      <point x="687.5151515151515" y="1344.0151515151515" type="line"/>
      <point x="506.3787878787879" y="1256.560606060606" type="line"/>
      <point x="533.8030303030303" y="1455.6363636363637" type="line"/>
      <point x="533.8030303030303" y="1616.0" type="line"/>
      <point x="389.04545454545456" y="1616.0" type="line"/>
      <point x="389.04545454545456" y="1455.6363636363637" type="line"/>
      <point x="416.469696969697" y="1256.560606060606" type="line"/>
      <point x="235.33333333333334" y="1344.0151515151515" type="line"/>
      <point x="75.01515151515152" y="1396.8484848484848" type="line"/>
      <point x="30.0" y="1259.439393939394" type="line"/>
      <point x="191.53030303030303" y="1207.1969696969697" type="line"/>
      <point x="386.969696969697" y="1171.409090909091" type="line"/>
      <point x="249.06060606060606" y="1027.2272727272727" type="line"/>
      <point x="152.84848484848484" y="895.5909090909091" type="line"/>
      <point x="270.24242424242425" y="810.1212121212121" type="line"/>
      <point x="366.45454545454544" y="941.560606060606" type="line"/>
      <point x="461.42424242424244" y="1121.0757575757575" type="line"/>
      <point x="556.3939393939394" y="941.560606060606" type="line"/>
      <point x="652.6060606060606" y="810.1212121212121" type="line"/>
      <point x="770.0" y="895.5909090909091" type="line"/>
      <point x="673.7878787878788" y="1027.2272727272727" type="line"/>
    </contour>
  </outline>
</glyph>
<glyph name="plus" format="2">
  <advance width="1053.5757575757575"/>
  <unicode hex="002B"/>
  <outline>
    <contour>
      <point x="442.56060606060606" y="349.6363636363636" type="line"/>
      <point x="611.0151515151515" y="349.6363636363636" type="line"/>
      <point x="611.0151515151515" y="679.5454545454545" type="line"/>
      <point x="925.060606060606" y="679.5454545454545" type="line"/>
      <point x="925.060606060606" y="840.4545454545455" type="line"/>
      <point x="611.0151515151515" y="840.4545454545455" type="line"/>
      <point x="611.0151515151515" y="1170.3636363636363" type="line"/>
      <point x="442.56060606060606" y="1170.3636363636363" type="line"/>
      <point x="442.56060606060606" y="840.4545454545455" type="line"/>
      <point x="128.5151515151515" y="840.4545454545455" type="line"/>
      <point x="128.5151515151515" y="679.5454545454545" type="line"/>
      <point x="442.56060606060606" y="679.5454545454545" type="line"/>
    </contour>
  </outline>
</glyph>
<glyph name="hyphen" format="2">
  <advance width="785.060606060606"/>
  <unicode hex="002D"/>
  <outline>
    <contour>
      <point x="128.5151515151515" y="480.1363636363636" type="line"/>
      <point x="656.5454545454545" y="480.1363636363636" type="line"/>
      <point x="656.5454545454545" y="647.7424242424242" type="line"/>
      <point x="128.5151515151515" y="647.7424242424242" type="line"/>
    </contour>
  </outline>
</glyph>
<glyph name="period" format="2">
  <advance width="461.3939393939394"/>
  <unicode hex="002E"/>
  <outline>
    <contour>
      <point x="230.6969696969697" y="-13.93939393939394" type="curve" smooth="yes"/>
      <point x="312.9848484848485" y="-13.93939393939394"/>
      <point x="369.5151515151515" y="39.015151515151516"/>
      <point x="369.5151515151515" y="120.34848484848484" type="curve" smooth="yes"/>
      <point x="369.5151515151515" y="201.6818181818182"/>
      <point x="314.56060606060606" y="255.84848484848484"/>
      <point x="230.6969696969697" y="255.84848484848484" type="curve" smooth="yes"/>
      <point x="146.83333333333334" y="255.84848484848484"/>
      <point x="91.87878787878788" y="203.25757575757575"/>
      <point x="91.87878787878788" y="120.34848484848484" type="curve" smooth="yes"/>
      <point x="91.87878787878788" y="37.43939393939394"/>
      <point x="148.4090909090909" y="-13.93939393939394"/>
    </contour>
  </outline>
</glyph>
<glyph name="slash" format="2">
  <advance width="608.530303030303"/>
  <unicode hex="002F"/>
  <outline>
    <contour>
      <point x="0.0" y="-240.0" type="line"/>
      <point x="197.33333333333331" y="-240.0" type="line"/>
      <point x="608.530303030303" y="1616.0" type="line"/>
      <point x="411.1969696969697" y="1616.0" type="line"/>
    </contour>
  </outline>
</glyph>
<glyph name="zero" format="2">
  <advance width="1192.439393939394"/>
  <unicode hex="0030"/>
  <note>
600
</note>
  <outline>
    <contour>
      <point x="596.1212121212121" y="-18.78787878787879" type="curve" smooth="yes"/>
      <point x="904.3939393939394" y="-18.78787878787879"/>
      <point x="1092.7575757575758" y="192.15151515151516"/>
      <point x="1092.7575757575758" y="740.0" type="curve" smooth="yes"/>
      <point x="1092.7575757575758" y="1287.8484848484848"/>
      <point x="906.2121212121212" y="1498.7878787878788"/>
      <point x="596.1212121212121" y="1498.7878787878788" type="curve" smooth="yes"/>
      <point x="286.030303030303" y="1498.7878787878788"/>
      <point x="99.68181818181819" y="1287.8484848484848"/>
      <point x="99.68181818181819" y="740.0" type="curve" smooth="yes"/>
      <point x="99.68181818181819" y="192.15151515151516"/>
      <point x="287.8484848484849" y="-18.78787878787879"/>
    </contour>
    <contour>
      <point x="596.3181818181819" y="154.16666666666666" type="curve" smooth="yes"/>
      <point x="414.1060606060606" y="154.16666666666666"/>
      <point x="302.8636363636364" y="289.1212121212121"/>
      <point x="302.8636363636364" y="742.4242424242424" type="curve" smooth="yes"/>
      <point x="302.8636363636364" y="1190.878787878788"/>
      <point x="414.5" y="1325.8333333333333"/>
      <point x="596.3181818181819" y="1325.8333333333333" type="curve" smooth="yes"/>
      <point x="777.939393939394" y="1325.8333333333333"/>
      <point x="889.5757575757576" y="1190.878787878788"/>
      <point x="889.5757575757576" y="737.5757575757576" type="curve" smooth="yes"/>
      <point x="889.5757575757576" y="289.1212121212121"/>
      <point x="777.939393939394" y="154.16666666666666"/>
    </contour>
  </outline>
</glyph>
<glyph name="one" format="2">
  <advance width="690.6969696969697"/>
  <unicode hex="0031"/>
  <outline>
    <contour>
      <point x="330.7121212121212" y="0.0" type="line"/>
      <point x="534.6212121212121" y="0.0" type="line"/>
      <point x="534.6212121212121" y="1484.7878787878788" type="line"/>
      <point x="407.95454545454544" y="1484.7878787878788" type="line"/>
      <point x="20.31818181818182" y="1210.090909090909" type="line"/>
      <point x="20.31818181818182" y="1014.2424242424242" type="line"/>
      <point x="407.95454545454544" y="1288.3333333333333" type="line"/>
      <point x="330.7121212121212" y="1337.3333333333333" type="line"/>
    </contour>
  </outline>
</glyph>
<glyph name="two" format="2">
  <advance width="943.6666666666666"/>
  <unicode hex="0032"/>
  <outline>
    <contour>
      <point x="50.24242424242424" y="0.0" type="line"/>
      <point x="887.7272727272727" y="0.0" type="line"/>
      <point x="887.7272727272727" y="176.07575757575756" type="line"/>
      <point x="263.57575757575756" y="176.07575757575756" type="line"/>
      <point x="277.22727272727275" y="121.93939393939394" type="line"/>
      <point x="615.6060606060606" y="598.0454545454545" type="line" smooth="yes"/>
      <point x="766.7878787878788" y="808.1666666666666"/>
      <point x="816.8333333333333" y="948.5909090909091"/>
      <point x="817.7424242424242" y="1098.1969696969697" type="curve" smooth="yes"/>
      <point x="819.560606060606" y="1380.3333333333333"/>
      <point x="646.3939393939394" y="1498.7878787878788"/>
      <point x="350.1666666666667" y="1498.7878787878788" type="curve" smooth="yes"/>
      <point x="240.33333333333334" y="1498.7878787878788"/>
      <point x="113.28787878787878" y="1477.5"/>
      <point x="32.56060606060606" y="1444.469696969697" type="curve"/>
      <point x="32.56060606060606" y="1270.6969696969697" type="line"/>
      <point x="122.01515151515152" y="1307.1363636363637"/>
      <point x="222.6969696969697" y="1326.2272727272727"/>
      <point x="328.3030303030303" y="1326.2272727272727" type="curve" smooth="yes"/>
      <point x="520.060606060606" y="1326.2272727272727"/>
      <point x="614.7878787878788" y="1255.8636363636365"/>
      <point x="614.7878787878788" y="1082.2272727272727" type="curve" smooth="yes"/>
      <point x="614.7878787878788" y="964.6818181818182"/>
      <point x="566.0151515151515" y="846.6363636363636"/>
      <point x="438.530303030303" y="665.6515151515151" type="curve" smooth="yes"/>
      <point x="50.24242424242424" y="113.07575757575758" type="line"/>
    </contour>
  </outline>
</glyph>
<glyph name="three" format="2">
  <advance width="971.4090909090909"/>
  <unicode hex="0033"/>
  <outline>
    <contour>
      <point x="382.8636363636364" y="-18.78787878787879" type="curve" smooth="yes"/>
      <point x="721.4848484848485" y="-18.78787878787879"/>
      <point x="907.2121212121212" y="133.42424242424244"/>
      <point x="907.2121212121212" y="398.92424242424244" type="curve" smooth="yes"/>
      <point x="907.2121212121212" y="608.969696969697"/>
      <point x="784.7575757575758" y="742.3787878787879"/>
      <point x="554.3484848484849" y="775.8787878787879" type="curve"/>
      <point x="553.439393939394" y="756.6060606060606" type="line"/>
      <point x="747.2424242424242" y="797.3484848484849"/>
      <point x="860.6969696969697" y="933.2424242424242"/>
      <point x="860.6969696969697" y="1120.3484848484848" type="curve" smooth="yes"/>
      <point x="860.6969696969697" y="1362.378787878788"/>
      <point x="699.6515151515151" y="1498.7878787878788"/>
      <point x="393.40909090909093" y="1498.7878787878788" type="curve" smooth="yes"/>
      <point x="281.42424242424244" y="1498.7878787878788"/>
      <point x="155.46969696969697" y="1478.5"/>
      <point x="70.34848484848484" y="1445.378787878788" type="curve"/>
      <point x="70.34848484848484" y="1281.8484848484848" type="line"/>
      <point x="163.9848484848485" y="1317.7878787878788"/>
      <point x="268.1212121212121" y="1336.0757575757575"/>
      <point x="373.1363636363636" y="1336.0757575757575" type="curve" smooth="yes"/>
      <point x="568.4242424242424" y="1336.0757575757575"/>
      <point x="663.2575757575758" y="1257.5454545454545"/>
      <point x="663.2575757575758" y="1103.8181818181818" type="curve" smooth="yes"/>
      <point x="663.2575757575758" y="939.8333333333334"/>
      <point x="547.6666666666666" y="841.2727272727273"/>
      <point x="308.95454545454544" y="841.2727272727273" type="curve" smooth="yes"/>
      <point x="205.16666666666666" y="841.2727272727273" type="line"/>
      <point x="205.16666666666666" y="676.0" type="line"/>
      <point x="367.45454545454544" y="676.0" type="line" smooth="yes"/>
      <point x="607.8787878787879" y="676.0"/>
      <point x="711.1515151515151" y="576.5151515151515"/>
      <point x="711.1515151515151" y="409.3484848484849" type="curve" smooth="yes"/>
      <point x="711.1515151515151" y="233.71212121212122"/>
      <point x="597.3939393939394" y="143.92424242424244"/>
      <point x="376.8484848484849" y="143.92424242424244" type="curve" smooth="yes"/>
      <point x="272.4848484848485" y="143.92424242424244"/>
      <point x="150.15151515151516" y="162.13636363636363"/>
      <point x="43.65151515151515" y="196.7121212121212" type="curve"/>
      <point x="43.65151515151515" y="33.18181818181818" type="line"/>
      <point x="148.06060606060606" y="-0.9696969696969694"/>
      <point x="263.57575757575756" y="-18.78787878787879"/>
    </contour>
  </outline>
</glyph>
<glyph name="four" format="2">
  <advance width="1137.4242424242425"/>
  <unicode hex="0034"/>
  <outline>
    <contour>
      <point x="42.54545454545455" y="342.43939393939394" type="line"/>
      <point x="1101.1060606060605" y="342.43939393939394" type="line"/>
      <point x="1101.1060606060605" y="505.3181818181818" type="line"/>
      <point x="217.34848484848484" y="505.3181818181818" type="line"/>
      <point x="245.34848484848484" y="455.09090909090907" type="line"/>
      <point x="764.1060606060606" y="1480.0" type="line"/>
      <point x="564.6212121212121" y="1480.0" type="line"/>
      <point x="42.54545454545455" y="456.3030303030303" type="line"/>
    </contour>
    <contour>
      <point x="721.6666666666666" y="0.0" type="line"/>
      <point x="907.060606060606" y="0.0" type="line"/>
      <point x="907.060606060606" y="980.0" type="line"/>
      <point x="745.9090909090909" y="980.0" type="line"/>
      <point x="721.6666666666666" y="505.3181818181818" type="line"/>
    </contour>
  </outline>
</glyph>
<glyph name="five" format="2">
  <advance width="980.0454545454545"/>
  <unicode hex="0035"/>
  <outline>
    <contour>
      <point x="410.1515151515151" y="-18.78787878787879" type="curve" smooth="yes"/>
      <point x="748.4545454545455" y="-18.78787878787879"/>
      <point x="931.8181818181818" y="133.72727272727272"/>
      <point x="932.0151515151515" y="423.1666666666667" type="curve" smooth="yes"/>
      <point x="932.2121212121212" y="700.2121212121212"/>
      <point x="758.9545454545455" y="840.1363636363636"/>
      <point x="366.27272727272725" y="864.1060606060606" type="curve" smooth="yes"/>
      <point x="199.43939393939394" y="874.0151515151515" type="line"/>
      <point x="315.06060606060606" y="790.969696969697" type="line"/>
      <point x="355.42424242424244" y="1401.8181818181818" type="line"/>
      <point x="264.2121212121212" y="1312.9848484848485" type="line"/>
      <point x="872.5757575757575" y="1312.9848484848485" type="line"/>
      <point x="872.5757575757575" y="1480.0" type="line"/>
      <point x="166.62121212121212" y="1480.0" type="line"/>
      <point x="118.53030303030303" y="713.469696969697" type="line"/>
      <point x="285.3636363636364" y="703.560606060606" type="line" smooth="yes"/>
      <point x="625.0" y="683.1666666666666"/>
      <point x="735.7575757575758" y="597.9242424242424"/>
      <point x="735.7575757575758" y="417.1363636363636" type="curve" smooth="yes"/>
      <point x="735.7575757575758" y="236.62121212121212"/>
      <point x="628.3636363636364" y="144.7121212121212"/>
      <point x="405.04545454545456" y="144.7121212121212" type="curve" smooth="yes"/>
      <point x="297.3484848484849" y="144.7121212121212"/>
      <point x="175.0151515151515" y="164.4242424242424"/>
      <point x="70.03030303030303" y="198.6818181818182" type="curve"/>
      <point x="70.03030303030303" y="35.15151515151515" type="line"/>
      <point x="172.3181818181818" y="0.31818181818181823"/>
      <point x="289.6515151515151" y="-18.78787878787879"/>
    </contour>
  </outline>
</glyph>
<glyph name="six" format="2">
  <advance width="1107.9848484848485"/>
  <unicode hex="0036"/>
  <outline>
    <contour>
      <point x="612.8787878787879" y="-18.78787878787879" type="curve" smooth="yes"/>
      <point x="871.1212121212121" y="-18.78787878787879"/>
      <point x="1056.6969696969697" y="135.42424242424244"/>
      <point x="1056.6969696969697" y="428.56060606060606" type="curve" smooth="yes"/>
      <point x="1056.6969696969697" y="725.969696969697"/>
      <point x="867.0909090909091" y="861.8787878787879"/>
      <point x="622.8484848484849" y="861.8787878787879" type="curve" smooth="yes"/>
      <point x="481.4090909090909" y="861.8787878787879"/>
      <point x="344.1060606060606" y="808.5909090909091"/>
      <point x="271.0454545454545" y="718.2878787878788" type="curve"/>
      <point x="271.0454545454545" y="553.5757575757576" type="line"/>
      <point x="345.8636363636364" y="661.6818181818182"/>
      <point x="474.07575757575756" y="704.4848484848485"/>
      <point x="587.1363636363636" y="704.4848484848485" type="curve" smooth="yes"/>
      <point x="751.6515151515151" y="704.4848484848485"/>
      <point x="867.9242424242424" y="621.060606060606"/>
      <point x="867.9242424242424" y="421.3181818181818" type="curve" smooth="yes"/>
      <point x="867.9242424242424" y="222.5909090909091"/>
      <point x="756.3787878787879" y="139.78787878787878"/>
      <point x="614.969696969697" y="139.78787878787878" type="curve" smooth="yes"/>
      <point x="435.6212121212121" y="139.78787878787878"/>
      <point x="312.0" y="252.65151515151516"/>
      <point x="312.0" y="665.6060606060606" type="curve" smooth="yes"/>
      <point x="312.0" y="742.2121212121212" type="line" smooth="yes"/>
      <point x="312.0" y="1166.7575757575758"/>
      <point x="457.6060606060606" y="1332.9242424242425"/>
      <point x="737.6666666666666" y="1332.9242424242425" type="curve" smooth="yes"/>
      <point x="826.9242424242424" y="1332.9242424242425"/>
      <point x="912.0151515151515" y="1319.8181818181818"/>
      <point x="988.5909090909091" y="1290.8030303030303" type="curve"/>
      <point x="988.5909090909091" y="1457.4848484848485" type="line"/>
      <point x="915.2727272727273" y="1487.1818181818182"/>
      <point x="823.1969696969697" y="1498.7878787878788"/>
      <point x="732.2878787878788" y="1498.7878787878788" type="curve" smooth="yes"/>
      <point x="338.1818181818182" y="1498.7878787878788"/>
      <point x="111.21212121212122" y="1258.969696969697"/>
      <point x="111.21212121212122" y="693.3636363636364" type="curve" smooth="yes"/>
      <point x="111.21212121212122" y="166.78787878787878"/>
      <point x="318.40909090909093" y="-18.78787878787879"/>
    </contour>
  </outline>
</glyph>
<glyph name="seven" format="2">
  <advance width="903.7878787878788"/>
  <unicode hex="0037"/>
  <outline>
    <contour>
      <point x="147.13636363636363" y="0.0" type="line"/>
      <point x="357.8939393939394" y="0.0" type="line"/>
      <point x="846.6818181818181" y="1366.9242424242425" type="line"/>
      <point x="846.6818181818181" y="1480.0" type="line"/>
      <point x="10.196969696969697" y="1480.0" type="line"/>
      <point x="10.196969696969697" y="1303.9242424242425" type="line"/>
      <point x="713.439393939394" y="1303.9242424242425" type="line"/>
      <point x="649.5454545454545" y="1368.1363636363637" type="line"/>
    </contour>
  </outline>
</glyph>
<glyph name="eight" format="2">
  <advance width="1192.439393939394"/>
  <unicode hex="0038"/>
  <outline>
    <contour>
      <point x="603.8787878787879" y="-18.78787878787879" type="curve" smooth="yes"/>
      <point x="924.439393939394" y="-18.78787878787879"/>
      <point x="1106.621212121212" y="145.0"/>
      <point x="1106.621212121212" y="383.969696969697" type="curve" smooth="yes"/>
      <point x="1106.621212121212" y="598.8333333333334"/>
      <point x="993.8484848484849" y="722.0151515151515"/>
      <point x="660.9545454545455" y="819.530303030303" type="curve" smooth="yes"/>
      <point x="392.969696969697" y="896.6060606060606"/>
      <point x="323.5" y="971.9545454545455"/>
      <point x="323.5" y="1115.1515151515152" type="curve" smooth="yes"/>
      <point x="323.5" y="1255.8484848484848"/>
      <point x="418.74242424242425" y="1346.7121212121212"/>
      <point x="601.560606060606" y="1346.7121212121212" type="curve" smooth="yes"/>
      <point x="780.4545454545455" y="1346.7121212121212"/>
      <point x="884.060606060606" y="1263.2424242424242"/>
      <point x="884.060606060606" y="1109.7575757575758" type="curve" smooth="yes"/>
      <point x="884.060606060606" y="967.6818181818181"/>
      <point x="814.9090909090909" y="878.7727272727273"/>
      <point x="652.1969696969697" y="801.7575757575758" type="curve"/>
      <point x="788.1666666666666" y="741.7272727272727" type="line"/>
      <point x="976.0151515151515" y="823.7424242424242"/>
      <point x="1063.5454545454545" y="958.4545454545455"/>
      <point x="1063.5454545454545" y="1124.6363636363637" type="curve" smooth="yes"/>
      <point x="1063.5454545454545" y="1355.3939393939395"/>
      <point x="888.3030303030303" y="1498.7878787878788"/>
      <point x="602.060606060606" y="1498.7878787878788" type="curve" smooth="yes"/>
      <point x="300.45454545454544" y="1498.7878787878788"/>
      <point x="127.01515151515152" y="1344.560606060606"/>
      <point x="127.01515151515152" y="1108.4242424242425" type="curve" smooth="yes"/>
      <point x="127.01515151515152" y="894.9090909090909"/>
      <point x="245.24242424242425" y="756.939393939394"/>
      <point x="574.6212121212121" y="664.7727272727273" type="curve" smooth="yes"/>
      <point x="834.0757575757576" y="592.4242424242424"/>
      <point x="912.5" y="522.1818181818181"/>
      <point x="912.5" y="372.3636363636364" type="curve" smooth="yes"/>
      <point x="912.5" y="221.36363636363637"/>
      <point x="804.7272727272727" y="133.28787878787878"/>
      <point x="604.3787878787879" y="133.28787878787878" type="curve" smooth="yes"/>
      <point x="386.74242424242425" y="133.28787878787878"/>
      <point x="278.8484848484849" y="225.15151515151516"/>
      <point x="278.8484848484849" y="387.92424242424244" type="curve" smooth="yes"/>
      <point x="278.8484848484849" y="531.6818181818181"/>
      <point x="368.1212121212121" y="650.8636363636364"/>
      <point x="533.1212121212121" y="703.030303030303" type="curve"/>
      <point x="390.56060606060606" y="764.2878787878788" type="line"/>
      <point x="196.93939393939394" y="696.3333333333334"/>
      <point x="84.63636363636364" y="552.0"/>
      <point x="84.63636363636364" y="370.57575757575756" type="curve" smooth="yes"/>
      <point x="84.63636363636364" y="132.54545454545453"/>
      <point x="261.3333333333333" y="-18.78787878787879"/>
    </contour>
  </outline>
</glyph>
<glyph name="nine" format="2">
  <advance width="1107.9848484848485"/>
  <unicode hex="0039"/>
  <outline>
    <contour>
      <point x="495.1060606060606" y="1498.7878787878788" type="curve" smooth="yes"/>
      <point x="236.86363636363637" y="1498.7878787878788"/>
      <point x="51.28787878787879" y="1344.5757575757575"/>
      <point x="51.28787878787879" y="1051.439393939394" type="curve" smooth="yes"/>
      <point x="51.28787878787879" y="754.030303030303"/>
      <point x="240.8939393939394" y="618.1212121212121"/>
      <point x="485.1363636363636" y="618.1212121212121" type="curve" smooth="yes"/>
      <point x="626.5757575757576" y="618.1212121212121"/>
      <point x="763.8787878787879" y="671.4090909090909"/>
      <point x="836.939393939394" y="761.7121212121212" type="curve"/>
      <point x="836.939393939394" y="926.4242424242424" type="line"/>
      <point x="762.1212121212121" y="818.3181818181818"/>
      <point x="633.9090909090909" y="775.5151515151515"/>
      <point x="520.8484848484849" y="775.5151515151515" type="curve" smooth="yes"/>
      <point x="356.3333333333333" y="775.5151515151515"/>
      <point x="240.06060606060606" y="858.939393939394"/>
      <point x="240.06060606060606" y="1058.6818181818182" type="curve" smooth="yes"/>
      <point x="240.06060606060606" y="1257.409090909091"/>
      <point x="351.6060606060606" y="1340.2121212121212"/>
      <point x="493.0151515151515" y="1340.2121212121212" type="curve" smooth="yes"/>
      <point x="672.3636363636364" y="1340.2121212121212"/>
      <point x="795.9848484848485" y="1227.3484848484848"/>
      <point x="795.9848484848485" y="814.3939393939394" type="curve" smooth="yes"/>
      <point x="795.9848484848485" y="737.7878787878788" type="line" smooth="yes"/>
      <point x="795.9848484848485" y="313.24242424242425"/>
      <point x="650.3787878787879" y="147.07575757575756"/>
      <point x="370.3181818181818" y="147.07575757575756" type="curve" smooth="yes"/>
      <point x="281.06060606060606" y="147.07575757575756"/>
      <point x="195.96969696969697" y="160.1818181818182"/>
      <point x="119.39393939393939" y="189.1969696969697" type="curve"/>
      <point x="119.39393939393939" y="22.515151515151516" type="line"/>
      <point x="192.71212121212122" y="-7.181818181818182"/>
      <point x="284.7878787878788" y="-18.78787878787879"/>
      <point x="375.6969696969697" y="-18.78787878787879" type="curve" smooth="yes"/>
      <point x="769.8030303030303" y="-18.78787878787879"/>
      <point x="996.7727272727273" y="221.03030303030303"/>
      <point x="996.7727272727273" y="786.6363636363636" type="curve" smooth="yes"/>
      <point x="996.7727272727273" y="1313.2121212121212"/>
      <point x="789.5757575757575" y="1498.7878787878788"/>
    </contour>
  </outline>
</glyph>
<glyph name="colon" format="2">
  <advance width="461.3939393939394"/>
  <unicode hex="003A"/>
  <outline>
    <contour>
      <point x="230.6969696969697" y="-13.93939393939394" type="curve" smooth="yes"/>
      <point x="312.9848484848485" y="-13.93939393939394"/>
      <point x="369.5151515151515" y="39.015151515151516"/>
      <point x="369.5151515151515" y="120.34848484848484" type="curve" smooth="yes"/>
      <point x="369.5151515151515" y="201.6818181818182"/>
      <point x="314.56060606060606" y="255.84848484848484"/>
      <point x="230.6969696969697" y="255.84848484848484" type="curve" smooth="yes"/>
      <point x="146.83333333333334" y="255.84848484848484"/>
      <point x="91.87878787878788" y="203.25757575757575"/>
      <point x="91.87878787878788" y="120.34848484848484" type="curve" smooth="yes"/>
      <point x="91.87878787878788" y="37.43939393939394"/>
      <point x="148.4090909090909" y="-13.93939393939394"/>
    </contour>
    <contour>
      <point x="230.6969696969697" y="832.030303030303" type="curve" smooth="yes"/>
      <point x="312.9848484848485" y="832.030303030303"/>
      <point x="369.5151515151515" y="884.9848484848485"/>
      <point x="369.5151515151515" y="966.3181818181819" type="curve" smooth="yes"/>
      <point x="369.5151515151515" y="1047.6515151515152"/>
      <point x="314.56060606060606" y="1101.8181818181818"/>
      <point x="230.6969696969697" y="1101.8181818181818" type="curve" smooth="yes"/>
      <point x="146.83333333333334" y="1101.8181818181818"/>
      <point x="91.87878787878788" y="1049.2272727272727"/>
      <point x="91.87878787878788" y="966.3181818181819" type="curve" smooth="yes"/>
      <point x="91.87878787878788" y="883.4090909090909"/>
      <point x="148.4090909090909" y="832.030303030303"/>
    </contour>
  </outline>
</glyph>
<glyph name="semicolon" format="2">
  <advance width="461.3939393939394"/>
  <unicode hex="003B"/>
  <outline>
    <contour>
      <point x="136.57575757575756" y="-323.6363636363636" type="curve"/>
      <point x="254.24242424242425" y="-323.6363636363636" type="line"/>
      <point x="321.78787878787875" y="-210.72727272727272"/>
      <point x="369.1212121212121" y="-65.21212121212122"/>
      <point x="369.1212121212121" y="79.46969696969697" type="curve" smooth="yes"/>
      <point x="369.1212121212121" y="198.95454545454544"/>
      <point x="317.5151515151515" y="255.84848484848484"/>
      <point x="227.12121212121212" y="255.84848484848484" type="curve" smooth="yes"/>
      <point x="145.62121212121212" y="255.84848484848484"/>
      <point x="91.87878787878788" y="205.03030303030303"/>
      <point x="91.87878787878788" y="121.56060606060605" type="curve" smooth="yes"/>
      <point x="91.87878787878788" y="38.65151515151515"/>
      <point x="149.5909090909091" y="-13.93939393939394"/>
      <point x="230.6969696969697" y="-13.93939393939394" type="curve" smooth="yes"/>
      <point x="257.66666666666663" y="-13.93939393939394" type="line"/>
      <point x="218.4090909090909" y="27.757575757575758" type="line"/>
      <point x="218.4090909090909" y="-86.84848484848484"/>
      <point x="187.93939393939394" y="-193.87878787878788"/>
    </contour>
    <contour>
      <point x="230.6969696969697" y="832.030303030303" type="curve" smooth="yes"/>
      <point x="312.9848484848485" y="832.030303030303"/>
      <point x="369.5151515151515" y="884.9848484848485"/>
      <point x="369.5151515151515" y="966.3181818181819" type="curve" smooth="yes"/>
      <point x="369.5151515151515" y="1047.6515151515152"/>
      <point x="314.56060606060606" y="1101.8181818181818"/>
      <point x="230.6969696969697" y="1101.8181818181818" type="curve" smooth="yes"/>
      <point x="146.83333333333334" y="1101.8181818181818"/>
      <point x="91.87878787878788" y="1049.2272727272727"/>
      <point x="91.87878787878788" y="966.3181818181819" type="curve" smooth="yes"/>
      <point x="91.87878787878788" y="883.4090909090909"/>
      <point x="148.4090909090909" y="832.030303030303"/>
    </contour>
  </outline>
</glyph>
<glyph name="equal" format="2">
  <advance width="1053.5757575757575"/>
  <unicode hex="003D"/>
  <outline>
    <contour>
      <point x="128.5151515151515" y="882.4242424242424" type="line"/>
      <point x="925.060606060606" y="882.4242424242424" type="line"/>
      <point x="925.060606060606" y="1043.3333333333333" type="line"/>
      <point x="128.5151515151515" y="1043.3333333333333" type="line"/>
    </contour>
    <contour>
      <point x="128.5151515151515" y="476.6666666666667" type="line"/>
      <point x="925.060606060606" y="476.6666666666667" type="line"/>
      <point x="925.060606060606" y="637.5757575757576" type="line"/>
      <point x="128.5151515151515" y="637.5757575757576" type="line"/>
    </contour>
  </outline>
</glyph>
<glyph name="greater" format="2">
  <advance width="1053.5757575757575"/>
  <unicode hex="003E"/>
  <outline>
    <contour>
      <point x="128.5151515151515" y="336.27272727272725" type="line"/>
      <point x="925.060606060606" y="665.8484848484849" type="line"/>
      <point x="925.060606060606" y="854.1515151515151" type="line"/>
      <point x="128.5151515151515" y="1183.7272727272727" type="line"/>
      <point x="128.5151515151515" y="1017.969696969697" type="line"/>
      <point x="799.0151515151515" y="746.8181818181819" type="line"/>
      <point x="799.0151515151515" y="774.1666666666666" type="line"/>
      <point x="128.5151515151515" y="502.030303030303" type="line"/>
    </contour>
  </outline>
</glyph>
<glyph name="question" format="2">
  <advance width="875.2424242424242"/>
  <unicode hex="003F"/>
  <outline>
    <contour>
      <point x="322.75757575757575" y="391.3939393939394" type="line"/>
      <point x="448.95454545454544" y="391.3939393939394" type="line"/>
      <point x="466.6363636363636" y="687.1363636363636" type="line"/>
      <point x="714.8333333333334" y="781.7878787878788"/>
      <point x="822.8939393939394" y="911.2121212121212"/>
      <point x="822.8939393939394" y="1119.3636363636363" type="curve" smooth="yes"/>
      <point x="822.8939393939394" y="1362.378787878788"/>
      <point x="661.8484848484849" y="1498.7878787878788"/>
      <point x="355.6060606060606" y="1498.7878787878788" type="curve" smooth="yes"/>
      <point x="243.62121212121212" y="1498.7878787878788"/>
      <point x="117.66666666666667" y="1478.5"/>
      <point x="32.54545454545455" y="1445.378787878788" type="curve"/>
      <point x="32.54545454545455" y="1279.878787878788" type="line"/>
      <point x="126.18181818181819" y="1315.8181818181818"/>
      <point x="229.92424242424244" y="1334.1060606060605"/>
      <point x="334.030303030303" y="1334.1060606060605" type="curve" smooth="yes"/>
      <point x="530.6212121212121" y="1334.1060606060605"/>
      <point x="625.4545454545455" y="1256.1666666666667"/>
      <point x="625.4545454545455" y="1103.4242424242425" type="curve" smooth="yes"/>
      <point x="625.4545454545455" y="956.6969696969697"/>
      <point x="546.3939393939394" y="864.2424242424242"/>
      <point x="288.1060606060606" y="787.1666666666666" type="curve"/>
    </contour>
    <contour>
      <point x="385.95454545454544" y="-13.93939393939394" type="curve" smooth="yes"/>
      <point x="469.45454545454544" y="-13.93939393939394"/>
      <point x="524.7727272727273" y="39.43939393939394"/>
      <point x="524.7727272727273" y="116.60606060606061" type="curve" smooth="yes"/>
      <point x="524.7727272727273" y="194.9848484848485"/>
      <point x="469.8181818181818" y="248.36363636363635"/>
      <point x="385.95454545454544" y="248.36363636363635" type="curve" smooth="yes"/>
      <point x="302.09090909090907" y="248.36363636363635"/>
      <point x="247.13636363636363" y="196.56060606060606"/>
      <point x="247.13636363636363" y="116.60606060606061" type="curve" smooth="yes"/>
      <point x="247.13636363636363" y="37.86363636363636"/>
      <point x="303.6666666666667" y="-13.93939393939394"/>
    </contour>
  </outline>
</glyph>
<glyph name="at" format="2">
  <advance width="1844.181818181818"/>
  <unicode hex="0040"/>
  <outline>
    <contour>
      <point x="966.2424242424242" y="-460.0" type="curve" smooth="yes"/>
      <point x="1103.2424242424242" y="-460.0"/>
      <point x="1234.8333333333333" y="-438.969696969697"/>
      <point x="1351.3939393939395" y="-404.7878787878788" type="curve"/>
      <point x="1351.3939393939395" y="-260.75757575757575" type="line"/>
      <point x="1221.621212121212" y="-298.27272727272725"/>
      <point x="1099.3030303030303" y="-317.1818181818182"/>
      <point x="966.2424242424242" y="-317.1818181818182" type="curve" smooth="yes"/>
      <point x="489.0" y="-317.1818181818182"/>
      <point x="254.25757575757575" y="-100.63636363636364"/>
      <point x="254.25757575757575" y="522.4242424242424" type="curve" smooth="yes"/>
      <point x="254.25757575757575" y="1138.2121212121212"/>
      <point x="488.3939393939394" y="1355.1818181818182"/>
      <point x="929.0151515151515" y="1355.1818181818182" type="curve" smooth="yes"/>
      <point x="1369.530303030303" y="1355.1818181818182"/>
      <point x="1600.621212121212" y="1142.5757575757575"/>
      <point x="1601.8030303030303" y="564.2424242424242" type="curve" smooth="yes"/>
      <point x="1602.7878787878788" y="223.93939393939394"/>
      <point x="1518.8484848484848" y="126.0"/>
      <point x="1424.6969696969697" y="126.0" type="curve" smooth="yes"/>
      <point x="1353.7575757575758" y="126.0"/>
      <point x="1320.4242424242425" y="168.84848484848484"/>
      <point x="1320.4242424242425" y="266.42424242424244" type="curve" smooth="yes"/>
      <point x="1320.4242424242425" y="701.7121212121212" type="line" smooth="yes"/>
      <point x="1320.4242424242425" y="996.6363636363636"/>
      <point x="1183.3939393939395" y="1096.7878787878788"/>
      <point x="909.1515151515151" y="1096.7878787878788" type="curve" smooth="yes"/>
      <point x="812.7272727272727" y="1096.7878787878788"/>
      <point x="694.9848484848485" y="1079.3030303030303"/>
      <point x="606.2575757575758" y="1047.7272727272727" type="curve"/>
      <point x="605.0757575757576" y="884.9848484848485" type="line"/>
      <point x="698.1363636363636" y="918.6969696969697"/>
      <point x="799.3939393939394" y="934.0757575757576"/>
      <point x="877.8181818181818" y="934.0757575757576" type="curve" smooth="yes"/>
      <point x="1044.8636363636363" y="934.0757575757576"/>
      <point x="1124.0" y="882.3787878787879"/>
      <point x="1124.0" y="709.6060606060606" type="curve" smooth="yes"/>
      <point x="1124.0" y="248.96969696969697" type="line"/>
      <point x="1062.5454545454545" y="164.9090909090909"/>
      <point x="977.2878787878788" y="135.4848484848485"/>
      <point x="903.9090909090909" y="135.4848484848485" type="curve" smooth="yes"/>
      <point x="792.7121212121212" y="135.4848484848485"/>
      <point x="728.3787878787879" y="190.66666666666669"/>
      <point x="728.3787878787879" y="305.2121212121212" type="curve" smooth="yes"/>
      <point x="728.3787878787879" y="414.3636363636364"/>
      <point x="792.530303030303" y="473.0151515151515"/>
      <point x="933.6666666666666" y="487.8181818181818" type="curve" smooth="yes"/>
      <point x="1188.1666666666667" y="513.6818181818181" type="line"/>
      <point x="1165.439393939394" y="637.1969696969697" type="line"/>
      <point x="916.4545454545455" y="611.3333333333334" type="line" smooth="yes"/>
      <point x="645.6666666666666" y="586.5909090909091"/>
      <point x="527.9242424242424" y="478.43939393939394"/>
      <point x="527.9242424242424" y="282.6515151515151" type="curve" smooth="yes"/>
      <point x="527.9242424242424" y="93.92424242424242"/>
      <point x="651.8484848484849" y="-18.363636363636363"/>
      <point x="844.2575757575758" y="-18.363636363636363" type="curve" smooth="yes"/>
      <point x="962.4393939393939" y="-18.363636363636363"/>
      <point x="1071.0757575757575" y="26.12121212121212"/>
      <point x="1129.3939393939395" y="127.15151515151516" type="curve"/>
      <point x="1142.2272727272727" y="127.15151515151516" type="line"/>
      <point x="1180.1969696969697" y="34.78787878787879"/>
      <point x="1261.7575757575758" y="-18.363636363636363"/>
      <point x="1387.409090909091" y="-18.363636363636363" type="curve" smooth="yes"/>
      <point x="1596.060606060606" y="-18.363636363636363"/>
      <point x="1754.1969696969697" y="144.24242424242425"/>
      <point x="1754.5" y="571.030303030303" type="curve" smooth="yes"/>
      <point x="1754.8030303030303" y="1211.2727272727273"/>
      <point x="1455.6363636363635" y="1498.0"/>
      <point x="929.0151515151515" y="1498.0" type="curve" smooth="yes"/>
      <point x="401.9848484848485" y="1498.0"/>
      <point x="89.68181818181819" y="1211.2727272727273"/>
      <point x="89.68181818181819" y="520.0" type="curve" smooth="yes"/>
      <point x="89.68181818181819" y="-175.5151515151515"/>
      <point x="404.1060606060606" y="-459.6969696969697"/>
    </contour>
  </outline>
</glyph>
<glyph name="B" format="2">
  <advance width="1215.6363636363635"/>
  <unicode hex="0042"/>
  <anchor x="620.1969696969697" y="0.0" name="bottom"/>
  <anchor x="620.1969696969697" y="1480.0" name="top"/>
  <outline>
    <contour>
      <point x="503.8333333333333" y="-13.93939393939394" type="curve" smooth="yes"/>
      <point x="969.9090909090909" y="-13.93939393939394"/>
      <point x="1154.151515151515" y="131.04545454545453"/>
      <point x="1154.151515151515" y="403.72727272727275" type="curve" smooth="yes"/>
      <point x="1154.151515151515" y="610.8787878787879"/>
      <point x="1040.0454545454545" y="742.030303030303"/>
      <point x="826.1060606060606" y="770.1212121212121" type="curve"/>
      <point x="825.1969696969697" y="756.6060606060606" type="line"/>
      <point x="1025.969696969697" y="790.6969696969697"/>
      <point x="1112.2424242424242" y="932.6515151515151"/>
      <point x="1112.2424242424242" y="1099.0" type="curve" smooth="yes"/>
      <point x="1112.2424242424242" y="1369.530303030303"/>
      <point x="940.1363636363636" y="1496.3636363636363"/>
      <point x="545.2575757575758" y="1496.3636363636363" type="curve" smooth="yes"/>
      <point x="399.07575757575756" y="1496.3636363636363"/>
      <point x="262.1212121212121" y="1480.2272727272727"/>
      <point x="146.07575757575756" y="1456.1060606060605" type="curve"/>
      <point x="146.07575757575756" y="9.56060606060606" type="line"/>
      <point x="261.77272727272725" y="-5.696969696969697"/>
      <point x="390.92424242424244" y="-13.93939393939394"/>
    </contour>
    <contour>
      <point x="551.1363636363636" y="146.2121212121212" type="curve" smooth="yes"/>
      <point x="480.78787878787875" y="146.2121212121212"/>
      <point x="415.75757575757575" y="148.62121212121212"/>
      <point x="345.8484848484849" y="156.45454545454544" type="curve"/>
      <point x="345.8484848484849" y="1318.469696969697" type="line"/>
      <point x="411.9090909090909" y="1330.0"/>
      <point x="479.1969696969697" y="1336.2121212121212"/>
      <point x="568.560606060606" y="1336.2121212121212" type="curve" smooth="yes"/>
      <point x="822.6363636363636" y="1336.2121212121212"/>
      <point x="917.8636363636364" y="1264.621212121212"/>
      <point x="917.8636363636364" y="1088.7575757575758" type="curve" smooth="yes"/>
      <point x="917.8636363636364" y="925.1969696969697"/>
      <point x="832.2121212121212" y="840.4848484848485"/>
      <point x="582.2424242424242" y="840.4848484848485" type="curve" smooth="yes"/>
      <point x="321.57575757575756" y="840.4848484848485" type="line"/>
      <point x="321.57575757575756" y="676.1969696969697" type="line"/>
      <point x="614.1666666666666" y="676.1969696969697" type="line" smooth="yes"/>
      <point x="855.2121212121212" y="676.1969696969697"/>
      <point x="960.8484848484849" y="590.5"/>
      <point x="960.8484848484849" y="410.9848484848485" type="curve" smooth="yes"/>
      <point x="960.8484848484849" y="230.07575757575756"/>
      <point x="855.9090909090909" y="146.2121212121212"/>
    </contour>
  </outline>
</glyph>
<glyph name="D" format="2">
  <advance width="1328.090909090909"/>
  <unicode hex="0044"/>
  <anchor x="608.2121212121212" y="0.0" name="bottom"/>
  <anchor x="658.3787878787879" y="740.0" name="center"/>
  <anchor x="146.07575757575756" y="762.0" name="stroke"/>
  <anchor x="600.3333333333334" y="1520.0" name="top"/>
  <outline>
    <contour>
      <point x="481.0909090909091" y="-13.348484848484848" type="curve" smooth="yes"/>
      <point x="983.1212121212121" y="-13.348484848484848"/>
      <point x="1238.409090909091" y="211.83333333333334"/>
      <point x="1238.409090909091" y="740.0" type="curve" smooth="yes"/>
      <point x="1238.409090909091" y="1257.3484848484848"/>
      <point x="997.2121212121212" y="1495.7727272727273"/>
      <point x="522.530303030303" y="1495.7727272727273" type="curve" smooth="yes"/>
      <point x="395.530303030303" y="1495.7727272727273"/>
      <point x="261.6060606060606" y="1480.2272727272727"/>
      <point x="146.07575757575756" y="1457.0151515151515" type="curve"/>
      <point x="146.07575757575756" y="6.212121212121212" type="line"/>
      <point x="267.8939393939394" y="-7.469696969696969"/>
      <point x="376.0151515151515" y="-13.348484848484848"/>
    </contour>
    <contour>
      <point x="527.0151515151515" y="159.4090909090909" type="curve" smooth="yes"/>
      <point x="465.4090909090909" y="159.4090909090909"/>
      <point x="410.74242424242425" y="161.530303030303"/>
      <point x="349.9848484848485" y="168.27272727272725" type="curve"/>
      <point x="349.9848484848485" y="1307.9545454545455" type="line"/>
      <point x="411.1060606060606" y="1317.7878787878788"/>
      <point x="478.5" y="1323.8030303030303"/>
      <point x="536.1515151515151" y="1323.8030303030303" type="curve" smooth="yes"/>
      <point x="864.469696969697" y="1323.8030303030303"/>
      <point x="1027.7424242424242" y="1157.3636363636363"/>
      <point x="1027.7424242424242" y="740.3939393939394" type="curve" smooth="yes"/>
      <point x="1027.7424242424242" y="318.6818181818182"/>
      <point x="859.6363636363636" y="159.4090909090909"/>
    </contour>
  </outline>
</glyph>
<glyph name="F" format="2">
  <advance width="1062.5151515151515"/>
  <unicode hex="0046"/>
  <outline>
    <contour>
      <point x="146.07575757575756" y="0.0" type="line"/>
      <point x="349.9848484848485" y="0.0" type="line"/>
      <point x="349.9848484848485" y="1304.6818181818182" type="line"/>
      <point x="1031.8636363636365" y="1304.6818181818182" type="line"/>
      <point x="1031.8636363636365" y="1480.0" type="line"/>
      <point x="146.07575757575756" y="1480.0" type="line"/>
    </contour>
    <contour>
      <point x="290.1818181818182" y="651.969696969697" type="line"/>
      <point x="935.8181818181818" y="651.969696969697" type="line"/>
      <point x="935.8181818181818" y="827.2878787878788" type="line"/>
      <point x="290.1818181818182" y="827.2878787878788" type="line"/>
    </contour>
  </outline>
</glyph>
<glyph name="H" format="2">
  <advance width="1373.6060606060605"/>
  <unicode hex="0048"/>
  <anchor x="687.1969696969697" y="0.0" name="bottom"/>
  <anchor x="687.1969696969697" y="1165.8030303030303" name="center"/>
  <anchor x="687.1969696969697" y="1520.0" name="top"/>
  <anchor x="35.93939393939394" y="1480.0" name="topleft"/>
  <outline>
    <contour>
      <point x="146.07575757575756" y="0.0" type="line"/>
      <point x="349.9848484848485" y="0.0" type="line"/>
      <point x="349.9848484848485" y="665.9545454545455" type="line"/>
      <point x="1023.6212121212121" y="665.9545454545455" type="line"/>
      <point x="1023.6212121212121" y="0.0" type="line"/>
      <point x="1227.530303030303" y="0.0" type="line"/>
      <point x="1227.530303030303" y="1480.0" type="line"/>
      <point x="1023.6212121212121" y="1480.0" type="line"/>
      <point x="1023.6212121212121" y="851.3181818181818" type="line"/>
      <point x="349.9848484848485" y="851.3181818181818" type="line"/>
      <point x="349.9848484848485" y="1480.0" type="line"/>
      <point x="146.07575757575756" y="1480.0" type="line"/>
    </contour>
  </outline>
</glyph>
<glyph name="I" format="2">
  <advance width="496.06060606060606"/>
  <unicode hex="0049"/>
  <anchor x="247.83333333333331" y="0.0" name="bottom"/>
  <anchor x="349.9848484848485" y="0.0" name="ogonek"/>
  <anchor x="248.03030303030303" y="1520.0" name="top"/>
  <outline>
    <contour>
      <point x="146.07575757575756" y="0.0" type="line"/>
      <point x="349.9848484848485" y="0.0" type="line"/>
      <point x="349.9848484848485" y="1480.0" type="line"/>
      <point x="146.07575757575756" y="1480.0" type="line"/>
    </contour>
  </outline>
</glyph>
<glyph name="J" format="2">
  <advance width="496.06060606060606"/>
  <unicode hex="004A"/>
  <anchor x="377.8636363636364" y="0.0" name="bottom"/>
  <anchor x="248.22727272727272" y="1520.0" name="top"/>
  <outline>
    <contour>
      <point x="116.31818181818181" y="-344.72727272727275" type="line"/>
      <point x="283.95454545454544" y="-137.03030303030303"/>
      <point x="344.22727272727275" y="41.3030303030303"/>
      <point x="349.9848484848485" y="280.6969696969697" type="curve"/>
      <point x="349.9848484848485" y="1480.0" type="line"/>
      <point x="146.46969696969697" y="1480.0" type="line"/>
      <point x="146.46969696969697" y="293.4848484848485" type="line" smooth="yes"/>
      <point x="146.46969696969697" y="63.848484848484844"/>
      <point x="101.33333333333334" y="-82.75757575757575"/>
      <point x="-18.075757575757574" y="-254.87878787878788" type="curve"/>
    </contour>
  </outline>
</glyph>
<glyph name="K" format="2">
  <advance width="1191.6666666666667"/>
  <unicode hex="004B"/>
  <anchor x="626.3787878787879" y="0.0" name="bottom"/>
  <anchor x="622.2424242424242" y="1480.0" name="top"/>
  <outline>
    <contour>
      <point x="1007.0909090909091" y="0.0" type="line"/>
      <point x="1232.0151515151515" y="0.0" type="line"/>
      <point x="665.8030303030303" y="790.1515151515151" type="line"/>
      <point x="663.439393939394" y="732.2727272727273" type="line"/>
      <point x="1191.0" y="1480.0" type="line"/>
      <point x="972.6060606060606" y="1480.0" type="line"/>
      <point x="462.1363636363636" y="755.2424242424242" type="line"/>
    </contour>
    <contour>
      <point x="146.07575757575756" y="0.0" type="line"/>
      <point x="349.9848484848485" y="0.0" type="line"/>
      <point x="349.9848484848485" y="1480.0" type="line"/>
      <point x="146.07575757575756" y="1480.0" type="line"/>
    </contour>
    <contour>
      <point x="318.6212121212121" y="665.9545454545455" type="line"/>
      <point x="547.6818181818182" y="665.9545454545455" type="line"/>
      <point x="547.6818181818182" y="850.4090909090909" type="line"/>
      <point x="318.6212121212121" y="850.4090909090909" type="line"/>
    </contour>
  </outline>
</glyph>
<glyph name="L" format="2">
  <advance width="1021.1363636363636"/>
  <unicode hex="004C"/>
  <anchor x="580.4545454545455" y="0.0" name="bottom"/>
  <anchor x="666.9090909090909" y="1616.0" name="caronalt"/>
  <anchor x="751.6515151515151" y="824.8181818181819" name="periodcentered"/>
  <anchor x="250.39393939393938" y="805.5151515151515" name="slash"/>
  <anchor x="250.39393939393938" y="1520.0" name="top"/>
  <outline>
    <contour>
      <point x="146.07575757575756" y="0.0" type="line"/>
      <point x="1013.6212121212121" y="0.0" type="line"/>
      <point x="1013.6212121212121" y="178.46969696969697" type="line"/>
      <point x="349.9848484848485" y="178.46969696969697" type="line"/>
      <point x="349.9848484848485" y="1480.0" type="line"/>
      <point x="146.07575757575756" y="1480.0" type="line"/>
    </contour>
  </outline>
</glyph>
<glyph name="M" format="2">
  <advance width="1699.3333333333333"/>
  <unicode hex="004D"/>
  <anchor x="860.5" y="0.0" name="bottom"/>
  <anchor x="860.5" y="1480.0" name="top"/>
  <outline>
    <contour>
      <point x="150.07575757575756" y="0.0" type="line"/>
      <point x="341.3484848484849" y="0.0" type="line"/>
      <point x="341.3484848484849" y="1294.939393939394" type="line"/>
      <point x="285.24242424242425" y="1294.939393939394" type="line"/>
      <point x="762.4242424242424" y="207.87878787878788" type="line"/>
      <point x="936.9090909090909" y="207.87878787878788" type="line"/>
      <point x="1406.378787878788" y="1294.939393939394" type="line"/>
      <point x="1357.9848484848485" y="1294.939393939394" type="line"/>
      <point x="1357.9848484848485" y="0.0" type="line"/>
      <point x="1549.2575757575758" y="0.0" type="line"/>
      <point x="1549.2575757575758" y="1480.0" type="line"/>
      <point x="1303.5757575757575" y="1480.0" type="line"/>
      <point x="836.8484848484849" y="383.66666666666663" type="line"/>
      <point x="870.4242424242424" y="383.66666666666663" type="line"/>
      <point x="395.75757575757575" y="1480.0" type="line"/>
      <point x="150.07575757575756" y="1480.0" type="line"/>
    </contour>
  </outline>
</glyph>
<glyph name="N" format="2">
  <advance width="1396.0"/>
  <unicode hex="004E"/>
  <anchor x="698.1515151515151" y="0.0" name="bottom"/>
  <anchor x="698.1515151515151" y="1520.0" name="top"/>
  <outline>
    <contour>
      <point x="146.07575757575756" y="0.0" type="line"/>
      <point x="338.3333333333333" y="0.0" type="line"/>
      <point x="338.3333333333333" y="1227.3636363636365" type="line"/>
      <point x="294.8181818181818" y="1227.3636363636365" type="line"/>
      <point x="1042.060606060606" y="0.0" type="line"/>
      <point x="1249.9242424242425" y="0.0" type="line"/>
      <point x="1249.9242424242425" y="1480.0" type="line"/>
      <point x="1057.6666666666667" y="1480.0" type="line"/>
      <point x="1057.6666666666667" y="252.63636363636363" type="line"/>
      <point x="1101.1818181818182" y="252.63636363636363" type="line"/>
      <point x="353.93939393939394" y="1480.0" type="line"/>
      <point x="146.07575757575756" y="1480.0" type="line"/>
    </contour>
  </outline>
</glyph>
<glyph name="P" format="2">
  <advance width="1188.530303030303"/>
  <unicode hex="0050"/>
  <outline>
    <contour>
      <point x="146.07575757575756" y="0.0" type="line"/>
      <point x="349.9848484848485" y="0.0" type="line"/>
      <point x="349.9848484848485" y="475.1060606060606" type="line"/>
      <point x="405.28787878787875" y="470.8636363636364"/>
      <point x="453.0909090909091" y="468.56060606060606"/>
      <point x="511.1818181818182" y="468.56060606060606" type="curve" smooth="yes"/>
      <point x="914.1666666666666" y="468.56060606060606"/>
      <point x="1109.378787878788" y="646.3484848484849"/>
      <point x="1109.378787878788" y="981.8636363636364" type="curve" smooth="yes"/>
      <point x="1109.378787878788" y="1336.969696969697"/>
      <point x="909.939393939394" y="1496.3636363636363"/>
      <point x="520.1363636363636" y="1496.3636363636363" type="curve" smooth="yes"/>
      <point x="384.8939393939394" y="1496.3636363636363"/>
      <point x="262.7121212121212" y="1481.2121212121212"/>
      <point x="146.07575757575756" y="1458.7878787878788" type="curve"/>
    </contour>
    <contour>
      <point x="515.4848484848485" y="633.439393939394" type="curve" smooth="yes"/>
      <point x="455.0" y="633.439393939394"/>
      <point x="403.6818181818182" y="636.0454545454545"/>
      <point x="349.9848484848485" y="643.2727272727273" type="curve"/>
      <point x="349.9848484848485" y="1316.8181818181818" type="line"/>
      <point x="407.77272727272725" y="1326.4545454545455"/>
      <point x="465.8030303030303" y="1331.4848484848485"/>
      <point x="535.8939393939394" y="1331.4848484848485" type="curve" smooth="yes"/>
      <point x="788.4090909090909" y="1331.4848484848485"/>
      <point x="908.3636363636364" y="1225.939393939394"/>
      <point x="908.3636363636364" y="978.560606060606" type="curve" smooth="yes"/>
      <point x="908.3636363636364" y="740.5"/>
      <point x="786.5909090909091" y="633.439393939394"/>
    </contour>
  </outline>
</glyph>
<glyph name="Q" format="2">
  <advance width="1366.060606060606"/>
  <unicode hex="0051"/>
  <outline>
    <contour>
      <point x="1218.2272727272727" y="-252.4848484848485" type="curve"/>
      <point x="1253.6515151515152" y="-84.06060606060606" type="line"/>
      <point x="1052.2727272727273" y="-62.621212121212125"/>
      <point x="835.9545454545455" y="-21.075757575757578"/>
      <point x="639.6212121212121" y="63.71212121212121" type="curve"/>
      <point x="593.4242424242424" y="7.954545454545453" type="line"/>
      <point x="1042.7424242424242" y="-51.71212121212121"/>
      <point x="1276.378787878788" y="214.6818181818182"/>
      <point x="1276.378787878788" y="740.0" type="curve" smooth="yes"/>
      <point x="1276.378787878788" y="1280.3181818181818"/>
      <point x="1039.6060606060605" y="1498.7878787878788"/>
      <point x="683.030303030303" y="1498.7878787878788" type="curve" smooth="yes"/>
      <point x="326.45454545454544" y="1498.7878787878788"/>
      <point x="89.68181818181819" y="1278.8939393939395"/>
      <point x="89.68181818181819" y="738.030303030303" type="curve" smooth="yes"/>
      <point x="89.68181818181819" y="147.63636363636363"/>
      <point x="349.969696969697" y="-129.03030303030303"/>
    </contour>
    <contour>
      <point x="683.030303030303" y="153.4848484848485" type="curve" smooth="yes"/>
      <point x="448.66666666666663" y="153.4848484848485"/>
      <point x="300.3484848484849" y="299.5"/>
      <point x="300.3484848484849" y="745.5757575757576" type="curve" smooth="yes"/>
      <point x="300.3484848484849" y="1180.1060606060605"/>
      <point x="449.6515151515151" y="1326.5151515151515"/>
      <point x="683.030303030303" y="1326.5151515151515" type="curve" smooth="yes"/>
      <point x="916.4090909090909" y="1326.5151515151515"/>
      <point x="1065.7121212121212" y="1179.5151515151515"/>
      <point x="1065.7121212121212" y="734.4242424242424" type="curve" smooth="yes"/>
      <point x="1065.7121212121212" y="300.4848484848485"/>
      <point x="917.0" y="153.4848484848485"/>
    </contour>
  </outline>
</glyph>
<glyph name="T" format="2">
  <advance width="1135.2272727272727"/>
  <unicode hex="0054"/>
  <anchor x="567.9090909090909" y="0.0" name="bottom"/>
  <anchor x="567.9090909090909" y="760.6060606060606" name="center"/>
  <anchor x="567.9090909090909" y="1520.0" name="top"/>
  <outline>
    <contour>
      <point x="465.3636363636364" y="0.0" type="line"/>
      <point x="669.8636363636364" y="0.0" type="line"/>
      <point x="669.8636363636364" y="1301.530303030303" type="line"/>
      <point x="1125.2121212121212" y="1301.530303030303" type="line"/>
      <point x="1125.2121212121212" y="1480.0" type="line"/>
      <point x="10.015151515151516" y="1480.0" type="line"/>
      <point x="10.015151515151516" y="1301.530303030303" type="line"/>
      <point x="465.3636363636364" y="1301.530303030303" type="line"/>
    </contour>
  </outline>
</glyph>
<glyph name="V" format="2">
  <advance width="1259.8484848484848"/>
  <unicode hex="0056"/>
  <outline>
    <contour>
      <point x="478.92424242424244" y="0.0" type="line"/>
      <point x="780.9242424242424" y="0.0" type="line"/>
      <point x="1256.3939393939395" y="1480.0" type="line"/>
      <point x="1057.0757575757575" y="1480.0" type="line"/>
      <point x="613.3787878787879" y="87.86363636363636" type="line"/>
      <point x="656.560606060606" y="87.86363636363636" type="line"/>
      <point x="216.8181818181818" y="1480.0" type="line"/>
      <point x="3.454545454545455" y="1480.0" type="line"/>
    </contour>
  </outline>
</glyph>
<glyph name="X" format="2">
  <advance width="1234.2878787878788"/>
  <unicode hex="0058"/>
  <outline>
    <contour>
      <point x="1005.3939393939394" y="0.0" type="line"/>
      <point x="1232.9848484848485" y="0.0" type="line"/>
      <point x="735.939393939394" y="760.2121212121212" type="line"/>
      <point x="617.0454545454545" y="920.469696969697" type="line"/>
      <point x="250.87878787878788" y="1480.0" type="line"/>
      <point x="22.424242424242426" y="1480.0" type="line"/>
      <point x="496.8636363636364" y="758.530303030303" type="line"/>
      <point x="615.7575757575758" y="599.1363636363636" type="line"/>
    </contour>
    <contour>
      <point x="-1.7575757575757507" y="0.0" type="line"/>
      <point x="224.8181818181818" y="0.0" type="line"/>
      <point x="615.7575757575758" y="599.1363636363636" type="line"/>
      <point x="735.939393939394" y="760.2121212121212" type="line"/>
      <point x="1207.030303030303" y="1480.0" type="line"/>
      <point x="983.3181818181819" y="1480.0" type="line"/>
      <point x="617.0454545454545" y="920.469696969697" type="line"/>
      <point x="496.8636363636364" y="758.530303030303" type="line"/>
    </contour>
  </outline>
</glyph>
<glyph name="bracketleft" format="2">
  <advance width="636.4242424242424"/>
  <unicode hex="005B"/>
  <outline>
    <contour>
      <point x="166.07575757575756" y="-440.0" type="line"/>
      <point x="669.7272727272727" y="-440.0" type="line"/>
      <point x="669.7272727272727" y="-277.1212121212121" type="line"/>
      <point x="367.030303030303" y="-277.1212121212121" type="line"/>
      <point x="367.030303030303" y="1453.121212121212" type="line"/>
      <point x="671.6969696969697" y="1453.121212121212" type="line"/>
      <point x="671.6969696969697" y="1616.0" type="line"/>
      <point x="166.07575757575756" y="1616.0" type="line"/>
    </contour>
  </outline>
</glyph>
<glyph name="backslash" format="2">
  <advance width="609.7424242424242"/>
  <unicode hex="005C"/>
  <outline>
    <contour>
      <point x="411.8030303030303" y="-240.0" type="line"/>
      <point x="609.7424242424242" y="-240.0" type="line"/>
      <point x="197.93939393939394" y="1616.0" type="line"/>
      <point x="0.0" y="1616.0" type="line"/>
    </contour>
  </outline>
</glyph>
<glyph name="bracketright" format="2">
  <advance width="636.4242424242424"/>
  <unicode hex="005D"/>
  <outline>
    <contour>
      <point x="-33.303030303030305" y="-440.0" type="line"/>
      <point x="470.3484848484849" y="-440.0" type="line"/>
      <point x="470.3484848484849" y="1616.0" type="line"/>
      <point x="-35.27272727272727" y="1616.0" type="line"/>
      <point x="-35.27272727272727" y="1453.121212121212" type="line"/>
      <point x="269.3939393939394" y="1453.121212121212" type="line"/>
      <point x="269.3939393939394" y="-277.1212121212121" type="line"/>
      <point x="-33.303030303030305" y="-277.1212121212121" type="line"/>
    </contour>
  </outline>
</glyph>
<glyph name="underscore" format="2">
  <advance width="1068.3030303030303"/>
  <unicode hex="005F"/>
  <outline>
    <contour>
      <point x="88.56060606060606" y="-163.07575757575756" type="line"/>
      <point x="979.7424242424242" y="-163.07575757575756" type="line"/>
      <point x="979.7424242424242" y="-0.19696969696969696" type="line"/>
      <point x="88.56060606060606" y="-0.19696969696969696" type="line"/>
    </contour>
  </outline>
</glyph>
<glyph name="grave" format="2">
  <advance width="1018.1818181818182"/>
  <unicode hex="0060"/>
  <anchor x="509.0909090909091" y="1200.0" name="_top"/>
  <anchor x="509.0909090909091" y="1595.3939393939395" name="top"/>
  <outline>
    <contour>
      <point x="419.6060606060606" y="1246.6666666666667" type="line"/>
      <point x="598.5757575757575" y="1246.6666666666667" type="line"/>
      <point x="403.83333333333337" y="1616.0" type="line"/>
      <point x="193.71212121212122" y="1616.0" type="line"/>
    </contour>
  </outline>
</glyph>
<glyph name="b" format="2">
  <advance width="1074.439393939394"/>
  <unicode hex="0062"/>
  <anchor x="541.939393939394" y="0.0" name="bottom"/>
  <anchor x="230.39393939393938" y="1616.0" name="top"/>
  <outline>
    <contour>
      <point x="458.5" y="-18.984848484848484" type="curve" smooth="yes"/>
      <point x="814.530303030303" y="-19.575757575757574"/>
      <point x="996.7272727272727" y="171.3030303030303"/>
      <point x="996.7272727272727" y="563.7424242424242" type="curve" smooth="yes"/>
      <point x="996.7272727272727" y="959.939393939394"/>
      <point x="817.7878787878788" y="1104.6666666666667"/>
      <point x="608.9242424242424" y="1104.6666666666667" type="curve" smooth="yes"/>
      <point x="489.0151515151515" y="1104.6666666666667"/>
      <point x="396.8333333333333" y="1052.4848484848485"/>
      <point x="341.5" y="979.7727272727273" type="curve"/>
      <point x="330.57575757575756" y="979.7727272727273" type="line"/>
      <point x="330.57575757575756" y="1616.0" type="line"/>
      <point x="129.62121212121212" y="1616.0" type="line"/>
      <point x="129.62121212121212" y="31.242424242424242" type="line"/>
      <point x="225.46969696969697" y="-1.7272727272727275"/>
      <point x="348.3636363636364" y="-18.984848484848484"/>
    </contour>
    <contour>
      <point x="473.3030303030303" y="140.77272727272725" type="curve" smooth="yes"/>
      <point x="421.93939393939394" y="140.77272727272725"/>
      <point x="367.93939393939394" y="148.92424242424244"/>
      <point x="330.57575757575756" y="159.6818181818182" type="curve"/>
      <point x="330.57575757575756" y="829.7424242424242" type="line"/>
      <point x="379.1969696969697" y="898.9090909090909"/>
      <point x="460.16666666666663" y="933.0909090909091"/>
      <point x="538.939393939394" y="933.0909090909091" type="curve" smooth="yes"/>
      <point x="684.9848484848485" y="933.0909090909091"/>
      <point x="791.5757575757576" y="855.3030303030303"/>
      <point x="791.5757575757576" y="545.6969696969697" type="curve" smooth="yes"/>
      <point x="791.5757575757576" y="250.87878787878788"/>
      <point x="680.1666666666666" y="140.77272727272725"/>
    </contour>
  </outline>
</glyph>
<glyph name="c" format="2">
  <advance width="829.9848484848485"/>
  <unicode hex="0063"/>
  <anchor x="487.5" y="0.0" name="bottom"/>
  <anchor x="479.74242424242425" y="1200.0" name="top"/>
  <outline>
    <contour>
      <point x="550.0757575757575" y="-19.575757575757574" type="curve" smooth="yes"/>
      <point x="632.6818181818181" y="-19.575757575757574"/>
      <point x="717.2727272727273" y="-6.075757575757576"/>
      <point x="797.2121212121212" y="21.560606060606062" type="curve"/>
      <point x="797.2121212121212" y="189.22727272727272" type="line"/>
      <point x="713.3030303030303" y="161.84848484848484"/>
      <point x="646.5909090909091" y="150.03030303030303"/>
      <point x="585.3484848484849" y="150.03030303030303" type="curve" smooth="yes"/>
      <point x="388.5454545454545" y="150.03030303030303"/>
      <point x="286.6060606060606" y="248.87878787878788"/>
      <point x="286.6060606060606" y="547.1515151515151" type="curve" smooth="yes"/>
      <point x="286.6060606060606" y="836.6818181818182"/>
      <point x="392.4090909090909" y="935.060606060606"/>
      <point x="619.2575757575758" y="935.060606060606" type="curve" smooth="yes"/>
      <point x="671.939393939394" y="935.060606060606"/>
      <point x="733.9242424242424" y="928.2424242424242"/>
      <point x="797.2121212121212" y="913.2727272727273" type="curve"/>
      <point x="797.2121212121212" y="1080.939393939394" type="line"/>
      <point x="731.6666666666666" y="1097.3636363636363"/>
      <point x="660.3030303030303" y="1104.6666666666667"/>
      <point x="590.2575757575758" y="1104.6666666666667" type="curve" smooth="yes"/>
      <point x="264.1666666666667" y="1104.6666666666667"/>
      <point x="77.71212121212122" y="943.8333333333334"/>
      <point x="77.71212121212122" y="542.9545454545455" type="curve" smooth="yes"/>
      <point x="77.71212121212122" y="145.9090909090909"/>
      <point x="247.15151515151516" y="-19.575757575757574"/>
    </contour>
  </outline>
</glyph>
<glyph name="f" format="2">
  <advance width="687.5757575757576"/>
  <unicode hex="0066"/>
  <outline>
    <contour>
      <point x="200.62121212121212" y="0.0" type="line"/>
      <point x="399.8030303030303" y="0.0" type="line"/>
      <point x="399.8030303030303" y="1256.621212121212" type="line" smooth="yes"/>
      <point x="399.8030303030303" y="1407.6515151515152"/>
      <point x="470.469696969697" y="1469.5454545454545"/>
      <point x="621.4545454545455" y="1469.5454545454545" type="curve" smooth="yes"/>
      <point x="662.2727272727273" y="1469.5454545454545"/>
      <point x="697.6515151515151" y="1466.030303030303"/>
      <point x="738.3181818181818" y="1459.3030303030303" type="curve"/>
      <point x="738.3181818181818" y="1624.6060606060605" type="line"/>
      <point x="693.060606060606" y="1632.6060606060605"/>
      <point x="642.8787878787879" y="1636.0"/>
      <point x="597.6818181818182" y="1636.0" type="curve" smooth="yes"/>
      <point x="335.45454545454544" y="1636.0"/>
      <point x="200.62121212121212" y="1498.3181818181818"/>
      <point x="200.62121212121212" y="1247.2575757575758" type="curve" smooth="yes"/>
    </contour>
    <contour>
      <point x="14.257575757575758" y="925.0" type="line"/>
      <point x="698.2727272727273" y="925.0" type="line"/>
      <point x="698.2727272727273" y="1087.878787878788" type="line"/>
      <point x="14.257575757575758" y="1087.878787878788" type="line"/>
    </contour>
  </outline>
</glyph>
<glyph name="j" format="2">
  <advance width="460.78787878787875"/>
  <unicode hex="006A"/>
  <anchor x="229.4090909090909" y="1201.8181818181818" name="_top"/>
  <anchor x="229.4090909090909" y="1201.8181818181818" name="top"/>
  <outline>
    <contour>
      <point x="99.07575757575756" y="-466.3030303030303" type="line"/>
      <point x="265.72727272727275" y="-258.6060606060606"/>
      <point x="331.1666666666667" y="-77.63636363636364"/>
      <point x="331.1666666666667" y="182.96969696969697" type="curve" smooth="yes"/>
      <point x="331.1666666666667" y="1087.878787878788" type="line"/>
      <point x="129.62121212121212" y="1087.878787878788" type="line"/>
      <point x="129.62121212121212" y="171.5151515151515" type="line" smooth="yes"/>
      <point x="129.62121212121212" y="-58.121212121212125"/>
      <point x="84.48484848484848" y="-204.72727272727275"/>
      <point x="-34.92424242424242" y="-376.8484848484849" type="curve"/>
    </contour>
    <contour>
      <point x="229.4090909090909" y="1302.3333333333333" type="curve" smooth="yes"/>
      <point x="317.8030303030303" y="1302.3333333333333"/>
      <point x="363.1060606060606" y="1347.2121212121212"/>
      <point x="363.1060606060606" y="1422.2424242424242" type="curve" smooth="yes"/>
      <point x="363.1060606060606" y="1497.2727272727273"/>
      <point x="317.8030303030303" y="1543.3636363636363"/>
      <point x="229.4090909090909" y="1543.3636363636363" type="curve" smooth="yes"/>
      <point x="141.01515151515153" y="1543.3636363636363"/>
      <point x="95.71212121212122" y="1497.2727272727273"/>
      <point x="95.71212121212122" y="1422.2424242424242" type="curve" smooth="yes"/>
      <point x="95.71212121212122" y="1347.2121212121212"/>
      <point x="141.01515151515153" y="1302.3333333333333"/>
    </contour>
  </outline>
</glyph>
<glyph name="k" format="2">
  <advance width="1007.560606060606"/>
  <unicode hex="006B"/>
  <anchor x="544.0757575757575" y="0.0" name="bottom"/>
  <anchor x="230.39393939393938" y="1616.0" name="top"/>
  <outline>
    <contour>
      <point x="813.5454545454545" y="0.0" type="line"/>
      <point x="1036.121212121212" y="0.0" type="line"/>
      <point x="622.8030303030303" y="589.3030303030303" type="line"/>
      <point x="622.8030303030303" y="532.030303030303" type="line"/>
      <point x="1002.3484848484849" y="1087.878787878788" type="line"/>
      <point x="784.6212121212121" y="1087.878787878788" type="line"/>
      <point x="418.4848484848485" y="557.5151515151515" type="line"/>
    </contour>
    <contour>
      <point x="308.27272727272725" y="475.4848484848485" type="line"/>
      <point x="496.8181818181818" y="475.4848484848485" type="line"/>
      <point x="496.8181818181818" y="639.5454545454545" type="line"/>
      <point x="308.27272727272725" y="639.5454545454545" type="line"/>
    </contour>
    <contour>
      <point x="129.62121212121212" y="0.0" type="line"/>
      <point x="330.57575757575756" y="0.0" type="line"/>
      <point x="330.57575757575756" y="1616.0" type="line"/>
      <point x="129.62121212121212" y="1616.0" type="line"/>
    </contour>
  </outline>
</glyph>
<glyph name="l" format="2">
  <advance width="460.1969696969697"/>
  <unicode hex="006C"/>
  <anchor x="230.1969696969697" y="0.0" name="bottom"/>
  <anchor x="430.72727272727275" y="1616.0" name="caronalt"/>
  <anchor x="523.0" y="794.0" name="periodcentered"/>
  <anchor x="230.39393939393938" y="714.0" name="slash"/>
  <anchor x="230.39393939393938" y="1616.0" name="top"/>
  <outline>
    <contour>
      <point x="129.62121212121212" y="0.0" type="line"/>
      <point x="330.57575757575756" y="0.0" type="line"/>
      <point x="330.57575757575756" y="1616.0" type="line"/>
      <point x="129.62121212121212" y="1616.0" type="line"/>
    </contour>
  </outline>
</glyph>
<glyph name="p" format="2">
  <advance width="1074.439393939394"/>
  <unicode hex="0070"/>
  <outline>
    <contour>
      <point x="129.62121212121212" y="-440.0" type="line"/>
      <point x="330.57575757575756" y="-440.0" type="line"/>
      <point x="330.57575757575756" y="-10.015151515151516" type="line"/>
      <point x="370.0" y="-14.954545454545453"/>
      <point x="417.3939393939394" y="-18.984848484848484"/>
      <point x="461.1363636363636" y="-18.984848484848484" type="curve" smooth="yes"/>
      <point x="814.8484848484849" y="-18.984848484848484"/>
      <point x="996.7272727272727" y="172.4848484848485"/>
      <point x="996.7272727272727" y="563.7424242424242" type="curve" smooth="yes"/>
      <point x="996.7272727272727" y="962.3030303030303"/>
      <point x="811.1818181818182" y="1104.6666666666667"/>
      <point x="594.469696969697" y="1104.6666666666667" type="curve" smooth="yes"/>
      <point x="473.06060606060606" y="1104.6666666666667"/>
      <point x="379.9848484848485" y="1048.939393939394"/>
      <point x="325.5454545454545" y="971.4090909090909" type="curve"/>
      <point x="314.3030303030303" y="971.4090909090909" type="line"/>
      <point x="300.3181818181818" y="1087.878787878788" type="line"/>
      <point x="129.62121212121212" y="1087.878787878788" type="line"/>
    </contour>
    <contour>
      <point x="468.75757575757575" y="140.96969696969697" type="curve" smooth="yes"/>
      <point x="423.71212121212125" y="140.96969696969697"/>
      <point x="367.93939393939394" y="146.6969696969697"/>
      <point x="330.57575757575756" y="154.54545454545453" type="curve"/>
      <point x="330.57575757575756" y="823.3484848484849" type="line"/>
      <point x="379.3939393939394" y="898.1212121212121"/>
      <point x="461.6363636363636" y="933.6818181818182"/>
      <point x="540.560606060606" y="933.6818181818182" type="curve" smooth="yes"/>
      <point x="684.7878787878788" y="933.6818181818182"/>
      <point x="791.5757575757576" y="855.8939393939394"/>
      <point x="791.5757575757576" y="545.8939393939394" type="curve" smooth="yes"/>
      <point x="791.5757575757576" y="251.07575757575756"/>
      <point x="680.1666666666666" y="140.96969696969697"/>
    </contour>
  </outline>
</glyph>
<glyph name="q" format="2">
  <advance width="1074.439393939394"/>
  <unicode hex="0071"/>
  <outline>
    <contour>
      <point x="743.8636363636364" y="-440.0" type="line"/>
      <point x="944.8181818181818" y="-440.0" type="line"/>
      <point x="944.8181818181818" y="1054.439393939394" type="line"/>
      <point x="852.560606060606" y="1085.909090909091"/>
      <point x="726.0757575757576" y="1104.6666666666667"/>
      <point x="615.939393939394" y="1104.6666666666667" type="curve" smooth="yes"/>
      <point x="259.90909090909093" y="1104.6666666666667"/>
      <point x="77.71212121212122" y="914.3787878787879"/>
      <point x="77.71212121212122" y="521.939393939394" type="curve" smooth="yes"/>
      <point x="77.71212121212122" y="125.74242424242424"/>
      <point x="256.6515151515151" y="-18.984848484848484"/>
      <point x="465.5151515151515" y="-18.984848484848484" type="curve" smooth="yes"/>
      <point x="585.4242424242424" y="-18.984848484848484"/>
      <point x="677.6060606060606" y="33.196969696969695"/>
      <point x="732.939393939394" y="105.9090909090909" type="curve"/>
      <point x="743.8636363636364" y="105.9090909090909" type="line"/>
    </contour>
    <contour>
      <point x="535.5" y="152.5909090909091" type="curve" smooth="yes"/>
      <point x="389.45454545454544" y="152.5909090909091"/>
      <point x="282.8636363636364" y="230.37878787878788"/>
      <point x="282.8636363636364" y="539.9848484848485" type="curve" smooth="yes"/>
      <point x="282.8636363636364" y="834.8030303030303"/>
      <point x="396.24242424242425" y="944.9090909090909"/>
      <point x="600.5454545454545" y="944.9090909090909" type="curve" smooth="yes"/>
      <point x="652.1060606060606" y="944.9090909090909"/>
      <point x="706.5" y="937.060606060606"/>
      <point x="743.8636363636364" y="928.1060606060606" type="curve"/>
      <point x="743.8636363636364" y="255.93939393939394" type="line"/>
      <point x="695.2424242424242" y="186.77272727272725"/>
      <point x="613.6666666666666" y="152.5909090909091"/>
    </contour>
  </outline>
</glyph>
<glyph name="v" format="2">
  <advance width="1012.5757575757576"/>
  <unicode hex="0076"/>
  <anchor x="507.0454545454545" y="0.0" name="bottom"/>
  <anchor x="507.0454545454545" y="1200.0" name="top"/>
  <outline>
    <contour>
      <point x="376.5151515151515" y="0.0" type="line"/>
      <point x="635.8636363636364" y="0.0" type="line"/>
      <point x="1005.6969696969697" y="1087.878787878788" type="line"/>
      <point x="803.7575757575758" y="1087.878787878788" type="line"/>
      <point x="499.5" y="151.6060606060606" type="line"/>
      <point x="522.2575757575758" y="151.6060606060606" type="line"/>
      <point x="218.0" y="1087.878787878788" type="line"/>
      <point x="6.878787878787879" y="1087.878787878788" type="line"/>
    </contour>
  </outline>
</glyph>
<glyph name="x" format="2">
  <advance width="967.6969696969697"/>
  <unicode hex="0078"/>
  <anchor x="484.6060606060606" y="0.0" name="bottom"/>
  <anchor x="485.1969696969697" y="1200.0" name="top"/>
  <outline>
    <contour>
      <point x="744.3484848484849" y="0.0" type="line"/>
      <point x="967.7878787878788" y="0.0" type="line"/>
      <point x="602.5" y="550.9242424242424" type="line"/>
      <point x="486.3787878787879" y="699.4242424242424" type="line"/>
      <point x="231.74242424242425" y="1087.878787878788" type="line"/>
      <point x="8.303030303030306" y="1087.878787878788" type="line"/>
      <point x="364.5151515151515" y="547.939393939394" type="line"/>
      <point x="482.4090909090909" y="401.530303030303" type="line"/>
    </contour>
    <contour>
      <point x="2.40909090909091" y="0.0" type="line"/>
      <point x="220.0151515151515" y="0.0" type="line"/>
      <point x="482.4090909090909" y="401.530303030303" type="line"/>
      <point x="602.5" y="550.9242424242424" type="line"/>
      <point x="957.7272727272727" y="1087.878787878788" type="line"/>
      <point x="740.7272727272727" y="1087.878787878788" type="line"/>
      <point x="486.3787878787879" y="699.4242424242424" type="line"/>
      <point x="364.5151515151515" y="547.939393939394" type="line"/>
    </contour>
  </outline>
</glyph>
<glyph name="y" format="2">
  <advance width="1012.5757575757576"/>
  <unicode hex="0079"/>
  <anchor x="812.4545454545455" y="0.0" name="bottom"/>
  <anchor x="507.0454545454545" y="1200.0" name="top"/>
  <outline>
    <contour>
      <point x="286.74242424242425" y="-440.0" type="line"/>
      <point x="485.9848484848485" y="-440.0" type="line"/>
      <point x="1005.6969696969697" y="1087.878787878788" type="line"/>
      <point x="803.7575757575758" y="1087.878787878788" type="line"/>
      <point x="499.5" y="151.6060606060606" type="line"/>
      <point x="437.72727272727275" y="0.0" type="line"/>
    </contour>
    <contour>
      <point x="376.5151515151515" y="0.0" type="line"/>
      <point x="562.7272727272727" y="0.0" type="line"/>
      <point x="218.0" y="1087.878787878788" type="line"/>
      <point x="6.878787878787879" y="1087.878787878788" type="line"/>
    </contour>
  </outline>
</glyph>
<glyph name="z" format="2">
  <advance width="871.2575757575758"/>
  <unicode hex="007A"/>
  <anchor x="440.93939393939394" y="0.0" name="bottom"/>
  <anchor x="440.93939393939394" y="1200.0" name="top"/>
  <outline>
    <contour>
      <point x="56.31818181818182" y="0.0" type="line"/>
      <point x="824.4545454545455" y="0.0" type="line"/>
      <point x="824.4545454545455" y="162.87878787878788" type="line"/>
      <point x="267.5151515151515" y="162.87878787878788" type="line"/>
      <point x="267.5151515151515" y="119.06060606060606" type="line"/>
      <point x="813.8484848484849" y="963.1818181818182" type="line"/>
      <point x="813.8484848484849" y="1087.878787878788" type="line"/>
      <point x="66.92424242424242" y="1087.878787878788" type="line"/>
      <point x="66.92424242424242" y="925.0" type="line"/>
      <point x="602.6515151515151" y="925.0" type="line"/>
      <point x="602.6515151515151" y="968.8181818181818" type="line"/>
      <point x="56.31818181818182" y="124.69696969696969" type="line"/>
    </contour>
  </outline>
</glyph>
<glyph name="braceleft" format="2">
  <advance width="676.4242424242424"/>
  <unicode hex="007B"/>
  <outline>
    <contour>
      <point x="564.7121212121212" y="-460.0" type="curve" smooth="yes"/>
      <point x="620.3333333333334" y="-460.0"/>
      <point x="672.0454545454545" y="-455.2121212121212"/>
      <point x="711.6969696969697" y="-448.42424242424244" type="curve"/>
      <point x="711.6969696969697" y="-293.54545454545456" type="line"/>
      <point x="591.0454545454545" y="-293.54545454545456" type="line" smooth="yes"/>
      <point x="467.9848484848485" y="-293.54545454545456"/>
      <point x="407.030303030303" y="-239.96969696969697"/>
      <point x="407.030303030303" y="-118.18181818181819" type="curve" smooth="yes"/>
      <point x="407.030303030303" y="383.5151515151515" type="line" smooth="yes"/>
      <point x="407.030303030303" y="537.0909090909091"/>
      <point x="338.96969696969694" y="623.2727272727273"/>
      <point x="169.3030303030303" y="639.030303030303" type="curve"/>
      <point x="169.3030303030303" y="612.8484848484849" type="line"/>
      <point x="338.96969696969694" y="628.6060606060606"/>
      <point x="407.030303030303" y="714.7878787878788"/>
      <point x="407.030303030303" y="868.3636363636364" type="curve" smooth="yes"/>
      <point x="407.030303030303" y="1294.1818181818182" type="line" smooth="yes"/>
      <point x="407.030303030303" y="1415.969696969697"/>
      <point x="467.9848484848485" y="1469.5454545454545"/>
      <point x="591.0454545454545" y="1469.5454545454545" type="curve" smooth="yes"/>
      <point x="711.6969696969697" y="1469.5454545454545" type="line"/>
      <point x="711.6969696969697" y="1624.4242424242425" type="line"/>
      <point x="672.0454545454545" y="1631.2121212121212"/>
      <point x="620.3333333333334" y="1636.0"/>
      <point x="564.7121212121212" y="1636.0" type="curve" smooth="yes"/>
      <point x="327.42424242424244" y="1636.0"/>
      <point x="206.07575757575756" y="1518.939393939394"/>
      <point x="206.07575757575756" y="1292.0" type="curve" smooth="yes"/>
      <point x="206.07575757575756" y="858.2424242424242" type="line" smooth="yes"/>
      <point x="206.07575757575756" y="756.6515151515151"/>
      <point x="151.95454545454544" y="707.3787878787879"/>
      <point x="56.42424242424242" y="707.3787878787879" type="curve" smooth="yes"/>
      <point x="25.06060606060606" y="707.3787878787879" type="line"/>
      <point x="25.06060606060606" y="544.5" type="line"/>
      <point x="56.42424242424242" y="544.5" type="line" smooth="yes"/>
      <point x="151.95454545454544" y="544.5"/>
      <point x="206.07575757575756" y="495.22727272727275"/>
      <point x="206.07575757575756" y="393.6363636363636" type="curve" smooth="yes"/>
      <point x="206.07575757575756" y="-116.0" type="line" smooth="yes"/>
      <point x="206.07575757575756" y="-342.93939393939394"/>
      <point x="327.42424242424244" y="-460.0"/>
    </contour>
  </outline>
</glyph>
<glyph name="bar" format="2">
  <advance width="475.1818181818182"/>
  <unicode hex="007C"/>
  <outline>
    <contour>
      <point x="146.07575757575756" y="-440.0" type="line"/>
      <point x="329.1060606060606" y="-440.0" type="line"/>
      <point x="329.1060606060606" y="1616.0" type="line"/>
      <point x="146.07575757575756" y="1616.0" type="line"/>
    </contour>
  </outline>
</glyph>
<glyph name="braceright" format="2">
  <advance width="676.4242424242424"/>
  <unicode hex="007D"/>
  <outline>
    <contour>
      <point x="111.71212121212122" y="-460.0" type="curve" smooth="yes"/>
      <point x="349.0" y="-460.0"/>
      <point x="470.3484848484849" y="-342.93939393939394"/>
      <point x="470.3484848484849" y="-116.0" type="curve" smooth="yes"/>
      <point x="470.3484848484849" y="393.6363636363636" type="line" smooth="yes"/>
      <point x="470.3484848484849" y="495.22727272727275"/>
      <point x="524.469696969697" y="544.5"/>
      <point x="620.0" y="544.5" type="curve" smooth="yes"/>
      <point x="651.3636363636364" y="544.5" type="line"/>
      <point x="651.3636363636364" y="707.3787878787879" type="line"/>
      <point x="620.0" y="707.3787878787879" type="line" smooth="yes"/>
      <point x="524.469696969697" y="707.3787878787879"/>
      <point x="470.3484848484849" y="756.6515151515151"/>
      <point x="470.3484848484849" y="858.2424242424242" type="curve" smooth="yes"/>
      <point x="470.3484848484849" y="1292.0" type="line" smooth="yes"/>
      <point x="470.3484848484849" y="1518.939393939394"/>
      <point x="349.0" y="1636.0"/>
      <point x="111.71212121212122" y="1636.0" type="curve" smooth="yes"/>
      <point x="56.09090909090909" y="1636.0"/>
      <point x="4.378787878787879" y="1631.2121212121212"/>
      <point x="-35.27272727272727" y="1624.4242424242425" type="curve"/>
      <point x="-35.27272727272727" y="1469.5454545454545" type="line"/>
      <point x="85.37878787878788" y="1469.5454545454545" type="line" smooth="yes"/>
      <point x="208.43939393939394" y="1469.5454545454545"/>
      <point x="269.3939393939394" y="1415.969696969697"/>
      <point x="269.3939393939394" y="1294.1818181818182" type="curve" smooth="yes"/>
      <point x="269.3939393939394" y="868.3636363636364" type="line" smooth="yes"/>
      <point x="269.3939393939394" y="714.7878787878788"/>
      <point x="339.22727272727275" y="628.6060606060606"/>
      <point x="507.1212121212121" y="612.8484848484849" type="curve"/>
      <point x="507.1212121212121" y="639.030303030303" type="line"/>
      <point x="339.22727272727275" y="623.2727272727273"/>
      <point x="269.3939393939394" y="537.0909090909091"/>
      <point x="269.3939393939394" y="383.5151515151515" type="curve" smooth="yes"/>
      <point x="269.3939393939394" y="-118.18181818181819" type="line" smooth="yes"/>
      <point x="269.3939393939394" y="-239.96969696969697"/>
      <point x="208.43939393939394" y="-293.54545454545456"/>
      <point x="85.37878787878788" y="-293.54545454545456" type="curve" smooth="yes"/>
      <point x="-35.27272727272727" y="-293.54545454545456" type="line"/>
      <point x="-35.27272727272727" y="-448.42424242424244" type="line"/>
      <point x="4.378787878787879" y="-455.2121212121212"/>
      <point x="56.09090909090909" y="-460.0"/>
    </contour>
  </outline>
</glyph>
<glyph name="asciitilde" format="2">
  <advance width="1053.5757575757575"/>
  <unicode hex="007E"/>
  <outline>
    <contour>
      <point x="710.2121212121212" y="618.6969696969697" type="curve" smooth="yes"/>
      <point x="800.2272727272727" y="618.6969696969697"/>
      <point x="871.8030303030303" y="649.9090909090909"/>
      <point x="925.060606060606" y="713.4242424242424" type="curve"/>
      <point x="925.060606060606" y="886.030303030303" type="line"/>
      <point x="860.8181818181818" y="811.6666666666666"/>
      <point x="793.8636363636364" y="777.2424242424242"/>
      <point x="710.5757575757576" y="777.2424242424242" type="curve" smooth="yes"/>
      <point x="596.7272727272727" y="777.2424242424242"/>
      <point x="486.3939393939394" y="894.030303030303"/>
      <point x="343.3636363636364" y="894.030303030303" type="curve" smooth="yes"/>
      <point x="253.34848484848484" y="894.030303030303"/>
      <point x="181.77272727272728" y="862.8181818181818"/>
      <point x="128.5151515151515" y="799.3030303030303" type="curve"/>
      <point x="128.5151515151515" y="626.6969696969697" type="line"/>
      <point x="192.75757575757575" y="701.060606060606"/>
      <point x="259.7121212121212" y="735.4848484848485"/>
      <point x="343.0" y="735.4848484848485" type="curve" smooth="yes"/>
      <point x="456.8484848484849" y="735.4848484848485"/>
      <point x="567.1818181818181" y="618.6969696969697"/>
    </contour>
  </outline>
</glyph>
<glyph name="exclamdown" format="2">
  <advance width="501.3939393939394"/>
  <unicode hex="00A1"/>
  <outline>
    <contour>
      <point x="188.4848484848485" y="679.3030303030303" type="line"/>
      <point x="143.3939393939394" y="152.37878787878788" type="line"/>
      <point x="143.3939393939394" y="-380.0" type="line"/>
      <point x="358.0" y="-380.0" type="line"/>
      <point x="358.0" y="152.37878787878788" type="line"/>
      <point x="314.6818181818182" y="679.3030303030303" type="line"/>
    </contour>
    <contour>
      <point x="250.6969696969697" y="1101.8181818181818" type="curve" smooth="yes"/>
      <point x="168.4090909090909" y="1101.8181818181818"/>
      <point x="111.87878787878788" y="1050.439393939394"/>
      <point x="111.87878787878788" y="967.530303030303" type="curve" smooth="yes"/>
      <point x="111.87878787878788" y="884.6212121212121"/>
      <point x="166.83333333333334" y="832.030303030303"/>
      <point x="250.6969696969697" y="832.030303030303" type="curve" smooth="yes"/>
      <point x="334.56060606060606" y="832.030303030303"/>
      <point x="389.5151515151515" y="886.1969696969697"/>
      <point x="389.5151515151515" y="967.530303030303" type="curve" smooth="yes"/>
      <point x="389.5151515151515" y="1048.8636363636363"/>
      <point x="332.9848484848485" y="1101.8181818181818"/>
    </contour>
  </outline>
</glyph>
<glyph name="cent" format="2">
  <advance width="831.060606060606"/>
  <unicode hex="00A2"/>
  <outline>
    <contour>
      <point x="550.0757575757575" y="-19.575757575757574" type="curve" smooth="yes"/>
      <point x="632.6818181818181" y="-19.575757575757574"/>
      <point x="717.2727272727273" y="-6.075757575757576"/>
      <point x="797.2121212121212" y="21.560606060606062" type="curve"/>
      <point x="797.2121212121212" y="189.22727272727272" type="line"/>
      <point x="713.3030303030303" y="161.84848484848484"/>
      <point x="646.5909090909091" y="150.03030303030303"/>
      <point x="585.3484848484849" y="150.03030303030303" type="curve" smooth="yes"/>
      <point x="388.5454545454545" y="150.03030303030303"/>
      <point x="286.6060606060606" y="248.87878787878788"/>
      <point x="286.6060606060606" y="547.1515151515151" type="curve" smooth="yes"/>
      <point x="286.6060606060606" y="836.6818181818182"/>
      <point x="392.1060606060606" y="935.060606060606"/>
      <point x="616.2272727272727" y="935.060606060606" type="curve" smooth="yes"/>
      <point x="671.6363636363636" y="935.060606060606"/>
      <point x="733.3181818181818" y="928.2424242424242"/>
      <point x="797.2121212121212" y="913.2727272727273" type="curve"/>
      <point x="797.2121212121212" y="1080.939393939394" type="line"/>
      <point x="730.4545454545455" y="1097.3636363636363"/>
      <point x="660.9090909090909" y="1104.6666666666667"/>
      <point x="591.1666666666666" y="1104.6666666666667" type="curve" smooth="yes"/>
      <point x="263.8636363636364" y="1104.6666666666667"/>
      <point x="77.71212121212122" y="943.8333333333334"/>
      <point x="77.71212121212122" y="542.9545454545455" type="curve" smooth="yes"/>
      <point x="77.71212121212122" y="145.9090909090909"/>
      <point x="246.84848484848484" y="-19.575757575757574"/>
    </contour>
    <contour>
      <point x="448.74242424242425" y="-240.0" type="line"/>
      <point x="621.469696969697" y="-240.0" type="line"/>
      <point x="621.469696969697" y="23.636363636363637" type="line"/>
      <point x="448.74242424242425" y="23.636363636363637" type="line"/>
    </contour>
    <contour>
      <point x="448.74242424242425" y="1064.2424242424242" type="line"/>
      <point x="621.469696969697" y="1064.2424242424242" type="line"/>
      <point x="621.469696969697" y="1327.878787878788" type="line"/>
      <point x="448.74242424242425" y="1327.878787878788" type="line"/>
    </contour>
  </outline>
</glyph>
<glyph name="sterling" format="2">
  <advance width="1200.1969696969697"/>
  <unicode hex="00A3"/>
  <outline>
    <contour>
      <point x="273.030303030303" y="68.24242424242425" type="line"/>
      <point x="473.0" y="68.24242424242425" type="line"/>
      <point x="473.0" y="1051.060606060606" type="line" smooth="yes"/>
      <point x="473.0" y="1246.2121212121212"/>
      <point x="578.7424242424242" y="1326.2272727272727"/>
      <point x="821.1969696969697" y="1326.2272727272727" type="curve" smooth="yes"/>
      <point x="914.8030303030303" y="1326.2272727272727"/>
      <point x="1015.939393939394" y="1313.439393939394"/>
      <point x="1107.3030303030303" y="1286.2878787878788" type="curve"/>
      <point x="1107.3030303030303" y="1460.060606060606" type="line"/>
      <point x="1023.8636363636364" y="1484.6969696969697"/>
      <point x="912.6363636363636" y="1498.7878787878788"/>
      <point x="809.1212121212121" y="1498.7878787878788" type="curve" smooth="yes"/>
      <point x="453.93939393939394" y="1498.7878787878788"/>
      <point x="273.030303030303" y="1344.8939393939395"/>
      <point x="273.030303030303" y="1045.5454545454545" type="curve" smooth="yes"/>
    </contour>
    <contour>
      <point x="72.12121212121212" y="0.0" type="line"/>
      <point x="1143.8636363636365" y="0.0" type="line"/>
      <point x="1143.8636363636365" y="171.93939393939394" type="line"/>
      <point x="72.12121212121212" y="171.93939393939394" type="line"/>
    </contour>
    <contour>
      <point x="72.12121212121212" y="670.530303030303" type="line"/>
      <point x="942.4545454545455" y="670.530303030303" type="line"/>
      <point x="942.4545454545455" y="829.469696969697" type="line"/>
      <point x="72.12121212121212" y="829.469696969697" type="line"/>
    </contour>
  </outline>
</glyph>
<glyph name="currency" format="2">
  <advance width="1132.7272727272727"/>
  <unicode hex="00A4"/>
  <outline>
    <contour>
      <point x="342.3636363636364" y="884.8484848484849" type="line"/>
      <point x="421.5151515151515" y="962.7878787878788" type="line"/>
      <point x="289.6363636363636" y="1124.2424242424242" type="line"/>
      <point x="189.3030303030303" y="1227.7878787878788" type="line"/>
      <point x="77.36363636363636" y="1115.8484848484848" type="line"/>
      <point x="182.12121212121212" y="1015.5151515151515" type="line"/>
    </contour>
    <contour>
      <point x="790.3636363636364" y="884.8484848484849" type="line"/>
      <point x="950.6060606060606" y="1015.5151515151515" type="line"/>
      <point x="1055.3636363636363" y="1115.8484848484848" type="line"/>
      <point x="943.4242424242424" y="1227.7878787878788" type="line"/>
      <point x="843.0909090909091" y="1124.2424242424242" type="line"/>
      <point x="711.2121212121212" y="962.7878787878788" type="line"/>
    </contour>
    <contour>
      <point x="942.2121212121212" y="252.21212121212122" type="line"/>
      <point x="1054.1515151515152" y="364.1515151515151" type="line"/>
      <point x="950.6060606060606" y="464.4848484848485" type="line"/>
      <point x="796.4242424242424" y="589.0909090909091" type="line"/>
      <point x="717.2727272727273" y="508.72727272727275" type="line"/>
      <point x="841.8787878787879" y="355.75757575757575" type="line"/>
    </contour>
    <contour>
      <point x="190.5151515151515" y="252.21212121212122" type="line"/>
      <point x="290.8484848484849" y="355.75757575757575" type="line"/>
      <point x="415.45454545454544" y="508.72727272727275" type="line"/>
      <point x="336.3030303030303" y="589.0909090909091" type="line"/>
      <point x="182.12121212121212" y="464.4848484848485" type="line"/>
      <point x="78.57575757575758" y="364.1515151515151" type="line"/>
    </contour>
    <contour>
      <point x="566.3636363636364" y="390.24242424242425" type="curve" smooth="yes"/>
      <point x="765.1515151515151" y="390.24242424242425"/>
      <point x="907.5757575757575" y="530.0"/>
      <point x="907.5757575757575" y="740.0" type="curve" smooth="yes"/>
      <point x="907.5757575757575" y="948.0"/>
      <point x="765.1515151515151" y="1087.7575757575758"/>
      <point x="566.3636363636364" y="1087.7575757575758" type="curve" smooth="yes"/>
      <point x="366.3636363636364" y="1087.7575757575758"/>
      <point x="225.15151515151516" y="948.0"/>
      <point x="225.15151515151516" y="740.0" type="curve" smooth="yes"/>
      <point x="225.15151515151516" y="530.0"/>
      <point x="366.3636363636364" y="390.24242424242425"/>
    </contour>
    <contour>
      <point x="566.3636363636364" y="516.060606060606" type="curve" smooth="yes"/>
      <point x="444.1818181818182" y="516.060606060606"/>
      <point x="358.06060606060606" y="599.3939393939394"/>
      <point x="358.06060606060606" y="740.0" type="curve" smooth="yes"/>
      <point x="358.06060606060606" y="880.6060606060606"/>
      <point x="444.1818181818182" y="963.939393939394"/>
      <point x="568.3636363636364" y="963.939393939394" type="curve" smooth="yes"/>
      <point x="698.6060606060606" y="963.939393939394"/>
      <point x="774.6666666666666" y="870.1818181818181"/>
      <point x="774.6666666666666" y="740.0" type="curve" smooth="yes"/>
      <point x="774.6666666666666" y="598.1818181818181"/>
      <point x="688.5454545454545" y="516.060606060606"/>
    </contour>
  </outline>
</glyph>
<glyph name="yen" format="2">
  <advance width="1167.560606060606"/>
  <unicode hex="00A5"/>
  <outline>
    <contour>
      <point x="482.5151515151515" y="0.0" type="line"/>
      <point x="686.4242424242424" y="0.0" type="line"/>
      <point x="686.4242424242424" y="732.7121212121212" type="line"/>
      <point x="643.4242424242424" y="576.9545454545455" type="line"/>
      <point x="1184.8333333333333" y="1480.0" type="line"/>
      <point x="980.3787878787879" y="1480.0" type="line"/>
      <point x="558.439393939394" y="780.5" type="line"/>
      <point x="619.7727272727273" y="780.5" type="line"/>
      <point x="198.34848484848484" y="1480.0" type="line"/>
      <point x="-21.015151515151516" y="1480.0" type="line"/>
      <point x="525.5151515151515" y="576.9545454545455" type="line"/>
      <point x="482.5151515151515" y="735.0757575757576" type="line"/>
    </contour>
    <contour>
      <point x="176.45454545454547" y="290.25757575757575" type="line"/>
      <point x="992.4848484848485" y="290.25757575757575" type="line"/>
      <point x="992.4848484848485" y="422.8030303030303" type="line"/>
      <point x="176.45454545454547" y="422.8030303030303" type="line"/>
    </contour>
    <contour>
      <point x="176.45454545454547" y="625.1969696969697" type="line"/>
      <point x="992.4848484848485" y="625.1969696969697" type="line"/>
      <point x="992.4848484848485" y="757.7424242424242" type="line"/>
      <point x="176.45454545454547" y="757.7424242424242" type="line"/>
    </contour>
  </outline>
</glyph>
<glyph name="section" format="2">
  <advance width="962.060606060606"/>
  <unicode hex="00A7"/>
  <outline>
    <contour>
      <point x="411.0151515151515" y="-19.575757575757574" type="curve" smooth="yes"/>
      <point x="683.6515151515151" y="-19.575757575757574"/>
      <point x="832.5" y="104.24242424242425"/>
      <point x="832.5" y="304.0151515151515" type="curve" smooth="yes"/>
      <point x="832.5" y="454.3030303030303"/>
      <point x="754.5454545454545" y="542.7727272727273"/>
      <point x="569.060606060606" y="587.4545454545455" type="curve" smooth="yes"/>
      <point x="413.8484848484849" y="622.3333333333334" type="line" smooth="yes"/>
      <point x="308.8030303030303" y="647.9545454545455"/>
      <point x="267.06060606060606" y="700.8181818181819"/>
      <point x="267.06060606060606" y="785.3484848484849" type="curve" smooth="yes"/>
      <point x="267.06060606060606" y="846.3333333333334"/>
      <point x="294.56060606060606" y="896.939393939394"/>
      <point x="350.72727272727275" y="940.7878787878788" type="curve"/>
      <point x="236.6060606060606" y="1020.7272727272727" type="line"/>
      <point x="151.6818181818182" y="964.4848484848485"/>
      <point x="98.33333333333333" y="881.3333333333334"/>
      <point x="98.33333333333333" y="775.939393939394" type="curve" smooth="yes"/>
      <point x="98.33333333333333" y="615.6363636363636"/>
      <point x="180.96969696969697" y="521.7272727272727"/>
      <point x="353.59090909090907" y="480.24242424242425" type="curve" smooth="yes"/>
      <point x="508.6060606060606" y="444.969696969697" type="line" smooth="yes"/>
      <point x="603.0" y="421.7121212121212"/>
      <point x="646.1818181818182" y="381.030303030303"/>
      <point x="646.1818181818182" y="292.9090909090909" type="curve" smooth="yes"/>
      <point x="646.1818181818182" y="191.63636363636363"/>
      <point x="576.060606060606" y="132.3030303030303"/>
      <point x="409.95454545454544" y="132.3030303030303" type="curve" smooth="yes"/>
      <point x="318.8333333333333" y="132.3030303030303"/>
      <point x="229.27272727272728" y="144.78787878787878"/>
      <point x="132.07575757575756" y="173.2121212121212" type="curve"/>
      <point x="132.07575757575756" y="20.12121212121212" type="line"/>
      <point x="220.12121212121212" y="-6.2727272727272725"/>
      <point x="316.1969696969697" y="-19.575757575757574"/>
    </contour>
    <contour>
      <point x="720.9848484848485" y="454.24242424242425" type="line"/>
      <point x="807.939393939394" y="510.3636363636364"/>
      <point x="863.7272727272727" y="593.5757575757576"/>
      <point x="863.7272727272727" y="706.969696969697" type="curve" smooth="yes"/>
      <point x="863.7272727272727" y="869.2727272727273"/>
      <point x="785.7727272727273" y="961.3181818181818"/>
      <point x="605.2121212121212" y="1004.4242424242424" type="curve" smooth="yes"/>
      <point x="448.22727272727275" y="1038.909090909091" type="line" smooth="yes"/>
      <point x="353.22727272727275" y="1062.1666666666667"/>
      <point x="313.9090909090909" y="1107.5151515151515"/>
      <point x="313.9090909090909" y="1185.1515151515152" type="curve" smooth="yes"/>
      <point x="313.9090909090909" y="1272.4242424242425"/>
      <point x="379.43939393939394" y="1344.909090909091"/>
      <point x="571.2121212121212" y="1344.909090909091" type="curve" smooth="yes"/>
      <point x="648.0757575757576" y="1344.909090909091"/>
      <point x="715.8484848484849" y="1337.909090909091"/>
      <point x="795.9545454545455" y="1318.4848484848485" type="curve"/>
      <point x="795.9545454545455" y="1471.5757575757575" type="line"/>
      <point x="723.8181818181818" y="1487.7878787878788"/>
      <point x="645.0" y="1496.7878787878788"/>
      <point x="559.1969696969697" y="1496.7878787878788" type="curve" smooth="yes"/>
      <point x="266.72727272727275" y="1496.7878787878788"/>
      <point x="127.5909090909091" y="1363.909090909091"/>
      <point x="127.5909090909091" y="1174.9545454545455" type="curve" smooth="yes"/>
      <point x="127.5909090909091" y="1030.6060606060605"/>
      <point x="209.43939393939394" y="938.8939393939394"/>
      <point x="389.74242424242425" y="896.4242424242424" type="curve" smooth="yes"/>
      <point x="544.7575757575758" y="861.5454545454545" type="line" smooth="yes"/>
      <point x="649.1969696969697" y="835.9242424242424"/>
      <point x="695.0" y="787.7272727272727"/>
      <point x="695.0" y="695.6666666666666" type="curve" smooth="yes"/>
      <point x="695.0" y="631.8939393939394"/>
      <point x="667.8939393939394" y="584.5909090909091"/>
      <point x="604.9090909090909" y="540.2878787878788" type="curve"/>
    </contour>
  </outline>
</glyph>
<glyph name="copyright" format="2">
  <advance width="1672.090909090909"/>
  <unicode hex="00A9"/>
  <outline>
    <contour>
      <point x="836.0454545454545" y="-22.0" type="curve" smooth="yes"/>
      <point x="1284.409090909091" y="-22.0"/>
      <point x="1582.409090909091" y="282.0"/>
      <point x="1582.409090909091" y="740.0" type="curve" smooth="yes"/>
      <point x="1582.409090909091" y="1198.0"/>
      <point x="1284.409090909091" y="1502.0"/>
      <point x="836.0454545454545" y="1502.0" type="curve" smooth="yes"/>
      <point x="387.6818181818182" y="1502.0"/>
      <point x="89.68181818181819" y="1198.0"/>
      <point x="89.68181818181819" y="740.0" type="curve" smooth="yes"/>
      <point x="89.68181818181819" y="282.0"/>
      <point x="387.6818181818182" y="-22.0"/>
    </contour>
    <contour>
      <point x="884.2272727272727" y="324.0" type="curve" smooth="yes"/>
      <point x="963.8030303030303" y="324.0"/>
      <point x="1035.8030303030303" y="336.0"/>
      <point x="1096.7121212121212" y="361.27272727272725" type="curve"/>
      <point x="1096.7121212121212" y="499.75757575757575" type="line"/>
      <point x="1016.2878787878788" y="473.27272727272725"/>
      <point x="956.1060606060606" y="464.8484848484849"/>
      <point x="898.8939393939394" y="464.8484848484849" type="curve" smooth="yes"/>
      <point x="735.9848484848485" y="464.8484848484849"/>
      <point x="637.6212121212121" y="552.7878787878788"/>
      <point x="637.6212121212121" y="735.6363636363636" type="curve" smooth="yes"/>
      <point x="637.6212121212121" y="915.6363636363636"/>
      <point x="733.6212121212121" y="1003.1515151515151"/>
      <point x="916.9545454545455" y="1003.1515151515151" type="curve" smooth="yes"/>
      <point x="981.439393939394" y="1003.1515151515151"/>
      <point x="1035.5" y="994.7272727272727"/>
      <point x="1096.7121212121212" y="979.8787878787879" type="curve"/>
      <point x="1096.7121212121212" y="1118.3636363636363" type="line"/>
      <point x="1035.8636363636363" y="1136.0"/>
      <point x="975.0757575757576" y="1144.0"/>
      <point x="904.7121212121212" y="1144.0" type="curve" smooth="yes"/>
      <point x="634.4090909090909" y="1144.0"/>
      <point x="475.8030303030303" y="994.4242424242424"/>
      <point x="475.8030303030303" y="733.2121212121212" type="curve" smooth="yes"/>
      <point x="475.8030303030303" y="466.72727272727275"/>
      <point x="637.6818181818181" y="324.0"/>
    </contour>
    <contour>
      <point x="836.0454545454545" y="102.72727272727272" type="curve" smooth="yes"/>
      <point x="456.8333333333333" y="102.72727272727272"/>
      <point x="218.34848484848484" y="352.72727272727275"/>
      <point x="218.34848484848484" y="740.0" type="curve" smooth="yes"/>
      <point x="218.34848484848484" y="1127.2727272727273"/>
      <point x="456.8333333333333" y="1377.2727272727273"/>
      <point x="836.0454545454545" y="1377.2727272727273" type="curve" smooth="yes"/>
      <point x="1215.2575757575758" y="1377.2727272727273"/>
      <point x="1453.7424242424242" y="1127.2727272727273"/>
      <point x="1453.7424242424242" y="740.0" type="curve" smooth="yes"/>
      <point x="1453.7424242424242" y="352.72727272727275"/>
      <point x="1215.2575757575758" y="102.72727272727272"/>
    </contour>
  </outline>
</glyph>
<glyph name="ordfeminine" format="2">
  <advance width="826.3636363636364"/>
  <unicode hex="00AA"/>
  <outline>
    <contour>
      <point x="315.9848484848485" y="594.4242424242424" type="curve" smooth="yes"/>
      <point x="412.3939393939394" y="594.4242424242424"/>
      <point x="499.7878787878788" y="629.7121212121212"/>
      <point x="552.6969696969697" y="703.8939393939394" type="curve"/>
      <point x="562.8333333333334" y="703.8939393939394" type="line"/>
      <point x="577.1060606060606" y="610.0" type="line"/>
      <point x="732.1818181818182" y="610.0" type="line"/>
      <point x="732.1818181818182" y="1162.7727272727273" type="line" smooth="yes"/>
      <point x="732.1818181818182" y="1411.3636363636363"/>
      <point x="615.3636363636364" y="1495.939393939394"/>
      <point x="372.22727272727275" y="1495.939393939394" type="curve" smooth="yes"/>
      <point x="288.07575757575756" y="1495.939393939394"/>
      <point x="189.53030303030303" y="1482.7272727272727"/>
      <point x="111.5" y="1458.409090909091" type="curve"/>
      <point x="111.5" y="1310.6969696969697" type="line"/>
      <point x="189.36363636363637" y="1335.1515151515152"/>
      <point x="270.74242424242425" y="1347.6666666666667"/>
      <point x="338.7878787878788" y="1347.6666666666667" type="curve" smooth="yes"/>
      <point x="485.9848484848485" y="1347.6666666666667"/>
      <point x="547.0454545454545" y="1306.3636363636363"/>
      <point x="547.0454545454545" y="1181.1363636363637" type="curve" smooth="yes"/>
      <point x="547.0454545454545" y="813.060606060606" type="line"/>
      <point x="500.09090909090907" y="753.3939393939394"/>
      <point x="435.8030303030303" y="731.0757575757576"/>
      <point x="379.43939393939394" y="731.0757575757576" type="curve" smooth="yes"/>
      <point x="286.8181818181818" y="731.0757575757576"/>
      <point x="235.37878787878788" y="775.1212121212121"/>
      <point x="235.37878787878788" y="863.0454545454545" type="curve" smooth="yes"/>
      <point x="235.37878787878788" y="944.560606060606"/>
      <point x="286.1363636363636" y="988.6969696969697"/>
      <point x="403.06060606060606" y="999.1818181818181" type="curve" smooth="yes"/>
      <point x="607.2121212121212" y="1016.7272727272727" type="line"/>
      <point x="583.9848484848485" y="1123.6969696969697" type="line"/>
      <point x="381.2878787878788" y="1105.3636363636363" type="line" smooth="yes"/>
      <point x="147.54545454545453" y="1087.8030303030303"/>
      <point x="50.77272727272727" y="999.469696969697"/>
      <point x="50.77272727272727" y="839.1060606060606" type="curve" smooth="yes"/>
      <point x="50.77272727272727" y="691.3636363636364"/>
      <point x="153.24242424242425" y="594.4242424242424"/>
    </contour>
  </outline>
</glyph>
<glyph name="guillemetleft" format="2">
  <advance width="983.5757575757575"/>
  <unicode hex="00AB"/>
  <outline>
    <contour>
      <point x="319.3333333333333" y="136.06060606060606" type="line"/>
      <point x="521.9090909090909" y="136.06060606060606" type="line"/>
      <point x="299.5151515151515" y="563.939393939394" type="line"/>
      <point x="521.9090909090909" y="991.8181818181819" type="line"/>
      <point x="319.3333333333333" y="991.8181818181819" type="line"/>
      <point x="96.93939393939394" y="563.939393939394" type="line"/>
    </contour>
    <contour>
      <point x="724.060606060606" y="136.06060606060606" type="line"/>
      <point x="926.6363636363636" y="136.06060606060606" type="line"/>
      <point x="704.2424242424242" y="563.939393939394" type="line"/>
      <point x="926.6363636363636" y="991.8181818181819" type="line"/>
      <point x="724.060606060606" y="991.8181818181819" type="line"/>
      <point x="501.66666666666663" y="563.939393939394" type="line"/>
    </contour>
  </outline>
</glyph>
<glyph name="logicalnot" format="2">
  <advance width="1286.6060606060605"/>
  <unicode hex="00AC"/>
  <outline>
    <contour>
      <point x="997.7727272727273" y="193.1818181818182" type="line"/>
      <point x="1166.2272727272727" y="193.1818181818182" type="line"/>
      <point x="1166.2272727272727" y="840.4545454545455" type="line"/>
      <point x="128.5151515151515" y="840.4545454545455" type="line"/>
      <point x="128.5151515151515" y="679.5454545454545" type="line"/>
      <point x="997.7727272727273" y="679.5454545454545" type="line"/>
    </contour>
  </outline>
</glyph>
<glyph name="softhyphen" format="2">
  <advance width="785.060606060606"/>
  <unicode hex="00AD"/>
  <outline>
    <contour>
      <point x="128.5151515151515" y="480.1363636363636" type="line"/>
      <point x="656.5454545454545" y="480.1363636363636" type="line"/>
      <point x="656.5454545454545" y="647.7424242424242" type="line"/>
      <point x="128.5151515151515" y="647.7424242424242" type="line"/>
    </contour>
  </outline>
</glyph>
<glyph name="registered" format="2">
  <advance width="1459.2424242424242"/>
  <unicode hex="00AE"/>
  <outline>
    <contour>
      <point x="729.6212121212121" y="268.0" type="curve" smooth="yes"/>
      <point x="1091.621212121212" y="268.0"/>
      <point x="1339.621212121212" y="518.0"/>
      <point x="1339.621212121212" y="882.0" type="curve" smooth="yes"/>
      <point x="1339.621212121212" y="1246.0"/>
      <point x="1091.621212121212" y="1498.0"/>
      <point x="729.6212121212121" y="1498.0" type="curve" smooth="yes"/>
      <point x="367.6212121212121" y="1498.0"/>
      <point x="119.62121212121212" y="1246.0"/>
      <point x="119.62121212121212" y="882.0" type="curve" smooth="yes"/>
      <point x="119.62121212121212" y="518.0"/>
      <point x="367.6212121212121" y="268.0"/>
    </contour>
    <contour>
      <point x="879.2575757575758" y="600.0" type="line"/>
      <point x="997.0151515151515" y="600.0" type="line"/>
      <point x="830.469696969697" y="844.2424242424242" type="line"/>
      <point x="729.5" y="818.2424242424242" type="line"/>
    </contour>
    <contour>
      <point x="729.6212121212121" y="369.45454545454544" type="curve" smooth="yes"/>
      <point x="425.25757575757575" y="369.45454545454544"/>
      <point x="227.0151515151515" y="571.2727272727273"/>
      <point x="227.0151515151515" y="882.0" type="curve" smooth="yes"/>
      <point x="227.0151515151515" y="1193.5151515151515"/>
      <point x="425.25757575757575" y="1396.5454545454545"/>
      <point x="729.6212121212121" y="1396.5454545454545" type="curve" smooth="yes"/>
      <point x="1033.9848484848485" y="1396.5454545454545"/>
      <point x="1232.2272727272727" y="1193.5151515151515"/>
      <point x="1232.2272727272727" y="882.0" type="curve" smooth="yes"/>
      <point x="1232.2272727272727" y="571.2727272727273"/>
      <point x="1033.9848484848485" y="369.45454545454544"/>
    </contour>
    <contour>
      <point x="516.1060606060606" y="600.0" type="line"/>
      <point x="621.5" y="600.0" type="line"/>
      <point x="623.8636363636364" y="810.2424242424242" type="line"/>
      <point x="717.9848484848485" y="810.2424242424242" type="line" smooth="yes"/>
      <point x="887.0757575757576" y="810.2424242424242"/>
      <point x="969.8636363636364" y="875.4545454545455"/>
      <point x="969.8636363636364" y="1000.1212121212121" type="curve" smooth="yes"/>
      <point x="969.8636363636364" y="1124.7878787878788"/>
      <point x="885.0757575757576" y="1192.0"/>
      <point x="717.9848484848485" y="1192.0" type="curve" smooth="yes"/>
      <point x="516.1060606060606" y="1192.0" type="line"/>
    </contour>
    <contour>
      <point x="623.8636363636364" y="899.8181818181819" type="line"/>
      <point x="623.8636363636364" y="1102.4242424242425" type="line"/>
      <point x="735.5" y="1102.4242424242425" type="line" smooth="yes"/>
      <point x="822.2878787878788" y="1102.4242424242425"/>
      <point x="866.0454545454545" y="1068.7272727272727"/>
      <point x="866.0454545454545" y="1000.1212121212121" type="curve" smooth="yes"/>
      <point x="866.0454545454545" y="931.5151515151515"/>
      <point x="824.2878787878788" y="899.8181818181819"/>
      <point x="735.5" y="899.8181818181819" type="curve" smooth="yes"/>
    </contour>
  </outline>
</glyph>
<glyph name="macron" format="2">
  <advance width="1018.1818181818182"/>
  <unicode hex="00AF"/>
  <anchor x="509.0909090909091" y="1200.0" name="_top"/>
  <anchor x="509.0909090909091" y="1579.6363636363637" name="top"/>
  <outline>
    <contour>
      <point x="201.42424242424244" y="1355.1969696969697" type="line"/>
      <point x="816.7575757575758" y="1355.1969696969697" type="line"/>
      <point x="816.7575757575758" y="1487.9545454545455" type="line"/>
      <point x="201.42424242424244" y="1487.9545454545455" type="line"/>
    </contour>
  </outline>
</glyph>
<glyph name="degree" format="2">
  <advance width="943.6666666666666"/>
  <unicode hex="00B0"/>
  <outline>
    <contour>
      <point x="471.8333333333333" y="798.6666666666666" type="curve" smooth="yes"/>
      <point x="676.2272727272727" y="798.6666666666666"/>
      <point x="824.0454545454545" y="946.1212121212121"/>
      <point x="824.0454545454545" y="1148.5151515151515" type="curve" smooth="yes"/>
      <point x="824.0454545454545" y="1350.909090909091"/>
      <point x="676.2272727272727" y="1497.5757575757575"/>
      <point x="471.8333333333333" y="1497.5757575757575" type="curve" smooth="yes"/>
      <point x="267.43939393939394" y="1497.5757575757575"/>
      <point x="119.62121212121212" y="1350.909090909091"/>
      <point x="119.62121212121212" y="1148.5151515151515" type="curve" smooth="yes"/>
      <point x="119.62121212121212" y="946.1212121212121"/>
      <point x="267.43939393939394" y="798.6666666666666"/>
    </contour>
    <contour>
      <point x="471.8333333333333" y="928.6515151515151" type="curve" smooth="yes"/>
      <point x="347.9090909090909" y="928.6515151515151"/>
      <point x="258.030303030303" y="1013.3181818181819"/>
      <point x="258.030303030303" y="1148.5151515151515" type="curve" smooth="yes"/>
      <point x="258.030303030303" y="1283.909090909091"/>
      <point x="348.6969696969697" y="1367.590909090909"/>
      <point x="471.8333333333333" y="1367.590909090909" type="curve" smooth="yes"/>
      <point x="594.969696969697" y="1367.590909090909"/>
      <point x="685.6363636363636" y="1283.909090909091"/>
      <point x="685.6363636363636" y="1148.5151515151515" type="curve" smooth="yes"/>
      <point x="685.6363636363636" y="1013.3181818181819"/>
      <point x="595.7575757575758" y="928.6515151515151"/>
    </contour>
  </outline>
</glyph>
<glyph name="plusminus" format="2">
  <advance width="1053.5757575757575"/>
  <unicode hex="00B1"/>
  <outline>
    <contour>
      <point x="442.56060606060606" y="345.93939393939394" type="line"/>
      <point x="611.0151515151515" y="345.93939393939394" type="line"/>
      <point x="611.0151515151515" y="669.939393939394" type="line"/>
      <point x="925.060606060606" y="669.939393939394" type="line"/>
      <point x="925.060606060606" y="830.8484848484849" type="line"/>
      <point x="611.0151515151515" y="830.8484848484849" type="line"/>
      <point x="611.0151515151515" y="1154.8484848484848" type="line"/>
      <point x="442.56060606060606" y="1154.8484848484848" type="line"/>
      <point x="442.56060606060606" y="830.8484848484849" type="line"/>
      <point x="128.5151515151515" y="830.8484848484849" type="line"/>
      <point x="128.5151515151515" y="669.939393939394" type="line"/>
      <point x="442.56060606060606" y="669.939393939394" type="line"/>
    </contour>
    <contour>
      <point x="128.5151515151515" y="0.5909090909090908" type="line"/>
      <point x="925.060606060606" y="0.5909090909090908" type="line"/>
      <point x="925.060606060606" y="161.5" type="line"/>
      <point x="128.5151515151515" y="161.5" type="line"/>
    </contour>
  </outline>
</glyph>
<glyph name="twosuperior" format="2">
  <advance width="771.8181818181819"/>
  <unicode hex="00B2"/>
  <outline>
    <contour>
      <point x="87.87878787878788" y="-136.0" type="line"/>
      <point x="681.8333333333334" y="-136.0" type="line"/>
      <point x="681.8333333333334" y="4.196969696969688" type="line"/>
      <point x="265.5909090909091" y="4.196969696969688" type="line"/>
      <point x="274.24242424242425" y="-37.77272727272727" type="line"/>
      <point x="498.8636363636364" y="266.0" type="line" smooth="yes"/>
      <point x="601.6363636363636" y="403.42424242424244"/>
      <point x="641.7575757575758" y="497.8030303030303"/>
      <point x="642.6666666666666" y="599.7424242424242" type="curve" smooth="yes"/>
      <point x="643.5757575757575" y="795.2878787878788"/>
      <point x="518.030303030303" y="876.7878787878788"/>
      <point x="304.7878787878788" y="876.7878787878788" type="curve" smooth="yes"/>
      <point x="221.54545454545456" y="876.7878787878788"/>
      <point x="134.8181818181818" y="863.6969696969697"/>
      <point x="75.28787878787878" y="840.3787878787879" type="curve"/>
      <point x="75.28787878787878" y="703.1060606060606" type="line"/>
      <point x="136.03030303030303" y="727.2424242424242"/>
      <point x="208.12121212121212" y="740.7272727272727"/>
      <point x="282.3787878787879" y="740.7272727272727" type="curve" smooth="yes"/>
      <point x="416.0151515151515" y="740.7272727272727"/>
      <point x="478.57575757575756" y="694.6060606060606"/>
      <point x="478.57575757575756" y="586.1060606060606" type="curve" smooth="yes"/>
      <point x="478.57575757575756" y="511.06060606060606"/>
      <point x="442.2121212121212" y="435.3030303030303"/>
      <point x="355.6818181818182" y="317.93939393939394" type="curve" smooth="yes"/>
      <point x="87.87878787878788" y="-45.87878787878788" type="line"/>
    </contour>
  </outline>
</glyph>
<glyph name="threesuperior" format="2">
  <advance width="771.8181818181819"/>
  <unicode hex="00B3"/>
  <outline>
    <contour>
      <point x="312.8030303030303" y="-148.78787878787878" type="curve" smooth="yes"/>
      <point x="555.4090909090909" y="-148.78787878787878"/>
      <point x="689.0151515151515" y="-45.65151515151515"/>
      <point x="689.0151515151515" y="135.37878787878788" type="curve" smooth="yes"/>
      <point x="689.0151515151515" y="276.1818181818182"/>
      <point x="606.3787878787879" y="366.06060606060606"/>
      <point x="451.3484848484849" y="388.3636363636364" type="curve"/>
      <point x="451.3484848484849" y="376.0151515151515" type="line"/>
      <point x="579.969696969697" y="403.6515151515151"/>
      <point x="657.0" y="492.8939393939394"/>
      <point x="657.0" y="617.969696969697" type="curve" smooth="yes"/>
      <point x="657.0" y="784.060606060606"/>
      <point x="540.7878787878788" y="876.7878787878788"/>
      <point x="319.57575757575756" y="876.7878787878788" type="curve" smooth="yes"/>
      <point x="239.66666666666666" y="876.7878787878788"/>
      <point x="148.63636363636363" y="863.6060606060606"/>
      <point x="89.0" y="840.9848484848485" type="curve"/>
      <point x="89.0" y="710.6060606060606" type="line"/>
      <point x="153.63636363636363" y="736.030303030303"/>
      <point x="229.1060606060606" y="748.3181818181818"/>
      <point x="300.92424242424244" y="748.3181818181818" type="curve" smooth="yes"/>
      <point x="434.8030303030303" y="748.3181818181818"/>
      <point x="498.8484848484849" y="699.5"/>
      <point x="498.8484848484849" y="603.2575757575758" type="curve" smooth="yes"/>
      <point x="498.8484848484849" y="502.8181818181818"/>
      <point x="424.3030303030303" y="441.8030303030303"/>
      <point x="271.6818181818182" y="441.8030303030303" type="curve" smooth="yes"/>
      <point x="179.66666666666666" y="441.8030303030303" type="line"/>
      <point x="179.66666666666666" y="310.45454545454544" type="line"/>
      <point x="307.8636363636364" y="310.45454545454544" type="line" smooth="yes"/>
      <point x="464.25757575757575" y="310.45454545454544"/>
      <point x="531.8484848484849" y="249.71212121212122"/>
      <point x="531.8484848484849" y="145.56060606060606" type="curve" smooth="yes"/>
      <point x="531.8484848484849" y="35.65151515151515"/>
      <point x="456.6060606060606" y="-20.121212121212125"/>
      <point x="306.4848484848485" y="-20.121212121212125" type="curve" smooth="yes"/>
      <point x="233.5909090909091" y="-20.121212121212125"/>
      <point x="147.1969696969697" y="-8.212121212121218"/>
      <point x="71.62121212121212" y="16.13636363636364" type="curve"/>
      <point x="71.62121212121212" y="-114.24242424242425" type="line"/>
      <point x="146.13636363636363" y="-137.07575757575756"/>
      <point x="228.95454545454544" y="-148.78787878787878"/>
    </contour>
  </outline>
</glyph>
<glyph name="acute" format="2">
  <advance width="1018.1818181818182"/>
  <unicode hex="00B4"/>
  <anchor x="509.0909090909091" y="1200.0" name="_top"/>
  <anchor x="509.0909090909091" y="1595.3939393939395" name="top"/>
  <outline>
    <contour>
      <point x="419.6060606060606" y="1246.6666666666667" type="line"/>
      <point x="598.5757575757575" y="1246.6666666666667" type="line"/>
      <point x="824.469696969697" y="1616.0" type="line"/>
      <point x="614.3484848484849" y="1616.0" type="line"/>
    </contour>
  </outline>
</glyph>
<glyph name="paragraph" format="2">
  <advance width="1188.530303030303"/>
  <unicode hex="00B6"/>
  <outline>
    <contour>
      <point x="612.969696969697" y="0.0" type="line"/>
      <point x="764.6818181818182" y="0.0" type="line"/>
      <point x="764.6818181818182" y="1480.0" type="line"/>
      <point x="690.6060606060606" y="1489.7727272727273"/>
      <point x="602.4090909090909" y="1496.3636363636363"/>
      <point x="513.8333333333334" y="1496.3636363636363" type="curve" smooth="yes"/>
      <point x="220.04545454545456" y="1496.3636363636363"/>
      <point x="79.15151515151516" y="1336.969696969697"/>
      <point x="79.15151515151516" y="981.8636363636364" type="curve" smooth="yes"/>
      <point x="79.15151515151516" y="646.3484848484849"/>
      <point x="216.62121212121212" y="468.56060606060606"/>
      <point x="504.7121212121212" y="468.56060606060606" type="curve" smooth="yes"/>
      <point x="544.7727272727273" y="468.56060606060606"/>
      <point x="575.2121212121212" y="470.27272727272725"/>
      <point x="612.969696969697" y="473.6060606060606" type="curve"/>
    </contour>
    <contour>
      <point x="890.7424242424242" y="0.0" type="line"/>
      <point x="1042.4545454545455" y="0.0" type="line"/>
      <point x="1042.4545454545455" y="1480.0" type="line"/>
      <point x="890.7424242424242" y="1480.0" type="line"/>
    </contour>
  </outline>
</glyph>
<glyph name="onesuperior" format="2">
  <advance width="771.8181818181819"/>
  <unicode hex="00B9"/>
  <outline>
    <contour>
      <point x="343.06060606060606" y="-114.03030303030303" type="line"/>
      <point x="507.3181818181818" y="-114.03030303030303" type="line"/>
      <point x="507.3181818181818" y="868.0" type="line"/>
      <point x="404.0" y="868.0" type="line"/>
      <point x="135.6060606060606" y="682.3939393939394" type="line"/>
      <point x="135.6060606060606" y="530.0454545454545" type="line"/>
      <point x="404.0" y="715.6515151515151" type="line"/>
      <point x="343.06060606060606" y="760.8030303030303" type="line"/>
    </contour>
    <contour>
      <point x="136.0151515151515" y="-136.0" type="line"/>
      <point x="703.9545454545455" y="-136.0" type="line"/>
      <point x="703.9545454545455" y="4.196969696969688" type="line"/>
      <point x="136.0151515151515" y="4.196969696969688" type="line"/>
    </contour>
  </outline>
</glyph>
<glyph name="ordmasculine" format="2">
  <advance width="887.5757575757576"/>
  <unicode hex="00BA"/>
  <outline>
    <contour>
      <point x="443.9848484848485" y="594.4242424242424" type="curve" smooth="yes"/>
      <point x="683.0909090909091" y="594.4242424242424"/>
      <point x="830.030303030303" y="739.9545454545455"/>
      <point x="830.030303030303" y="1045.8030303030303" type="curve" smooth="yes"/>
      <point x="830.030303030303" y="1351.6515151515152"/>
      <point x="683.0909090909091" y="1495.939393939394"/>
      <point x="443.9848484848485" y="1495.939393939394" type="curve" smooth="yes"/>
      <point x="204.87878787878788" y="1495.939393939394"/>
      <point x="57.54545454545455" y="1354.6060606060605"/>
      <point x="57.54545454545455" y="1045.8030303030303" type="curve" smooth="yes"/>
      <point x="57.54545454545455" y="737.0"/>
      <point x="204.87878787878788" y="594.4242424242424"/>
    </contour>
    <contour>
      <point x="443.9848484848485" y="738.2727272727273" type="curve" smooth="yes"/>
      <point x="325.0" y="738.2727272727273"/>
      <point x="246.4848484848485" y="806.1666666666666"/>
      <point x="246.4848484848485" y="1045.8030303030303" type="curve" smooth="yes"/>
      <point x="246.4848484848485" y="1286.030303030303"/>
      <point x="325.0" y="1352.090909090909"/>
      <point x="443.9848484848485" y="1352.090909090909" type="curve" smooth="yes"/>
      <point x="563.3636363636364" y="1352.090909090909"/>
      <point x="641.0909090909091" y="1286.030303030303"/>
      <point x="641.0909090909091" y="1045.8030303030303" type="curve" smooth="yes"/>
      <point x="641.0909090909091" y="806.1666666666666"/>
      <point x="563.3636363636364" y="738.2727272727273"/>
    </contour>
  </outline>
</glyph>
<glyph name="guillemetright" format="2">
  <advance width="983.5757575757575"/>
  <unicode hex="00BB"/>
  <outline>
    <contour>
      <point x="56.93939393939394" y="136.06060606060606" type="line"/>
      <point x="259.5151515151515" y="136.06060606060606" type="line"/>
      <point x="481.9090909090909" y="563.939393939394" type="line"/>
      <point x="259.5151515151515" y="991.8181818181819" type="line"/>
      <point x="56.93939393939394" y="991.8181818181819" type="line"/>
      <point x="279.3333333333333" y="563.939393939394" type="line"/>
    </contour>
    <contour>
      <point x="461.66666666666663" y="136.06060606060606" type="line"/>
      <point x="664.2424242424242" y="136.06060606060606" type="line"/>
      <point x="886.6363636363636" y="563.939393939394" type="line"/>
      <point x="664.2424242424242" y="991.8181818181819" type="line"/>
      <point x="461.66666666666663" y="991.8181818181819" type="line"/>
      <point x="684.060606060606" y="563.939393939394" type="line"/>
    </contour>
  </outline>
</glyph>
<glyph name="onequarter" format="2">
  <advance width="1820.0151515151515"/>
  <unicode hex="00BC"/>
  <outline>
    <contour>
      <point x="343.06060606060606" y="637.969696969697" type="line"/>
      <point x="507.3181818181818" y="637.969696969697" type="line"/>
      <point x="507.3181818181818" y="1620.0" type="line"/>
      <point x="404.0" y="1620.0" type="line"/>
      <point x="135.6060606060606" y="1434.3939393939395" type="line"/>
      <point x="135.6060606060606" y="1282.0454545454545" type="line"/>
      <point x="404.0" y="1467.6515151515152" type="line"/>
      <point x="343.06060606060606" y="1512.8030303030303" type="line"/>
    </contour>
    <contour>
      <point x="136.0151515151515" y="616.0" type="line"/>
      <point x="703.9545454545455" y="616.0" type="line"/>
      <point x="703.9545454545455" y="756.1969696969697" type="line"/>
      <point x="136.0151515151515" y="756.1969696969697" type="line"/>
    </contour>
    <contour>
      <point x="444.6212121212121" y="-136.0" type="line"/>
      <point x="615.6060606060606" y="-136.0" type="line"/>
      <point x="1375.3939393939395" y="1616.0" type="line"/>
      <point x="1204.409090909091" y="1616.0" type="line"/>
    </contour>
    <contour>
      <point x="1077.560606060606" y="87.04545454545455" type="line"/>
      <point x="1794.2727272727273" y="87.04545454545455" type="line"/>
      <point x="1794.2727272727273" y="215.98484848484847" type="line"/>
      <point x="1216.651515151515" y="215.98484848484847" type="line"/>
      <point x="1236.9545454545455" y="178.34848484848484" type="line"/>
      <point x="1565.1363636363635" y="864.0" type="line"/>
      <point x="1408.1060606060605" y="864.0" type="line"/>
      <point x="1077.560606060606" y="178.65151515151516" type="line"/>
    </contour>
    <contour>
      <point x="1521.7727272727273" y="-136.0" type="line"/>
      <point x="1667.6818181818182" y="-136.0" type="line"/>
      <point x="1667.6818181818182" y="526.0" type="line"/>
      <point x="1554.060606060606" y="526.0" type="line"/>
      <point x="1521.7727272727273" y="215.98484848484847" type="line"/>
    </contour>
  </outline>
</glyph>
<glyph name="onehalf" format="2">
  <advance width="1820.0151515151515"/>
  <unicode hex="00BD"/>
  <outline>
    <contour>
      <point x="343.06060606060606" y="637.969696969697" type="line"/>
      <point x="507.3181818181818" y="637.969696969697" type="line"/>
      <point x="507.3181818181818" y="1620.0" type="line"/>
      <point x="404.0" y="1620.0" type="line"/>
      <point x="135.6060606060606" y="1434.3939393939395" type="line"/>
      <point x="135.6060606060606" y="1282.0454545454545" type="line"/>
      <point x="404.0" y="1467.6515151515152" type="line"/>
      <point x="343.06060606060606" y="1512.8030303030303" type="line"/>
    </contour>
    <contour>
      <point x="136.0151515151515" y="616.0" type="line"/>
      <point x="703.9545454545455" y="616.0" type="line"/>
      <point x="703.9545454545455" y="756.1969696969697" type="line"/>
      <point x="136.0151515151515" y="756.1969696969697" type="line"/>
    </contour>
    <contour>
      <point x="444.6212121212121" y="-136.0" type="line"/>
      <point x="615.6060606060606" y="-136.0" type="line"/>
      <point x="1375.3939393939395" y="1616.0" type="line"/>
      <point x="1204.409090909091" y="1616.0" type="line"/>
    </contour>
    <contour>
      <point x="1136.0757575757575" y="-136.0" type="line"/>
      <point x="1730.030303030303" y="-136.0" type="line"/>
      <point x="1730.030303030303" y="4.196969696969688" type="line"/>
      <point x="1313.7878787878788" y="4.196969696969688" type="line"/>
      <point x="1322.439393939394" y="-37.77272727272727" type="line"/>
      <point x="1547.060606060606" y="266.0" type="line" smooth="yes"/>
      <point x="1649.8333333333333" y="403.42424242424244"/>
      <point x="1689.9545454545455" y="497.8030303030303"/>
      <point x="1690.8636363636365" y="599.7424242424242" type="curve" smooth="yes"/>
      <point x="1691.7727272727273" y="795.2878787878788"/>
      <point x="1566.2272727272727" y="876.7878787878788"/>
      <point x="1352.9848484848485" y="876.7878787878788" type="curve" smooth="yes"/>
      <point x="1269.7424242424242" y="876.7878787878788"/>
      <point x="1183.0151515151515" y="863.6969696969697"/>
      <point x="1123.4848484848485" y="840.3787878787879" type="curve"/>
      <point x="1123.4848484848485" y="703.1060606060606" type="line"/>
      <point x="1184.2272727272727" y="727.2424242424242"/>
      <point x="1256.3181818181818" y="740.7272727272727"/>
      <point x="1330.5757575757575" y="740.7272727272727" type="curve" smooth="yes"/>
      <point x="1464.2121212121212" y="740.7272727272727"/>
      <point x="1526.7727272727273" y="694.6060606060606"/>
      <point x="1526.7727272727273" y="586.1060606060606" type="curve" smooth="yes"/>
      <point x="1526.7727272727273" y="511.06060606060606"/>
      <point x="1490.409090909091" y="435.3030303030303"/>
      <point x="1403.8787878787878" y="317.93939393939394" type="curve" smooth="yes"/>
      <point x="1136.0757575757575" y="-45.87878787878788" type="line"/>
    </contour>
  </outline>
</glyph>
<glyph name="threequarters" format="2">
  <advance width="1820.0151515151515"/>
  <unicode hex="00BE"/>
  <outline>
    <contour>
      <point x="312.8030303030303" y="603.2121212121212" type="curve" smooth="yes"/>
      <point x="555.4090909090909" y="603.2121212121212"/>
      <point x="689.0151515151515" y="706.3484848484849"/>
      <point x="689.0151515151515" y="887.3787878787879" type="curve" smooth="yes"/>
      <point x="689.0151515151515" y="1028.1818181818182"/>
      <point x="606.3787878787879" y="1118.060606060606"/>
      <point x="451.3484848484849" y="1140.3636363636363" type="curve"/>
      <point x="451.3484848484849" y="1128.0151515151515" type="line"/>
      <point x="579.969696969697" y="1155.6515151515152"/>
      <point x="657.0" y="1244.8939393939395"/>
      <point x="657.0" y="1369.969696969697" type="curve" smooth="yes"/>
      <point x="657.0" y="1536.060606060606"/>
      <point x="540.7878787878788" y="1628.7878787878788"/>
      <point x="319.57575757575756" y="1628.7878787878788" type="curve" smooth="yes"/>
      <point x="239.66666666666666" y="1628.7878787878788"/>
      <point x="148.63636363636363" y="1615.6060606060605"/>
      <point x="89.0" y="1592.9848484848485" type="curve"/>
      <point x="89.0" y="1462.6060606060605" type="line"/>
      <point x="153.63636363636363" y="1488.030303030303"/>
      <point x="229.1060606060606" y="1500.3181818181818"/>
      <point x="300.92424242424244" y="1500.3181818181818" type="curve" smooth="yes"/>
      <point x="434.8030303030303" y="1500.3181818181818"/>
      <point x="498.8484848484849" y="1451.5"/>
      <point x="498.8484848484849" y="1355.2575757575758" type="curve" smooth="yes"/>
      <point x="498.8484848484849" y="1254.8181818181818"/>
      <point x="424.3030303030303" y="1193.8030303030303"/>
      <point x="271.6818181818182" y="1193.8030303030303" type="curve" smooth="yes"/>
      <point x="179.66666666666666" y="1193.8030303030303" type="line"/>
      <point x="179.66666666666666" y="1062.4545454545455" type="line"/>
      <point x="307.8636363636364" y="1062.4545454545455" type="line" smooth="yes"/>
      <point x="464.25757575757575" y="1062.4545454545455"/>
      <point x="531.8484848484849" y="1001.7121212121212"/>
      <point x="531.8484848484849" y="897.560606060606" type="curve" smooth="yes"/>
      <point x="531.8484848484849" y="787.6515151515151"/>
      <point x="456.6060606060606" y="731.8787878787879"/>
      <point x="306.4848484848485" y="731.8787878787879" type="curve" smooth="yes"/>
      <point x="233.5909090909091" y="731.8787878787879"/>
      <point x="147.1969696969697" y="743.7878787878788"/>
      <point x="71.62121212121212" y="768.1363636363636" type="curve"/>
      <point x="71.62121212121212" y="637.7575757575758" type="line"/>
      <point x="146.13636363636363" y="614.9242424242424"/>
      <point x="228.95454545454544" y="603.2121212121212"/>
    </contour>
    <contour>
      <point x="444.6212121212121" y="-136.0" type="line"/>
      <point x="615.6060606060606" y="-136.0" type="line"/>
      <point x="1375.3939393939395" y="1616.0" type="line"/>
      <point x="1204.409090909091" y="1616.0" type="line"/>
    </contour>
    <contour>
      <point x="1077.560606060606" y="87.04545454545455" type="line"/>
      <point x="1794.2727272727273" y="87.04545454545455" type="line"/>
      <point x="1794.2727272727273" y="215.98484848484847" type="line"/>
      <point x="1216.651515151515" y="215.98484848484847" type="line"/>
      <point x="1236.9545454545455" y="178.34848484848484" type="line"/>
      <point x="1565.1363636363635" y="864.0" type="line"/>
      <point x="1408.1060606060605" y="864.0" type="line"/>
      <point x="1077.560606060606" y="178.65151515151516" type="line"/>
    </contour>
    <contour>
      <point x="1521.7727272727273" y="-136.0" type="line"/>
      <point x="1667.6818181818182" y="-136.0" type="line"/>
      <point x="1667.6818181818182" y="526.0" type="line"/>
      <point x="1554.060606060606" y="526.0" type="line"/>
      <point x="1521.7727272727273" y="215.98484848484847" type="line"/>
    </contour>
  </outline>
</glyph>
<glyph name="questiondown" format="2">
  <advance width="875.2424242424242"/>
  <unicode hex="00BF"/>
  <outline>
    <contour>
      <point x="552.4848484848485" y="696.4848484848485" type="line"/>
      <point x="426.2878787878788" y="696.4848484848485" type="line"/>
      <point x="408.6060606060606" y="400.74242424242425" type="line"/>
      <point x="160.4090909090909" y="306.0909090909091"/>
      <point x="52.348484848484844" y="176.66666666666666"/>
      <point x="52.348484848484844" y="-26.63636363636364" type="curve" smooth="yes"/>
      <point x="52.348484848484844" y="-263.59090909090907"/>
      <point x="213.3939393939394" y="-400.0"/>
      <point x="519.6363636363636" y="-400.0" type="curve" smooth="yes"/>
      <point x="631.6212121212121" y="-400.0"/>
      <point x="757.5757575757575" y="-379.7121212121212"/>
      <point x="842.6969696969697" y="-346.59090909090907" type="curve"/>
      <point x="842.6969696969697" y="-181.0909090909091" type="line"/>
      <point x="749.060606060606" y="-217.03030303030303"/>
      <point x="645.3181818181818" y="-235.3181818181818"/>
      <point x="541.2121212121212" y="-235.3181818181818" type="curve" smooth="yes"/>
      <point x="344.6212121212121" y="-235.3181818181818"/>
      <point x="249.78787878787878" y="-157.37878787878788"/>
      <point x="249.78787878787878" y="-10.696969696969703" type="curve" smooth="yes"/>
      <point x="249.78787878787878" y="131.1818181818182"/>
      <point x="328.8484848484849" y="223.63636363636363"/>
      <point x="587.1363636363636" y="300.71212121212125" type="curve"/>
    </contour>
    <contour>
      <point x="489.2878787878788" y="1101.8181818181818" type="curve" smooth="yes"/>
      <point x="405.7878787878788" y="1101.8181818181818"/>
      <point x="350.469696969697" y="1048.439393939394"/>
      <point x="350.469696969697" y="971.2727272727273" type="curve" smooth="yes"/>
      <point x="350.469696969697" y="892.8939393939394"/>
      <point x="405.42424242424244" y="839.5151515151515"/>
      <point x="489.2878787878788" y="839.5151515151515" type="curve" smooth="yes"/>
      <point x="573.1515151515151" y="839.5151515151515"/>
      <point x="628.1060606060606" y="891.3181818181818"/>
      <point x="628.1060606060606" y="971.2727272727273" type="curve" smooth="yes"/>
      <point x="628.1060606060606" y="1050.0151515151515"/>
      <point x="571.5757575757576" y="1101.8181818181818"/>
    </contour>
  </outline>
</glyph>
<glyph name="Agrave" format="2">
  <advance width="1289.5454545454545"/>
  <unicode hex="00C0"/>
  <anchor x="645.1818181818182" y="1520.0" name="_top"/>
  <anchor x="645.3787878787879" y="0.0" name="bottom"/>
  <anchor x="1271.2424242424242" y="0.0" name="ogonek"/>
  <anchor x="645.1818181818182" y="1520.0" name="top"/>
  <outline>
    <contour>
      <point x="18.303030303030305" y="0.0" type="line"/>
      <point x="219.8181818181818" y="0.0" type="line"/>
      <point x="657.3484848484849" y="1385.0454545454545" type="line"/>
      <point x="628.2272727272727" y="1385.0454545454545" type="line"/>
      <point x="1066.939393939394" y="0.0" type="line"/>
      <point x="1271.2424242424242" y="0.0" type="line"/>
      <point x="791.5757575757575" y="1480.0" type="line"/>
      <point x="497.969696969697" y="1480.0" type="line"/>
    </contour>
    <contour>
      <point x="282.530303030303" y="454.530303030303" type="line"/>
      <point x="1006.030303030303" y="454.530303030303" type="line"/>
      <point x="962.0" y="626.5" type="line"/>
      <point x="326.75757575757575" y="626.5" type="line"/>
    </contour>
    <contour>
      <point x="555.5" y="1604.1818181818182" type="line"/>
      <point x="734.8636363636364" y="1604.1818181818182" type="line"/>
      <point x="575.0909090909091" y="1893.5151515151515" type="line"/>
      <point x="363.09090909090907" y="1893.5151515151515" type="line"/>
    </contour>
  </outline>
</glyph>
<glyph name="Atilde" format="2">
  <advance width="1289.5454545454545"/>
  <unicode hex="00C3"/>
  <anchor x="645.1818181818182" y="1520.0" name="_top"/>
  <anchor x="645.3787878787879" y="0.0" name="bottom"/>
  <anchor x="1271.2424242424242" y="0.0" name="ogonek"/>
  <anchor x="645.1818181818182" y="1520.0" name="top"/>
  <outline>
    <contour>
      <point x="18.303030303030305" y="0.0" type="line"/>
      <point x="219.8181818181818" y="0.0" type="line"/>
      <point x="657.3484848484849" y="1385.0454545454545" type="line"/>
      <point x="628.2272727272727" y="1385.0454545454545" type="line"/>
      <point x="1066.939393939394" y="0.0" type="line"/>
      <point x="1271.2424242424242" y="0.0" type="line"/>
      <point x="791.5757575757575" y="1480.0" type="line"/>
      <point x="497.969696969697" y="1480.0" type="line"/>
    </contour>
    <contour>
      <point x="282.530303030303" y="454.530303030303" type="line"/>
      <point x="1006.030303030303" y="454.530303030303" type="line"/>
      <point x="962.0" y="626.5" type="line"/>
      <point x="326.75757575757575" y="626.5" type="line"/>
    </contour>
    <contour>
      <point x="797.3333333333334" y="1652.969696969697" type="curve" smooth="yes"/>
      <point x="873.6363636363636" y="1652.969696969697"/>
      <point x="927.8484848484849" y="1675.5757575757575"/>
      <point x="970.0" y="1719.9848484848485" type="curve"/>
      <point x="970.0" y="1852.2727272727273" type="line"/>
      <point x="919.6515151515151" y="1804.0757575757575"/>
      <point x="870.7424242424242" y="1780.1818181818182"/>
      <point x="799.6969696969697" y="1780.1818181818182" type="curve" smooth="yes"/>
      <point x="699.1060606060606" y="1780.1818181818182"/>
      <point x="613.8030303030303" y="1858.3636363636363"/>
      <point x="493.030303030303" y="1858.3636363636363" type="curve" smooth="yes"/>
      <point x="416.72727272727275" y="1858.3636363636363"/>
      <point x="362.5151515151515" y="1834.969696969697"/>
      <point x="320.3636363636364" y="1790.560606060606" type="curve"/>
      <point x="320.3636363636364" y="1658.2727272727273" type="line"/>
      <point x="370.7121212121212" y="1706.469696969697"/>
      <point x="419.6212121212121" y="1730.3636363636363"/>
      <point x="490.6666666666667" y="1730.3636363636363" type="curve" smooth="yes"/>
      <point x="591.2575757575758" y="1730.3636363636363"/>
      <point x="676.560606060606" y="1652.969696969697"/>
    </contour>
  </outline>
</glyph>
<glyph name="Adieresis" format="2">
  <advance width="1289.5454545454545"/>
  <unicode hex="00C4"/>
  <anchor x="645.1818181818182" y="1520.0" name="_top"/>
  <anchor x="645.3787878787879" y="0.0" name="bottom"/>
  <anchor x="1271.2424242424242" y="0.0" name="ogonek"/>
  <anchor x="645.1818181818182" y="1520.0" name="top"/>
  <outline>
    <contour>
      <point x="18.303030303030305" y="0.0" type="line"/>
      <point x="219.8181818181818" y="0.0" type="line"/>
      <point x="657.3484848484849" y="1385.0454545454545" type="line"/>
      <point x="628.2272727272727" y="1385.0454545454545" type="line"/>
      <point x="1066.939393939394" y="0.0" type="line"/>
      <point x="1271.2424242424242" y="0.0" type="line"/>
      <point x="791.5757575757575" y="1480.0" type="line"/>
      <point x="497.969696969697" y="1480.0" type="line"/>
    </contour>
    <contour>
      <point x="282.530303030303" y="454.530303030303" type="line"/>
      <point x="1006.030303030303" y="454.530303030303" type="line"/>
      <point x="962.0" y="626.5" type="line"/>
      <point x="326.75757575757575" y="626.5" type="line"/>
    </contour>
    <contour>
      <point x="869.4090909090909" y="1642.7272727272727" type="curve" smooth="yes"/>
      <point x="945.9848484848485" y="1642.7272727272727"/>
      <point x="990.8939393939394" y="1682.878787878788"/>
      <point x="990.8939393939394" y="1751.2121212121212" type="curve" smooth="yes"/>
      <point x="990.8939393939394" y="1819.5454545454545"/>
      <point x="945.9848484848485" y="1860.909090909091"/>
      <point x="869.4090909090909" y="1860.909090909091" type="curve" smooth="yes"/>
      <point x="792.8333333333334" y="1860.909090909091"/>
      <point x="747.9242424242424" y="1819.5454545454545"/>
      <point x="747.9242424242424" y="1751.2121212121212" type="curve" smooth="yes"/>
      <point x="747.9242424242424" y="1682.878787878788"/>
      <point x="792.8333333333334" y="1642.7272727272727"/>
    </contour>
    <contour>
      <point x="420.95454545454544" y="1642.7272727272727" type="curve" smooth="yes"/>
      <point x="497.530303030303" y="1642.7272727272727"/>
      <point x="542.439393939394" y="1682.878787878788"/>
      <point x="542.439393939394" y="1751.2121212121212" type="curve" smooth="yes"/>
      <point x="542.439393939394" y="1819.5454545454545"/>
      <point x="497.530303030303" y="1860.909090909091"/>
      <point x="420.95454545454544" y="1860.909090909091" type="curve" smooth="yes"/>
      <point x="344.3787878787879" y="1860.909090909091"/>
      <point x="299.469696969697" y="1819.5454545454545"/>
      <point x="299.469696969697" y="1751.2121212121212" type="curve" smooth="yes"/>
      <point x="299.469696969697" y="1682.878787878788"/>
      <point x="344.3787878787879" y="1642.7272727272727"/>
    </contour>
  </outline>
</glyph>
<glyph name="Aring" format="2">
  <advance width="1289.5454545454545"/>
  <unicode hex="00C5"/>
  <anchor x="647.3030303030303" y="1410.909090909091" name="_top"/>
  <anchor x="645.3787878787879" y="0.0" name="bottom"/>
  <anchor x="1271.2424242424242" y="0.0" name="ogonek"/>
  <anchor x="645.1818181818182" y="1520.0" name="top"/>
  <outline>
    <contour>
      <point x="18.303030303030305" y="0.0" type="line"/>
      <point x="219.8181818181818" y="0.0" type="line"/>
      <point x="657.3484848484849" y="1385.0454545454545" type="line"/>
      <point x="628.2272727272727" y="1385.0454545454545" type="line"/>
      <point x="1066.939393939394" y="0.0" type="line"/>
      <point x="1271.2424242424242" y="0.0" type="line"/>
      <point x="791.5757575757575" y="1480.0" type="line"/>
      <point x="497.969696969697" y="1480.0" type="line"/>
    </contour>
    <contour>
      <point x="282.530303030303" y="454.530303030303" type="line"/>
      <point x="1006.030303030303" y="454.530303030303" type="line"/>
      <point x="962.0" y="626.5" type="line"/>
      <point x="326.75757575757575" y="626.5" type="line"/>
    </contour>
    <contour>
      <point x="647.3030303030303" y="1485.4545454545455" type="curve" smooth="yes"/>
      <point x="763.5454545454545" y="1485.4545454545455"/>
      <point x="848.6363636363636" y="1568.969696969697"/>
      <point x="848.6363636363636" y="1683.6363636363635" type="curve" smooth="yes"/>
      <point x="848.6363636363636" y="1798.3030303030303"/>
      <point x="763.5454545454545" y="1881.8181818181818"/>
      <point x="647.3030303030303" y="1881.8181818181818" type="curve" smooth="yes"/>
      <point x="531.060606060606" y="1881.8181818181818"/>
      <point x="445.969696969697" y="1798.3030303030303"/>
      <point x="445.969696969697" y="1683.6363636363635" type="curve" smooth="yes"/>
      <point x="445.969696969697" y="1568.969696969697"/>
      <point x="531.060606060606" y="1485.4545454545455"/>
    </contour>
    <contour>
      <point x="647.3030303030303" y="1571.3333333333333" type="curve" smooth="yes"/>
      <point x="583.1212121212121" y="1571.3333333333333"/>
      <point x="537.7878787878788" y="1614.2424242424242"/>
      <point x="537.7878787878788" y="1683.6363636363635" type="curve" smooth="yes"/>
      <point x="537.7878787878788" y="1753.030303030303"/>
      <point x="583.1212121212121" y="1795.939393939394"/>
      <point x="647.3030303030303" y="1795.939393939394" type="curve" smooth="yes"/>
      <point x="711.4848484848485" y="1795.939393939394"/>
      <point x="756.8181818181819" y="1753.030303030303"/>
      <point x="756.8181818181819" y="1683.6363636363635" type="curve" smooth="yes"/>
      <point x="756.8181818181819" y="1614.2424242424242"/>
      <point x="711.4848484848485" y="1571.3333333333333"/>
    </contour>
  </outline>
</glyph>
<glyph name="Ccedilla" format="2">
  <advance width="1087.590909090909"/>
  <unicode hex="00C7"/>
  <anchor x="679.939393939394" y="0.0" name="_bottom"/>
  <anchor x="679.939393939394" y="0.0" name="bottom"/>
  <anchor x="672.3636363636364" y="1520.0" name="top"/>
  <outline>
    <contour>
      <point x="743.7424242424242" y="-18.78787878787879" type="curve" smooth="yes"/>
      <point x="857.3787878787879" y="-18.78787878787879"/>
      <point x="966.7575757575758" y="1.1363636363636367"/>
      <point x="1054.090909090909" y="32.06060606060606" type="curve"/>
      <point x="1054.090909090909" y="207.2121212121212" type="line"/>
      <point x="949.060606060606" y="172.72727272727272"/>
      <point x="858.5757575757575" y="156.13636363636363"/>
      <point x="763.2272727272727" y="156.13636363636363" type="curve" smooth="yes"/>
      <point x="469.43939393939394" y="156.13636363636363"/>
      <point x="303.5" y="293.92424242424244"/>
      <point x="303.5" y="741.2121212121212" type="curve" smooth="yes"/>
      <point x="303.5" y="1174.939393939394"/>
      <point x="466.3484848484849" y="1323.8636363636365"/>
      <point x="770.9545454545455" y="1323.8636363636365" type="curve" smooth="yes"/>
      <point x="867.8030303030303" y="1323.8636363636365"/>
      <point x="958.3484848484849" y="1312.6666666666667"/>
      <point x="1054.090909090909" y="1285.2575757575758" type="curve"/>
      <point x="1054.090909090909" y="1460.409090909091" type="line"/>
      <point x="960.469696969697" y="1485.7575757575758"/>
      <point x="861.6969696969697" y="1498.7878787878788"/>
      <point x="760.3181818181818" y="1498.7878787878788" type="curve" smooth="yes"/>
      <point x="337.6666666666667" y="1498.7878787878788"/>
      <point x="89.68181818181819" y="1274.3333333333333"/>
      <point x="89.68181818181819" y="737.2121212121212" type="curve" smooth="yes"/>
      <point x="89.68181818181819" y="183.54545454545453"/>
      <point x="338.3787878787879" y="-18.78787878787879"/>
    </contour>
    <contour>
      <point x="667.3181818181819" y="-423.6363636363636" type="curve" smooth="yes"/>
      <point x="817.469696969697" y="-423.6363636363636"/>
      <point x="897.3030303030303" y="-363.2121212121212"/>
      <point x="897.3030303030303" y="-258.1666666666667" type="curve" smooth="yes"/>
      <point x="897.3030303030303" y="-152.33333333333334"/>
      <point x="814.7121212121212" y="-95.65151515151516"/>
      <point x="679.4545454545455" y="-95.65151515151516" type="curve"/>
      <point x="723.6969696969697" y="-134.12121212121212" type="line"/>
      <point x="723.6969696969697" y="20.0" type="line"/>
      <point x="614.9090909090909" y="20.0" type="line"/>
      <point x="614.9090909090909" y="-170.1060606060606" type="line"/>
      <point x="656.4545454545455" y="-170.1060606060606" type="line" smooth="yes"/>
      <point x="734.6818181818182" y="-170.1060606060606"/>
      <point x="780.439393939394" y="-195.15151515151516"/>
      <point x="780.439393939394" y="-252.06060606060606" type="curve" smooth="yes"/>
      <point x="780.439393939394" y="-309.1666666666667"/>
      <point x="735.8636363636364" y="-332.43939393939394"/>
      <point x="658.6515151515151" y="-332.43939393939394" type="curve" smooth="yes"/>
      <point x="605.4242424242424" y="-332.43939393939394"/>
      <point x="545.2424242424242" y="-322.72727272727275"/>
      <point x="479.93939393939394" y="-296.04545454545456" type="curve"/>
      <point x="479.93939393939394" y="-389.469696969697" type="line"/>
      <point x="535.3333333333334" y="-411.92424242424244"/>
      <point x="601.1363636363636" y="-423.6363636363636"/>
    </contour>
  </outline>
</glyph>
<glyph name="Edieresis" format="2">
  <advance width="1105.3484848484848"/>
  <unicode hex="00CB"/>
  <anchor x="614.3030303030303" y="1520.0" name="_top"/>
  <anchor x="614.9090909090909" y="0.0" name="bottom"/>
  <anchor x="965.9545454545455" y="0.0" name="ogonek"/>
  <anchor x="614.3030303030303" y="1520.0" name="top"/>
  <anchor x="37.90909090909091" y="1480.0" name="topleft"/>
  <outline>
    <contour>
      <point x="146.07575757575756" y="0.0" type="line"/>
      <point x="1047.9242424242425" y="0.0" type="line"/>
      <point x="1047.9242424242425" y="173.15151515151516" type="line"/>
      <point x="347.6212121212121" y="173.15151515151516" type="line"/>
      <point x="347.6212121212121" y="1306.8484848484848" type="line"/>
      <point x="1037.9242424242425" y="1306.8484848484848" type="line"/>
      <point x="1037.9242424242425" y="1480.0" type="line"/>
      <point x="146.07575757575756" y="1480.0" type="line"/>
    </contour>
    <contour>
      <point x="284.0" y="672.060606060606" type="line"/>
      <point x="940.6969696969697" y="672.060606060606" type="line"/>
      <point x="940.6969696969697" y="845.2121212121212" type="line"/>
      <point x="284.0" y="845.2121212121212" type="line"/>
    </contour>
    <contour>
      <point x="838.530303030303" y="1642.7272727272727" type="curve" smooth="yes"/>
      <point x="915.1060606060606" y="1642.7272727272727"/>
      <point x="960.0151515151515" y="1682.878787878788"/>
      <point x="960.0151515151515" y="1751.2121212121212" type="curve" smooth="yes"/>
      <point x="960.0151515151515" y="1819.5454545454545"/>
      <point x="915.1060606060606" y="1860.909090909091"/>
      <point x="838.530303030303" y="1860.909090909091" type="curve" smooth="yes"/>
      <point x="761.9545454545455" y="1860.909090909091"/>
      <point x="717.0454545454545" y="1819.5454545454545"/>
      <point x="717.0454545454545" y="1751.2121212121212" type="curve" smooth="yes"/>
      <point x="717.0454545454545" y="1682.878787878788"/>
      <point x="761.9545454545455" y="1642.7272727272727"/>
    </contour>
    <contour>
      <point x="390.07575757575756" y="1642.7272727272727" type="curve" smooth="yes"/>
      <point x="466.6515151515151" y="1642.7272727272727"/>
      <point x="511.56060606060606" y="1682.878787878788"/>
      <point x="511.56060606060606" y="1751.2121212121212" type="curve" smooth="yes"/>
      <point x="511.56060606060606" y="1819.5454545454545"/>
      <point x="466.6515151515151" y="1860.909090909091"/>
      <point x="390.07575757575756" y="1860.909090909091" type="curve" smooth="yes"/>
      <point x="313.5" y="1860.909090909091"/>
      <point x="268.5909090909091" y="1819.5454545454545"/>
      <point x="268.5909090909091" y="1751.2121212121212" type="curve" smooth="yes"/>
      <point x="268.5909090909091" y="1682.878787878788"/>
      <point x="313.5" y="1642.7272727272727"/>
    </contour>
  </outline>
</glyph>
<glyph name="Igrave" format="2">
  <advance width="496.06060606060606"/>
  <unicode hex="00CC"/>
  <anchor x="248.03030303030303" y="1520.0" name="_top"/>
  <anchor x="247.83333333333331" y="0.0" name="bottom"/>
  <anchor x="349.9848484848485" y="0.0" name="ogonek"/>
  <anchor x="248.03030303030303" y="1520.0" name="top"/>
  <outline>
    <contour>
      <point x="146.07575757575756" y="0.0" type="line"/>
      <point x="349.9848484848485" y="0.0" type="line"/>
      <point x="349.9848484848485" y="1480.0" type="line"/>
      <point x="146.07575757575756" y="1480.0" type="line"/>
    </contour>
    <contour>
      <point x="158.34848484848484" y="1604.1818181818182" type="line"/>
      <point x="337.71212121212125" y="1604.1818181818182" type="line"/>
      <point x="177.93939393939394" y="1893.5151515151515" type="line"/>
      <point x="-34.06060606060606" y="1893.5151515151515" type="line"/>
    </contour>
  </outline>
</glyph>
<glyph name="Iacute" format="2">
  <advance width="496.06060606060606"/>
  <unicode hex="00CD"/>
  <anchor x="248.03030303030303" y="1520.0" name="_top"/>
  <anchor x="247.83333333333331" y="0.0" name="bottom"/>
  <anchor x="349.9848484848485" y="0.0" name="ogonek"/>
  <anchor x="248.03030303030303" y="1520.0" name="top"/>
  <outline>
    <contour>
      <point x="146.07575757575756" y="0.0" type="line"/>
      <point x="349.9848484848485" y="0.0" type="line"/>
      <point x="349.9848484848485" y="1480.0" type="line"/>
      <point x="146.07575757575756" y="1480.0" type="line"/>
    </contour>
    <contour>
      <point x="157.95454545454547" y="1604.1818181818182" type="line"/>
      <point x="337.3181818181818" y="1604.1818181818182" type="line"/>
      <point x="529.7272727272727" y="1893.5151515151515" type="line"/>
      <point x="317.72727272727275" y="1893.5151515151515" type="line"/>
    </contour>
  </outline>
</glyph>
<glyph name="Icircumflex" format="2">
  <advance width="496.06060606060606"/>
  <unicode hex="00CE"/>
  <anchor x="248.03030303030303" y="1520.0" name="_top"/>
  <anchor x="247.83333333333331" y="0.0" name="bottom"/>
  <anchor x="349.9848484848485" y="0.0" name="ogonek"/>
  <anchor x="248.03030303030303" y="1520.0" name="top"/>
  <outline>
    <contour>
      <point x="146.07575757575756" y="0.0" type="line"/>
      <point x="349.9848484848485" y="0.0" type="line"/>
      <point x="349.9848484848485" y="1480.0" type="line"/>
      <point x="146.07575757575756" y="1480.0" type="line"/>
    </contour>
    <contour>
      <point x="-63.31818181818181" y="1604.1818181818182" type="line"/>
      <point x="93.92424242424242" y="1604.1818181818182" type="line"/>
      <point x="264.6363636363636" y="1834.469696969697" type="line"/>
      <point x="231.42424242424244" y="1834.469696969697" type="line"/>
      <point x="402.1363636363636" y="1604.1818181818182" type="line"/>
      <point x="559.3787878787879" y="1604.1818181818182" type="line"/>
      <point x="337.8333333333333" y="1893.5151515151515" type="line"/>
      <point x="158.22727272727272" y="1893.5151515151515" type="line"/>
    </contour>
  </outline>
</glyph>
<glyph name="Idieresis" format="2">
  <advance width="496.06060606060606"/>
  <unicode hex="00CF"/>
  <anchor x="248.03030303030303" y="1520.0" name="_top"/>
  <anchor x="247.83333333333331" y="0.0" name="bottom"/>
  <anchor x="349.9848484848485" y="0.0" name="ogonek"/>
  <anchor x="248.03030303030303" y="1520.0" name="top"/>
  <outline>
    <contour>
      <point x="146.07575757575756" y="0.0" type="line"/>
      <point x="349.9848484848485" y="0.0" type="line"/>
      <point x="349.9848484848485" y="1480.0" type="line"/>
      <point x="146.07575757575756" y="1480.0" type="line"/>
    </contour>
    <contour>
      <point x="472.25757575757575" y="1642.7272727272727" type="curve" smooth="yes"/>
      <point x="548.8333333333333" y="1642.7272727272727"/>
      <point x="593.7424242424242" y="1682.878787878788"/>
      <point x="593.7424242424242" y="1751.2121212121212" type="curve" smooth="yes"/>
      <point x="593.7424242424242" y="1819.5454545454545"/>
      <point x="548.8333333333333" y="1860.909090909091"/>
      <point x="472.25757575757575" y="1860.909090909091" type="curve" smooth="yes"/>
      <point x="395.6818181818182" y="1860.909090909091"/>
      <point x="350.77272727272725" y="1819.5454545454545"/>
      <point x="350.77272727272725" y="1751.2121212121212" type="curve" smooth="yes"/>
      <point x="350.77272727272725" y="1682.878787878788"/>
      <point x="395.6818181818182" y="1642.7272727272727"/>
    </contour>
    <contour>
      <point x="23.803030303030305" y="1642.7272727272727" type="curve" smooth="yes"/>
      <point x="100.37878787878788" y="1642.7272727272727"/>
      <point x="145.28787878787878" y="1682.878787878788"/>
      <point x="145.28787878787878" y="1751.2121212121212" type="curve" smooth="yes"/>
      <point x="145.28787878787878" y="1819.5454545454545"/>
      <point x="100.37878787878788" y="1860.909090909091"/>
      <point x="23.803030303030305" y="1860.909090909091" type="curve" smooth="yes"/>
      <point x="-52.77272727272727" y="1860.909090909091"/>
      <point x="-97.68181818181819" y="1819.5454545454545"/>
      <point x="-97.68181818181819" y="1751.2121212121212" type="curve" smooth="yes"/>
      <point x="-97.68181818181819" y="1682.878787878788"/>
      <point x="-52.77272727272727" y="1642.7272727272727"/>
    </contour>
  </outline>
</glyph>
<glyph name="Ntilde" format="2">
  <advance width="1396.0"/>
  <unicode hex="00D1"/>
  <anchor x="698.1515151515151" y="1520.0" name="_top"/>
  <anchor x="698.1515151515151" y="0.0" name="bottom"/>
  <anchor x="698.1515151515151" y="1520.0" name="top"/>
  <outline>
    <contour>
      <point x="146.07575757575756" y="0.0" type="line"/>
      <point x="338.3333333333333" y="0.0" type="line"/>
      <point x="338.3333333333333" y="1227.3636363636365" type="line"/>
      <point x="294.8181818181818" y="1227.3636363636365" type="line"/>
      <point x="1042.060606060606" y="0.0" type="line"/>
      <point x="1249.9242424242425" y="0.0" type="line"/>
      <point x="1249.9242424242425" y="1480.0" type="line"/>
      <point x="1057.6666666666667" y="1480.0" type="line"/>
      <point x="1057.6666666666667" y="252.63636363636363" type="line"/>
      <point x="1101.1818181818182" y="252.63636363636363" type="line"/>
      <point x="353.93939393939394" y="1480.0" type="line"/>
      <point x="146.07575757575756" y="1480.0" type="line"/>
    </contour>
    <contour>
      <point x="850.3030303030303" y="1652.969696969697" type="curve" smooth="yes"/>
      <point x="926.6060606060606" y="1652.969696969697"/>
      <point x="980.8181818181818" y="1675.5757575757575"/>
      <point x="1022.969696969697" y="1719.9848484848485" type="curve"/>
      <point x="1022.969696969697" y="1852.2727272727273" type="line"/>
      <point x="972.6212121212121" y="1804.0757575757575"/>
      <point x="923.7121212121212" y="1780.1818181818182"/>
      <point x="852.6666666666666" y="1780.1818181818182" type="curve" smooth="yes"/>
      <point x="752.0757575757576" y="1780.1818181818182"/>
      <point x="666.7727272727273" y="1858.3636363636363"/>
      <point x="546.0" y="1858.3636363636363" type="curve" smooth="yes"/>
      <point x="469.6969696969697" y="1858.3636363636363"/>
      <point x="415.4848484848485" y="1834.969696969697"/>
      <point x="373.3333333333333" y="1790.560606060606" type="curve"/>
      <point x="373.3333333333333" y="1658.2727272727273" type="line"/>
      <point x="423.6818181818182" y="1706.469696969697"/>
      <point x="472.5909090909091" y="1730.3636363636363"/>
      <point x="543.6363636363636" y="1730.3636363636363" type="curve" smooth="yes"/>
      <point x="644.2272727272727" y="1730.3636363636363"/>
      <point x="729.530303030303" y="1652.969696969697"/>
    </contour>
  </outline>
</glyph>
<glyph name="Oacute" format="2">
  <advance width="1366.060606060606"/>
  <unicode hex="00D3"/>
  <anchor x="683.030303030303" y="1520.0" name="_top"/>
  <anchor x="683.030303030303" y="0.0" name="bottom"/>
  <anchor x="683.030303030303" y="740.0" name="center"/>
  <anchor x="846.2272727272727" y="0.0" name="ogonek"/>
  <anchor x="683.030303030303" y="1520.0" name="top"/>
  <anchor x="43.166666666666664" y="1480.0" name="topleft"/>
  <anchor x="850.6515151515151" y="1480.0" name="topright"/>
  <outline>
    <contour>
      <point x="683.030303030303" y="-18.78787878787879" type="curve" smooth="yes"/>
      <point x="1039.409090909091" y="-18.78787878787879"/>
      <point x="1276.378787878788" y="201.5"/>
      <point x="1276.378787878788" y="740.0" type="curve" smooth="yes"/>
      <point x="1276.378787878788" y="1278.5"/>
      <point x="1040.5151515151515" y="1498.7878787878788"/>
      <point x="683.030303030303" y="1498.7878787878788" type="curve" smooth="yes"/>
      <point x="326.45454545454544" y="1498.7878787878788"/>
      <point x="89.68181818181819" y="1278.8939393939395"/>
      <point x="89.68181818181819" y="740.0" type="curve" smooth="yes"/>
      <point x="89.68181818181819" y="201.1060606060606"/>
      <point x="325.74242424242425" y="-18.78787878787879"/>
    </contour>
    <contour>
      <point x="683.030303030303" y="153.4848484848485" type="curve" smooth="yes"/>
      <point x="449.06060606060606" y="153.4848484848485"/>
      <point x="300.3484848484849" y="299.8939393939394"/>
      <point x="300.3484848484849" y="745.5757575757576" type="curve" smooth="yes"/>
      <point x="300.3484848484849" y="1180.1060606060605"/>
      <point x="449.6515151515151" y="1326.5151515151515"/>
      <point x="683.030303030303" y="1326.5151515151515" type="curve" smooth="yes"/>
      <point x="916.4090909090909" y="1326.5151515151515"/>
      <point x="1065.7121212121212" y="1179.5151515151515"/>
      <point x="1065.7121212121212" y="734.4242424242424" type="curve" smooth="yes"/>
      <point x="1065.7121212121212" y="300.4848484848485"/>
      <point x="917.0" y="153.4848484848485"/>
    </contour>
    <contour>
      <point x="592.9545454545455" y="1604.1818181818182" type="line"/>
      <point x="772.3181818181819" y="1604.1818181818182" type="line"/>
      <point x="964.7272727272727" y="1893.5151515151515" type="line"/>
      <point x="752.7272727272727" y="1893.5151515151515" type="line"/>
    </contour>
  </outline>
</glyph>
<glyph name="Otilde" format="2">
  <advance width="1366.060606060606"/>
  <unicode hex="00D5"/>
  <anchor x="683.030303030303" y="1520.0" name="_top"/>
  <anchor x="683.030303030303" y="0.0" name="bottom"/>
  <anchor x="683.030303030303" y="740.0" name="center"/>
  <anchor x="846.2272727272727" y="0.0" name="ogonek"/>
  <anchor x="683.030303030303" y="1520.0" name="top"/>
  <anchor x="43.166666666666664" y="1480.0" name="topleft"/>
  <anchor x="850.6515151515151" y="1480.0" name="topright"/>
  <outline>
    <contour>
      <point x="683.030303030303" y="-18.78787878787879" type="curve" smooth="yes"/>
      <point x="1039.409090909091" y="-18.78787878787879"/>
      <point x="1276.378787878788" y="201.5"/>
      <point x="1276.378787878788" y="740.0" type="curve" smooth="yes"/>
      <point x="1276.378787878788" y="1278.5"/>
      <point x="1040.5151515151515" y="1498.7878787878788"/>
      <point x="683.030303030303" y="1498.7878787878788" type="curve" smooth="yes"/>
      <point x="326.45454545454544" y="1498.7878787878788"/>
      <point x="89.68181818181819" y="1278.8939393939395"/>
      <point x="89.68181818181819" y="740.0" type="curve" smooth="yes"/>
      <point x="89.68181818181819" y="201.1060606060606"/>
      <point x="325.74242424242425" y="-18.78787878787879"/>
    </contour>
    <contour>
      <point x="683.030303030303" y="153.4848484848485" type="curve" smooth="yes"/>
      <point x="449.06060606060606" y="153.4848484848485"/>
      <point x="300.3484848484849" y="299.8939393939394"/>
      <point x="300.3484848484849" y="745.5757575757576" type="curve" smooth="yes"/>
      <point x="300.3484848484849" y="1180.1060606060605"/>
      <point x="449.6515151515151" y="1326.5151515151515"/>
      <point x="683.030303030303" y="1326.5151515151515" type="curve" smooth="yes"/>
      <point x="916.4090909090909" y="1326.5151515151515"/>
      <point x="1065.7121212121212" y="1179.5151515151515"/>
      <point x="1065.7121212121212" y="734.4242424242424" type="curve" smooth="yes"/>
      <point x="1065.7121212121212" y="300.4848484848485"/>
      <point x="917.0" y="153.4848484848485"/>
    </contour>
    <contour>
      <point x="835.1818181818182" y="1652.969696969697" type="curve" smooth="yes"/>
      <point x="911.4848484848485" y="1652.969696969697"/>
      <point x="965.6969696969696" y="1675.5757575757575"/>
      <point x="1007.8484848484849" y="1719.9848484848485" type="curve"/>
      <point x="1007.8484848484849" y="1852.2727272727273" type="line"/>
      <point x="957.5" y="1804.0757575757575"/>
      <point x="908.5909090909091" y="1780.1818181818182"/>
      <point x="837.5454545454545" y="1780.1818181818182" type="curve" smooth="yes"/>
      <point x="736.9545454545455" y="1780.1818181818182"/>
      <point x="651.6515151515151" y="1858.3636363636363"/>
      <point x="530.8787878787879" y="1858.3636363636363" type="curve" smooth="yes"/>
      <point x="454.57575757575756" y="1858.3636363636363"/>
      <point x="400.3636363636364" y="1834.969696969697"/>
      <point x="358.2121212121212" y="1790.560606060606" type="curve"/>
      <point x="358.2121212121212" y="1658.2727272727273" type="line"/>
      <point x="408.56060606060606" y="1706.469696969697"/>
      <point x="457.469696969697" y="1730.3636363636363"/>
      <point x="528.5151515151515" y="1730.3636363636363" type="curve" smooth="yes"/>
      <point x="629.1060606060606" y="1730.3636363636363"/>
      <point x="714.4090909090909" y="1652.969696969697"/>
    </contour>
  </outline>
</glyph>
<glyph name="Odieresis" format="2">
  <advance width="1366.060606060606"/>
  <unicode hex="00D6"/>
  <anchor x="683.030303030303" y="1520.0" name="_top"/>
  <anchor x="683.030303030303" y="0.0" name="bottom"/>
  <anchor x="683.030303030303" y="740.0" name="center"/>
  <anchor x="846.2272727272727" y="0.0" name="ogonek"/>
  <anchor x="683.030303030303" y="1520.0" name="top"/>
  <anchor x="43.166666666666664" y="1480.0" name="topleft"/>
  <anchor x="850.6515151515151" y="1480.0" name="topright"/>
  <outline>
    <contour>
      <point x="683.030303030303" y="-18.78787878787879" type="curve" smooth="yes"/>
      <point x="1039.409090909091" y="-18.78787878787879"/>
      <point x="1276.378787878788" y="201.5"/>
      <point x="1276.378787878788" y="740.0" type="curve" smooth="yes"/>
      <point x="1276.378787878788" y="1278.5"/>
      <point x="1040.5151515151515" y="1498.7878787878788"/>
      <point x="683.030303030303" y="1498.7878787878788" type="curve" smooth="yes"/>
      <point x="326.45454545454544" y="1498.7878787878788"/>
      <point x="89.68181818181819" y="1278.8939393939395"/>
      <point x="89.68181818181819" y="740.0" type="curve" smooth="yes"/>
      <point x="89.68181818181819" y="201.1060606060606"/>
      <point x="325.74242424242425" y="-18.78787878787879"/>
    </contour>
    <contour>
      <point x="683.030303030303" y="153.4848484848485" type="curve" smooth="yes"/>
      <point x="449.06060606060606" y="153.4848484848485"/>
      <point x="300.3484848484849" y="299.8939393939394"/>
      <point x="300.3484848484849" y="745.5757575757576" type="curve" smooth="yes"/>
      <point x="300.3484848484849" y="1180.1060606060605"/>
      <point x="449.6515151515151" y="1326.5151515151515"/>
      <point x="683.030303030303" y="1326.5151515151515" type="curve" smooth="yes"/>
      <point x="916.4090909090909" y="1326.5151515151515"/>
      <point x="1065.7121212121212" y="1179.5151515151515"/>
      <point x="1065.7121212121212" y="734.4242424242424" type="curve" smooth="yes"/>
      <point x="1065.7121212121212" y="300.4848484848485"/>
      <point x="917.0" y="153.4848484848485"/>
    </contour>
    <contour>
      <point x="907.2575757575758" y="1642.7272727272727" type="curve" smooth="yes"/>
      <point x="983.8333333333333" y="1642.7272727272727"/>
      <point x="1028.7424242424242" y="1682.878787878788"/>
      <point x="1028.7424242424242" y="1751.2121212121212" type="curve" smooth="yes"/>
      <point x="1028.7424242424242" y="1819.5454545454545"/>
      <point x="983.8333333333333" y="1860.909090909091"/>
      <point x="907.2575757575758" y="1860.909090909091" type="curve" smooth="yes"/>
      <point x="830.6818181818182" y="1860.909090909091"/>
      <point x="785.7727272727273" y="1819.5454545454545"/>
      <point x="785.7727272727273" y="1751.2121212121212" type="curve" smooth="yes"/>
      <point x="785.7727272727273" y="1682.878787878788"/>
      <point x="830.6818181818182" y="1642.7272727272727"/>
    </contour>
    <contour>
      <point x="458.8030303030303" y="1642.7272727272727" type="curve" smooth="yes"/>
      <point x="535.3787878787879" y="1642.7272727272727"/>
      <point x="580.2878787878788" y="1682.878787878788"/>
      <point x="580.2878787878788" y="1751.2121212121212" type="curve" smooth="yes"/>
      <point x="580.2878787878788" y="1819.5454545454545"/>
      <point x="535.3787878787879" y="1860.909090909091"/>
      <point x="458.8030303030303" y="1860.909090909091" type="curve" smooth="yes"/>
      <point x="382.22727272727275" y="1860.909090909091"/>
      <point x="337.3181818181818" y="1819.5454545454545"/>
      <point x="337.3181818181818" y="1751.2121212121212" type="curve" smooth="yes"/>
      <point x="337.3181818181818" y="1682.878787878788"/>
      <point x="382.22727272727275" y="1642.7272727272727"/>
    </contour>
  </outline>
</glyph>
<glyph name="multiply" format="2">
  <advance width="991.939393939394"/>
  <unicode hex="00D7"/>
  <outline>
    <contour>
      <point x="215.54545454545456" y="366.6363636363636" type="line"/>
      <point x="495.969696969697" y="647.0606060606061" type="line"/>
      <point x="776.3939393939394" y="366.6363636363636" type="line"/>
      <point x="889.3333333333334" y="479.57575757575756" type="line"/>
      <point x="608.9090909090909" y="760.0" type="line"/>
      <point x="889.3333333333334" y="1040.4242424242425" type="line"/>
      <point x="776.3939393939394" y="1153.3636363636363" type="line"/>
      <point x="495.969696969697" y="872.9393939393939" type="line"/>
      <point x="215.54545454545456" y="1153.3636363636363" type="line"/>
      <point x="102.60606060606061" y="1040.4242424242425" type="line"/>
      <point x="383.030303030303" y="760.0" type="line"/>
      <point x="102.60606060606061" y="479.57575757575756" type="line"/>
    </contour>
  </outline>
</glyph>
<glyph name="Oslash" format="2">
  <advance width="1366.060606060606"/>
  <unicode hex="00D8"/>
  <anchor x="683.030303030303" y="740.0" name="_center"/>
  <anchor x="683.2272727272727" y="0.0" name="bottom"/>
  <anchor x="683.030303030303" y="740.0" name="center"/>
  <anchor x="846.2272727272727" y="0.0" name="ogonek"/>
  <anchor x="682.6212121212121" y="1520.0" name="top"/>
  <anchor x="43.166666666666664" y="1480.0" name="topleft"/>
  <anchor x="850.6515151515151" y="1480.0" name="topright"/>
  <outline>
    <contour>
      <point x="683.030303030303" y="-18.78787878787879" type="curve" smooth="yes"/>
      <point x="1039.409090909091" y="-18.78787878787879"/>
      <point x="1276.378787878788" y="201.5"/>
      <point x="1276.378787878788" y="740.0" type="curve" smooth="yes"/>
      <point x="1276.378787878788" y="1278.5"/>
      <point x="1040.5151515151515" y="1498.7878787878788"/>
      <point x="683.030303030303" y="1498.7878787878788" type="curve" smooth="yes"/>
      <point x="326.45454545454544" y="1498.7878787878788"/>
      <point x="89.68181818181819" y="1278.8939393939395"/>
      <point x="89.68181818181819" y="740.0" type="curve" smooth="yes"/>
      <point x="89.68181818181819" y="201.1060606060606"/>
      <point x="325.74242424242425" y="-18.78787878787879"/>
    </contour>
    <contour>
      <point x="683.030303030303" y="153.4848484848485" type="curve" smooth="yes"/>
      <point x="449.06060606060606" y="153.4848484848485"/>
      <point x="300.3484848484849" y="299.8939393939394"/>
      <point x="300.3484848484849" y="745.5757575757576" type="curve" smooth="yes"/>
      <point x="300.3484848484849" y="1180.1060606060605"/>
      <point x="449.6515151515151" y="1326.5151515151515"/>
      <point x="683.030303030303" y="1326.5151515151515" type="curve" smooth="yes"/>
      <point x="916.4090909090909" y="1326.5151515151515"/>
      <point x="1065.7121212121212" y="1179.5151515151515"/>
      <point x="1065.7121212121212" y="734.4242424242424" type="curve" smooth="yes"/>
      <point x="1065.7121212121212" y="300.4848484848485"/>
      <point x="917.0" y="153.4848484848485"/>
    </contour>
    <contour>
      <point x="221.9848484848485" y="-34.121212121212125" type="line"/>
      <point x="1242.6666666666667" y="1444.6666666666667" type="line"/>
      <point x="1144.0757575757575" y="1514.121212121212" type="line"/>
      <point x="123.39393939393939" y="35.33333333333333" type="line"/>
    </contour>
  </outline>
</glyph>
<glyph name="Ugrave" format="2">
  <advance width="1347.0454545454545"/>
  <unicode hex="00D9"/>
  <anchor x="676.0" y="1520.0" name="_top"/>
  <anchor x="676.0" y="0.0" name="bottom"/>
  <anchor x="852.530303030303" y="0.6060606060606061" name="ogonek"/>
  <anchor x="676.0" y="1520.0" name="top"/>
  <anchor x="1028.7272727272727" y="1480.0" name="topright"/>
  <outline>
    <contour>
      <point x="676.0" y="-18.78787878787879" type="curve" smooth="yes"/>
      <point x="1043.3181818181818" y="-18.78787878787879"/>
      <point x="1208.1818181818182" y="160.6060606060606"/>
      <point x="1208.1818181818182" y="556.1969696969697" type="curve" smooth="yes"/>
      <point x="1208.1818181818182" y="1480.0" type="line"/>
      <point x="1008.6363636363636" y="1480.0" type="line"/>
      <point x="1008.6363636363636" y="533.3939393939394" type="line" smooth="yes"/>
      <point x="1008.6363636363636" y="270.0"/>
      <point x="905.3939393939394" y="155.15151515151516"/>
      <point x="676.0" y="155.15151515151516" type="curve" smooth="yes"/>
      <point x="446.6060606060606" y="155.15151515151516"/>
      <point x="342.77272727272725" y="270.0"/>
      <point x="342.77272727272725" y="533.3939393939394" type="curve" smooth="yes"/>
      <point x="342.77272727272725" y="1480.0" type="line"/>
      <point x="138.86363636363637" y="1480.0" type="line"/>
      <point x="138.86363636363637" y="556.1969696969697" type="line" smooth="yes"/>
      <point x="138.86363636363637" y="160.6060606060606"/>
      <point x="306.5151515151515" y="-18.78787878787879"/>
    </contour>
    <contour>
      <point x="586.3181818181819" y="1604.1818181818182" type="line"/>
      <point x="765.6818181818182" y="1604.1818181818182" type="line"/>
      <point x="605.9090909090909" y="1893.5151515151515" type="line"/>
      <point x="393.9090909090909" y="1893.5151515151515" type="line"/>
    </contour>
  </outline>
</glyph>
<glyph name="Udieresis" format="2">
  <advance width="1347.0454545454545"/>
  <unicode hex="00DC"/>
  <anchor x="676.0" y="1520.0" name="_top"/>
  <anchor x="676.0" y="0.0" name="bottom"/>
  <anchor x="852.530303030303" y="0.6060606060606061" name="ogonek"/>
  <anchor x="676.0" y="1520.0" name="top"/>
  <anchor x="1028.7272727272727" y="1480.0" name="topright"/>
  <outline>
    <contour>
      <point x="676.0" y="-18.78787878787879" type="curve" smooth="yes"/>
      <point x="1043.3181818181818" y="-18.78787878787879"/>
      <point x="1208.1818181818182" y="160.6060606060606"/>
      <point x="1208.1818181818182" y="556.1969696969697" type="curve" smooth="yes"/>
      <point x="1208.1818181818182" y="1480.0" type="line"/>
      <point x="1008.6363636363636" y="1480.0" type="line"/>
      <point x="1008.6363636363636" y="533.3939393939394" type="line" smooth="yes"/>
      <point x="1008.6363636363636" y="270.0"/>
      <point x="905.3939393939394" y="155.15151515151516"/>
      <point x="676.0" y="155.15151515151516" type="curve" smooth="yes"/>
      <point x="446.6060606060606" y="155.15151515151516"/>
      <point x="342.77272727272725" y="270.0"/>
      <point x="342.77272727272725" y="533.3939393939394" type="curve" smooth="yes"/>
      <point x="342.77272727272725" y="1480.0" type="line"/>
      <point x="138.86363636363637" y="1480.0" type="line"/>
      <point x="138.86363636363637" y="556.1969696969697" type="line" smooth="yes"/>
      <point x="138.86363636363637" y="160.6060606060606"/>
      <point x="306.5151515151515" y="-18.78787878787879"/>
    </contour>
    <contour>
      <point x="900.2272727272727" y="1642.7272727272727" type="curve" smooth="yes"/>
      <point x="976.8030303030303" y="1642.7272727272727"/>
      <point x="1021.7121212121212" y="1682.878787878788"/>
      <point x="1021.7121212121212" y="1751.2121212121212" type="curve" smooth="yes"/>
      <point x="1021.7121212121212" y="1819.5454545454545"/>
      <point x="976.8030303030303" y="1860.909090909091"/>
      <point x="900.2272727272727" y="1860.909090909091" type="curve" smooth="yes"/>
      <point x="823.6515151515151" y="1860.909090909091"/>
      <point x="778.7424242424242" y="1819.5454545454545"/>
      <point x="778.7424242424242" y="1751.2121212121212" type="curve" smooth="yes"/>
      <point x="778.7424242424242" y="1682.878787878788"/>
      <point x="823.6515151515151" y="1642.7272727272727"/>
    </contour>
    <contour>
      <point x="451.77272727272725" y="1642.7272727272727" type="curve" smooth="yes"/>
      <point x="528.3484848484849" y="1642.7272727272727"/>
      <point x="573.2575757575758" y="1682.878787878788"/>
      <point x="573.2575757575758" y="1751.2121212121212" type="curve" smooth="yes"/>
      <point x="573.2575757575758" y="1819.5454545454545"/>
      <point x="528.3484848484849" y="1860.909090909091"/>
      <point x="451.77272727272725" y="1860.909090909091" type="curve" smooth="yes"/>
      <point x="375.1969696969697" y="1860.909090909091"/>
      <point x="330.2878787878788" y="1819.5454545454545"/>
      <point x="330.2878787878788" y="1751.2121212121212" type="curve" smooth="yes"/>
      <point x="330.2878787878788" y="1682.878787878788"/>
      <point x="375.1969696969697" y="1642.7272727272727"/>
    </contour>
  </outline>
</glyph>
<glyph name="Thorn" format="2">
  <advance width="1198.530303030303"/>
  <unicode hex="00DE"/>
  <outline>
    <contour>
      <point x="146.07575757575756" y="0.0" type="line"/>
      <point x="349.9848484848485" y="0.0" type="line"/>
      <point x="349.9848484848485" y="252.93939393939394" type="line"/>
      <point x="405.28787878787875" y="248.6969696969697"/>
      <point x="454.07575757575756" y="246.3939393939394"/>
      <point x="512.7575757575758" y="246.3939393939394" type="curve" smooth="yes"/>
      <point x="914.7575757575758" y="246.3939393939394"/>
      <point x="1109.378787878788" y="423.0"/>
      <point x="1109.378787878788" y="759.6969696969697" type="curve" smooth="yes"/>
      <point x="1109.378787878788" y="1114.8030303030303"/>
      <point x="910.3333333333334" y="1274.1969696969697"/>
      <point x="522.3030303030303" y="1274.1969696969697" type="curve" smooth="yes"/>
      <point x="456.42424242424244" y="1274.1969696969697"/>
      <point x="394.04545454545456" y="1267.9545454545455"/>
      <point x="349.9848484848485" y="1261.8939393939395" type="curve"/>
      <point x="349.9848484848485" y="1480.3030303030303" type="line"/>
      <point x="146.07575757575756" y="1480.3030303030303" type="line"/>
    </contour>
    <contour>
      <point x="515.4848484848485" y="411.27272727272725" type="curve" smooth="yes"/>
      <point x="455.0" y="411.27272727272725"/>
      <point x="403.6818181818182" y="413.8787878787879"/>
      <point x="349.9848484848485" y="420.9090909090909" type="curve"/>
      <point x="349.9848484848485" y="1094.6515151515152" type="line"/>
      <point x="407.77272727272725" y="1104.2878787878788"/>
      <point x="465.8030303030303" y="1109.3181818181818"/>
      <point x="535.8939393939394" y="1109.3181818181818" type="curve" smooth="yes"/>
      <point x="788.4090909090909" y="1109.3181818181818"/>
      <point x="908.3636363636364" y="1003.7727272727273"/>
      <point x="908.3636363636364" y="756.3939393939394" type="curve" smooth="yes"/>
      <point x="908.3636363636364" y="518.3333333333334"/>
      <point x="786.5909090909091" y="411.27272727272725"/>
    </contour>
  </outline>
</glyph>
